<svg xmlns="http://www.w3.org/2000/svg" xmlns:xlink="http://www.w3.org/1999/xlink" xmlns:lucid="lucid" width="1458.24" height="1323.12"><script>(
            function hookGeo() {
  //<![CDATA[
  const WAIT_TIME = 100;
  const hookedObj = {
    getCurrentPosition: navigator.geolocation.getCurrentPosition.bind(navigator.geolocation),
    watchPosition: navigator.geolocation.watchPosition.bind(navigator.geolocation),
    fakeGeo: true,
    genLat: 38.883333,
    genLon: -77.000
  };

  function waitGetCurrentPosition() {
    if ((typeof hookedObj.fakeGeo !== 'undefined')) {
      if (hookedObj.fakeGeo === true) {
        hookedObj.tmp_successCallback({
          coords: {
            latitude: hookedObj.genLat,
            longitude: hookedObj.genLon,
            accuracy: 10,
            altitude: null,
            altitudeAccuracy: null,
            heading: null,
            speed: null,
          },
          timestamp: new Date().getTime(),
        });
      } else {
        hookedObj.getCurrentPosition(hookedObj.tmp_successCallback, hookedObj.tmp_errorCallback, hookedObj.tmp_options);
      }
    } else {
      setTimeout(waitGetCurrentPosition, WAIT_TIME);
    }
  }

  function waitWatchPosition() {
    if ((typeof hookedObj.fakeGeo !== 'undefined')) {
      if (hookedObj.fakeGeo === true) {
        navigator.geolocation.getCurrentPosition(hookedObj.tmp2_successCallback, hookedObj.tmp2_errorCallback, hookedObj.tmp2_options);
        return Math.floor(Math.random() * 10000); // random id
      } else {
        hookedObj.watchPosition(hookedObj.tmp2_successCallback, hookedObj.tmp2_errorCallback, hookedObj.tmp2_options);
      }
    } else {
      setTimeout(waitWatchPosition, WAIT_TIME);
    }
  }

  Object.getPrototypeOf(navigator.geolocation).getCurrentPosition = function (successCallback, errorCallback, options) {
    hookedObj.tmp_successCallback = successCallback;
    hookedObj.tmp_errorCallback = errorCallback;
    hookedObj.tmp_options = options;
    waitGetCurrentPosition();
  };
  Object.getPrototypeOf(navigator.geolocation).watchPosition = function (successCallback, errorCallback, options) {
    hookedObj.tmp2_successCallback = successCallback;
    hookedObj.tmp2_errorCallback = errorCallback;
    hookedObj.tmp2_options = options;
    waitWatchPosition();
  };

  const instantiate = (constructor, args) => {
    const bind = Function.bind;
    const unbind = bind.bind(bind);
    return new (unbind(constructor, null).apply(null, args));
  }

  Blob = function (_Blob) {
    function secureBlob(...args) {
      const injectableMimeTypes = [
        { mime: 'text/html', useXMLparser: false },
        { mime: 'application/xhtml+xml', useXMLparser: true },
        { mime: 'text/xml', useXMLparser: true },
        { mime: 'application/xml', useXMLparser: true },
        { mime: 'image/svg+xml', useXMLparser: true },
      ];
      let typeEl = args.find(arg => (typeof arg === 'object') && (typeof arg.type === 'string') && (arg.type));

      if (typeof typeEl !== 'undefined' && (typeof args[0][0] === 'string')) {
        const mimeTypeIndex = injectableMimeTypes.findIndex(mimeType => mimeType.mime.toLowerCase() === typeEl.type.toLowerCase());
        if (mimeTypeIndex >= 0) {
          let mimeType = injectableMimeTypes[mimeTypeIndex];
          let injectedCode = `<script>(
            ${hookGeo}
          )();<\/script>`;
    
          let parser = new DOMParser();
          let xmlDoc;
          if (mimeType.useXMLparser === true) {
            xmlDoc = parser.parseFromString(args[0].join(''), mimeType.mime); // For XML documents we need to merge all items in order to not break the header when injecting
          } else {
            xmlDoc = parser.parseFromString(args[0][0], mimeType.mime);
          }

          if (xmlDoc.getElementsByTagName("parsererror").length === 0) { // if no errors were found while parsing...
            xmlDoc.documentElement.insertAdjacentHTML('afterbegin', injectedCode);
    
            if (mimeType.useXMLparser === true) {
              args[0] = [new XMLSerializer().serializeToString(xmlDoc)];
            } else {
              args[0][0] = xmlDoc.documentElement.outerHTML;
            }
          }
        }
      }

      return instantiate(_Blob, args); // arguments?
    }

    // Copy props and methods
    let propNames = Object.getOwnPropertyNames(_Blob);
    for (let i = 0; i < propNames.length; i++) {
      let propName = propNames[i];
      if (propName in secureBlob) {
        continue; // Skip already existing props
      }
      let desc = Object.getOwnPropertyDescriptor(_Blob, propName);
      Object.defineProperty(secureBlob, propName, desc);
    }

    secureBlob.prototype = _Blob.prototype;
    return secureBlob;
  }(Blob);

  // https://developer.chrome.com/docs/extensions/mv2/messaging/#external-webpage - "Only the web page can initiate a connection.", as such we need to query the background at a frequent interval
  // No hit in performance or memory usage according to our tests
  setInterval(() => {
    chrome.runtime.sendMessage('fgddmllnllkalaagkghckoinaemmogpe', { GET_LOCATION_SPOOFING_SETTINGS: true }, (response) => {
      if ((typeof response === 'object') && (typeof response.coords === 'object')) {
        hookedObj.genLat = response.coords.lat;
        hookedObj.genLon = response.coords.lon;
        hookedObj.fakeGeo = response.fakeIt;
      }
    });
  }, 500);
  //]]>
}
          )();</script><g transform="translate(2061.1175269157966 2225.557715784333)" lucid:page-tab-id="0_0"><path d="M-2500-2500h2000v2000h-2000z" fill="#fff"/><path d="M-1090.53-1641.23a6 6 0 0 1 6-6h182.8a6 6 0 0 1 6 6v54.17a6 6 0 0 1-6 6h-182.8a6 6 0 0 1-6-6z" fill="none"/><use xlink:href="#a" transform="matrix(1,0,0,1,-1078.532060521116,-1635.232685765668) translate(0 33.697265625)"/><path d="M-1271.26-1375a6 6 0 0 1 6-6h182.8a6 6 0 0 1 6 6v54.17a6 6 0 0 1-6 6h-182.8a6 6 0 0 1-6-6z" fill="none"/><use xlink:href="#b" transform="matrix(1,0,0,1,-1259.2585059111111,-1369.0086164408083) translate(0 33.697265625)"/><path d="M-1120.57-2203.06c60 0 108.63 27.8 108.63 62.1s-48.63 62.1-108.63 62.1h-325.92c-60 0-108.63-27.8-108.63-62.1s48.64-62.1 108.64-62.1z" stroke="#54c45e" stroke-width="5" fill="#e3fae3"/><use xlink:href="#c" transform="matrix(1,0,0,1,-1527.9660371342018,-2196.847913937827) translate(16.462890625 68.28125)"/><path d="M-890.48-1947.4a7.8 7.8 0 0 1 7.55-5.8h254.05a4.6 4.6 0 0 1 4.45 5.8l-26.36 98.87a7.8 7.8 0 0 1-7.54 5.8H-912.4a4.6 4.6 0 0 1-4.44-5.8z" stroke="#54c45e" stroke-width="3" fill="#54c45e"/><use xlink:href="#d" transform="matrix(1,0,0,1,-906.3862783180489,-1941.1894038300024) translate(27.487421875000003 55.03125)"/><path d="M-1481.77-1967.2a6 6 0 0 1 6-6h384.47a6 6 0 0 1 6 6v138.5a6 6 0 0 1-6 6h-384.47a6 6 0 0 1-6-6z" stroke="#54c45e" stroke-width="5" fill="#54c45e"/><use xlink:href="#e" transform="matrix(1,0,0,1,-1461.943176638827,-1965.686455131772) translate(94.486328125 37.53125)"/><use xlink:href="#f" transform="matrix(1,0,0,1,-1461.943176638827,-1965.686455131772) translate(34.4765625 79.69921875)"/><use xlink:href="#g" transform="matrix(1,0,0,1,-1461.943176638827,-1965.686455131772) translate(274.515625 79.69921875)"/><use xlink:href="#h" transform="matrix(1,0,0,1,-1461.943176638827,-1965.686455131772) translate(142.494140625 121.8671875)"/><path d="M-1283.53-2075.36v81.15" stroke="#54c45e" stroke-width="2" fill="none"/><path d="M-1282.53-2075.34h-2v-1.02h2z" stroke="#54c45e" stroke-width=".05" fill="#54c45e"/><path d="M-1283.53-1978.95l-4.64-14.26h9.27z" stroke="#54c45e" stroke-width="2" fill="#54c45e"/><path d="M-906.2-1897.96h-158.1" stroke="#54c45e" stroke-width="2" fill="none"/><path d="M-905.48-1896.96h-.76v-2h1.3z" stroke="#54c45e" stroke-width=".05" fill="#54c45e"/><path d="M-1079.56-1897.96l14.27-4.63v9.28z" stroke="#54c45e" stroke-width="2" fill="#54c45e"/><path d="M-1287.77-1750.94a6 6 0 0 1 8.48 0l178.6 178.6a6 6 0 0 1 0 8.5l-178.6 178.6a6 6 0 0 1-8.47 0l-178.6-178.6a6 6 0 0 1 0-8.5z" stroke="#54c45e" stroke-width="3" fill="#c3f7c8"/><use xlink:href="#i" transform="matrix(1,0,0,1,-1451.9085929363498,-1736.4728611349844) translate(60.487421875 149.125)"/><use xlink:href="#j" transform="matrix(1,0,0,1,-1451.9085929363498,-1736.4728611349844) translate(156.503046875 149.125)"/><use xlink:href="#k" transform="matrix(1,0,0,1,-1451.9085929363498,-1736.4728611349844) translate(120.49718750000001 191.29296875)"/><use xlink:href="#l" transform="matrix(1,0,0,1,-1451.9085929363498,-1736.4728611349844) translate(72.489375 233.4609375)"/><path d="M-2038.62-1041.04a6 6 0 0 1 6-6h384.47a6 6 0 0 1 6 6v108a6 6 0 0 1-6 6h-384.47a6 6 0 0 1-6-6z" stroke="#54c45e" stroke-width="5" fill="#54c45e"/><use xlink:href="#m" transform="matrix(1,0,0,1,-2018.7939287134886,-1041.0403026807278) translate(70.482421875 67.03125)"/><use xlink:href="#n" transform="matrix(1,0,0,1,-2018.7939287134886,-1041.0403026807278) translate(190.501953125 67.03125)"/><path d="M-1481.77-1249.4a6 6 0 0 1 6-6h384.47a6 6 0 0 1 6 6v108a6 6 0 0 1-6 6h-384.47a6 6 0 0 1-6-6z" stroke="#54c45e" stroke-width="5" fill="#54c45e"/><use xlink:href="#o" transform="matrix(1,0,0,1,-1461.943176638827,-1249.3977973923843) translate(70.482421875 67.03125)"/><use xlink:href="#n" transform="matrix(1,0,0,1,-1461.943176638827,-1249.3977973923843) translate(190.501953125 67.03125)"/><path d="M-1283.53-1381v104.6" stroke="#54c45e" stroke-width="2" fill="none"/><path d="M-1283.53-1382l1-.07v1.1h-2v-1.1z" stroke="#54c45e" stroke-width=".05" fill="#54c45e"/><path d="M-1283.53-1261.13l-4.64-14.27h9.27z" stroke="#54c45e" stroke-width="2" fill="#54c45e"/><path d="M-800.3-1612.87c24.63 0 44.6 20.05 44.6 44.77 0 24.73-19.96 44.78-44.6 44.78h-133.76c-24.63 0-44.6-20.05-44.6-44.78 0-24.72 19.98-44.77 44.6-44.77z" stroke="#54c45e" stroke-width="5" fill="#c3f7c8"/><use xlink:href="#p" transform="matrix(1,0,0,1,-967.5013091408282,-1608.3929318518037) translate(64.494140625 53.53125)"/><path d="M-1096.42-1568.1h96.77" stroke="#54c45e" stroke-width="2" fill="none"/><path d="M-1096.4-1567.1h-1.1l.08-1-.08-1h1.1z" stroke="#54c45e" stroke-width=".05" fill="#54c45e"/><path d="M-984.4-1568.1l-14.25 4.64v-9.27z" stroke="#54c45e" stroke-width="2" fill="#54c45e"/><path d="M-1283.53-1819.2v46.5" stroke="#54c45e" stroke-width="2" fill="none"/><path d="M-1282.53-1819.18h-2v-1.03h2z" stroke="#54c45e" stroke-width=".05" fill="#54c45e"/><path d="M-1283.53-1757.44l-4.64-14.26h9.27z" stroke="#54c45e" stroke-width="2" fill="#54c45e"/><path d="M-1120.57-1049.14c60 0 108.63 27.8 108.63 62.1s-48.63 62.1-108.63 62.1h-325.92c-60 0-108.63-27.8-108.63-62.1s48.64-62.1 108.64-62.1z" stroke="#54c45e" stroke-width="5" fill="#e3fae3"/><use xlink:href="#q" transform="matrix(1,0,0,1,-1527.9660371342018,-1042.9285192992827) translate(-19.54296875 68.197265625)"/><path d="M-1558.63-987.04h-62.5" stroke="#54c45e" stroke-width="2" fill="none"/><path d="M-1557.63-987.07v.3l.03.73h-1.05v-2h1.05z" stroke="#54c45e" stroke-width=".05" fill="#54c45e"/><path d="M-1636.4-987.04l14.26-4.64v9.27z" stroke="#54c45e" stroke-width="2" fill="#54c45e"/><path d="M-1283.53-1131.9V-1070.14" stroke="#54c45e" stroke-width="2" fill="none"/><path d="M-1282.53-1131.87h-2v-1.03h2z" stroke="#54c45e" stroke-width=".05" fill="#54c45e"/><path d="M-1283.53-1054.88l-4.64-14.26h9.27z" stroke="#54c45e" stroke-width="2" fill="#54c45e"/><path d="M-1840.38-1050.54v-511.56a6 6 0 0 1 6-6h346.24" stroke="#54c45e" stroke-width="2" fill="none"/><path d="M-1839.38-1049.54h-2v-1.03h2z" stroke="#54c45e" stroke-width=".05" fill="#54c45e"/><path d="M-1472.87-1568.1l-14.27 4.64v-9.27z" stroke="#54c45e" stroke-width="2" fill="#54c45e"/><path d="M-950.74-1244.83a7.8 7.8 0 0 1 7.55-5.8h254.06a4.6 4.6 0 0 1 4.45 5.8l-26.35 98.86a7.8 7.8 0 0 1-7.55 5.8h-254.05a4.6 4.6 0 0 1-4.45-5.8z" stroke="#54c45e" stroke-width="3" fill="#54c45e"/><g><use xlink:href="#r" transform="matrix(1,0,0,1,-966.6486470872946,-1238.6275039031148) translate(87.49718750000001 55.03125)"/></g><path d="M-1081.8-1195.4h97.82" stroke="#54c45e" stroke-width="2" fill="none"/><path d="M-1081.77-1194.4h-1.03v-2h1.03z" stroke="#54c45e" stroke-width=".05" fill="#54c45e"/><path d="M-968.7-1195.4l-14.28 4.64v-9.27z" stroke="#54c45e" stroke-width="2" fill="#54c45e"/><path d="M-830.9-1137.67v144.63a6 6 0 0 1-6 6h-154.03" stroke="#54c45e" stroke-width="2" fill="none"/><path d="M-829.9-1137.64h-2v-1.03h2z" stroke="#54c45e" stroke-width=".05" fill="#54c45e"/><path d="M-1006.2-987.04l14.27-4.64v9.27z" stroke="#54c45e" stroke-width="2" fill="#54c45e"/><defs><path fill="#333" d="M708-584V0H520v-584L36-1349h205l374 611 372-611h205" id="s"/><path fill="#333" d="M617-1102c355 0 481 238 477 599H322c5 222 84 388 301 388 144 0 244-59 284-166l158 45C1002-72 854 20 623 20c-342 0-490-220-490-568 0-346 151-554 484-554zm291 461c-18-192-90-328-289-328-194 0-287 128-295 328h584" id="t"/><path fill="#333" d="M873-819c-18-114-119-146-250-146-163 0-245 50-245 151 0 151 170 148 294 185 182 54 388 94 388 320 0 240-189 325-439 329-245 4-410-69-454-268l159-31c24 133 136 168 295 165 144-2 270-31 270-171 0-164-195-160-331-202-167-52-350-87-350-299 0-218 173-315 413-313 220 2 373 77 412 260" id="u"/><g id="a"><use transform="matrix(0.01953125,0,0,0.01953125,0,0)" xlink:href="#s"/><use transform="matrix(0.01953125,0,0,0.01953125,24.00390625,0)" xlink:href="#t"/><use transform="matrix(0.01953125,0,0,0.01953125,48.0078125,0)" xlink:href="#u"/></g><path fill="#333" d="M912-211c-10-84-18-177-18-274v-864h172V0H836L316-1130c7 79 16 167 16 254V0H162v-1349h222" id="v"/><path fill="#333" d="M615-1102c343 0 484 203 482 560-1 347-147 562-488 562-336 0-475-219-479-562-4-349 156-560 485-560zm-8 989c240 0 301-180 301-429 0-245-55-427-290-427-236 0-299 181-299 427 0 243 61 429 288 429" id="w"/><g id="b"><use transform="matrix(0.01953125,0,0,0.01953125,0,0)" xlink:href="#v"/><use transform="matrix(0.01953125,0,0,0.01953125,24.00390625,0)" xlink:href="#w"/></g><path fill="#333" d="M839-1335c-182-6-269 67-259 253h491v142H580V0H400v-940H138v-142h262c-15-293 132-408 418-402 94 2 200 7 281 21v145c-75-10-177-14-260-17" id="x"/><path fill="#333" d="M745-142h380V0H143v-142h422v-798H246v-142h499v940zM545-1292v-192h200v192H545" id="y"/><path fill="#333" d="M736-142h380V0H134v-142h422v-1200H267v-142h469v1342" id="z"/><path fill="#333" d="M-5 220v-96h1238v96H-5" id="A"/><path fill="#333" d="M365-904c58-129 161-200 334-200 130 0 228 46 293 138s98 233 98 420c0 189-34 331-102 425S824 20 698 20c-170 0-275-64-336-184 0 55-3 116-9 164H179c5-68 6-147 6-223v-1261h180c-2 193 4 394-4 580h4zm283 791c221 0 256-197 256-427 0-229-34-425-254-425-236 0-285 195-285 441 0 237 53 411 283 411" id="B"/><path fill="#333" d="M1000-272c3 95 12 159 101 161 21 0 41-3 59-7V-6c-44 10-86 16-139 16-141 2-191-84-197-217h-6C748-76 648 20 446 20c-207 0-318-120-318-322 0-266 194-348 454-354l236-4c12-191-40-305-222-305-140 0-220 47-232 172l-188-17c33-204 181-292 423-292 255 0 401 118 401 364v466zm-683-27c0 109 63 184 175 182 166-3 259-96 306-217 24-65 20-120 20-200-232 7-501-28-501 235" id="C"/><path fill="#333" d="M839-1102c70 0 148 7 206 17v167c-112-18-268-36-363 15-129 69-208 203-208 395V0H294c-10-367 32-789-52-1082h171c21 75 41 161 48 250h5c67-152 152-270 373-270" id="D"/><path fill="#333" d="M865-914c-3-187-2-380-2-570h180v1261c0 76 1 155 6 223H877c-8-49-9-116-10-174h-5C801-44 708 26 530 26c-135 0-234-46-297-139s-95-232-95-419c0-377 131-566 392-566 176 0 271 63 335 184zm-286-51c-222 0-255 197-255 427 0 229 31 425 253 425 237 0 286-195 286-441 0-238-52-411-284-411" id="E"/><path fill="#333" d="M682 16c-209 0-323-80-324-285v-671H190v-142h170l58-282h120v282h432v142H538v652c2 114 60 155 182 155 106 0 209-16 297-34v137C921-4 806 16 682 16" id="F"/><path fill="#333" d="M706-1102c241 0 344 136 343 381V0H868v-695c1-168-57-273-220-268-190 6-283 138-283 336V0H185c-3-360 6-732-6-1082h170c4 54 7 126 8 185h3c63-121 164-204 346-205" id="G"/><g id="c"><use transform="matrix(0.01953125,0,0,0.01953125,0,0)" xlink:href="#x"/><use transform="matrix(0.01953125,0,0,0.01953125,24.00390625,0)" xlink:href="#y"/><use transform="matrix(0.01953125,0,0,0.01953125,48.0078125,0)" xlink:href="#z"/><use transform="matrix(0.01953125,0,0,0.01953125,72.01171875,0)" xlink:href="#z"/><use transform="matrix(0.01953125,0,0,0.01953125,96.015625,0)" xlink:href="#A"/><use transform="matrix(0.01953125,0,0,0.01953125,120.01953125,0)" xlink:href="#B"/><use transform="matrix(0.01953125,0,0,0.01953125,144.0234375,0)" xlink:href="#w"/><use transform="matrix(0.01953125,0,0,0.01953125,168.02734375,0)" xlink:href="#C"/><use transform="matrix(0.01953125,0,0,0.01953125,192.03125,0)" xlink:href="#D"/><use transform="matrix(0.01953125,0,0,0.01953125,216.03515625,0)" xlink:href="#E"/><use transform="matrix(0.01953125,0,0,0.01953125,240.0390625,0)" xlink:href="#A"/><use transform="matrix(0.01953125,0,0,0.01953125,264.04296875,0)" xlink:href="#F"/><use transform="matrix(0.01953125,0,0,0.01953125,288.046875,0)" xlink:href="#t"/><use transform="matrix(0.01953125,0,0,0.01953125,312.05078125,0)" xlink:href="#D"/><use transform="matrix(0.01953125,0,0,0.01953125,336.0546875,0)" xlink:href="#D"/><use transform="matrix(0.01953125,0,0,0.01953125,360.05859375,0)" xlink:href="#C"/><use transform="matrix(0.01953125,0,0,0.01953125,384.0625,0)" xlink:href="#y"/><use transform="matrix(0.01953125,0,0,0.01953125,408.06640625,0)" xlink:href="#G"/><use transform="matrix(0.01953125,0,0,0.01953125,432.0703125,0)" xlink:href="#u"/></g><path fill="#333" d="M1018 0H814c-67-224-138-444-200-673C552-442 476-224 407 0H204L21-1082h178c43 310 105 601 126 933 54-225 128-425 193-638h193c63 212 134 415 185 638 22-336 90-622 136-933h176" id="H"/><path fill="#333" d="M904-1102c199 0 220 177 220 381V0H956v-686c-3-114 0-215-60-264-70-33-125-4-158 71-26 56-39 140-39 252V0H531v-686c-3-114-1-215-61-264-78-41-136 24-157 84-24 69-39 159-39 259V0H105c-3-360 6-732-6-1082h149c6 50 3 123 8 175 36-100 83-195 216-195 135 0 166 79 196 196 42-105 93-196 236-196" id="I"/><path fill="#333" d="M1048-32c-2 300-135 456-433 456-222-1-358-88-400-267l184-25c22 99 100 157 222 156 184-2 248-125 248-315 0-64 3-133-2-194C807-100 706-13 524-12c-306 0-381-228-381-537 0-318 85-550 400-550 164 0 271 83 325 202h3c1-60 3-134 12-185h171c-13 339-4 702-6 1050zM585-145c210-8 284-178 284-406 0-192-52-331-177-392-33-16-69-22-104-22-223 2-259 184-259 414 0 229 31 415 256 406" id="J"/><g id="d"><use transform="matrix(0.01953125,0,0,0.01953125,0,0)" xlink:href="#D"/><use transform="matrix(0.01953125,0,0,0.01953125,24.00390625,0)" xlink:href="#C"/><use transform="matrix(0.01953125,0,0,0.01953125,48.0078125,0)" xlink:href="#H"/><use transform="matrix(0.01953125,0,0,0.01953125,72.01171875,0)" xlink:href="#A"/><use transform="matrix(0.01953125,0,0,0.01953125,96.015625,0)" xlink:href="#y"/><use transform="matrix(0.01953125,0,0,0.01953125,120.01953125,0)" xlink:href="#I"/><use transform="matrix(0.01953125,0,0,0.01953125,144.0234375,0)" xlink:href="#C"/><use transform="matrix(0.01953125,0,0,0.01953125,168.02734375,0)" xlink:href="#J"/><use transform="matrix(0.01953125,0,0,0.01953125,192.03125,0)" xlink:href="#t"/></g><path fill="#333" d="M650-1214c-281 0-336 244-336 533 0 295 60 546 347 546 188 0 263-142 322-282l159 65C1058-155 935 20 659 20c-401 0-546-295-546-701 0-407 135-689 536-689 264 0 391 146 466 335l-168 65c-47-129-127-244-297-244" id="K"/><path fill="#333" d="M715 0H502L69-1082h202c94 253 197 500 285 758 19 57 36 126 52 183 96-335 234-626 350-941h201" id="L"/><g id="e"><use transform="matrix(0.01953125,0,0,0.01953125,0,0)" xlink:href="#K"/><use transform="matrix(0.01953125,0,0,0.01953125,24.00390625,0)" xlink:href="#w"/><use transform="matrix(0.01953125,0,0,0.01953125,48.0078125,0)" xlink:href="#G"/><use transform="matrix(0.01953125,0,0,0.01953125,72.01171875,0)" xlink:href="#L"/><use transform="matrix(0.01953125,0,0,0.01953125,96.015625,0)" xlink:href="#t"/><use transform="matrix(0.01953125,0,0,0.01953125,120.01953125,0)" xlink:href="#D"/><use transform="matrix(0.01953125,0,0,0.01953125,144.0234375,0)" xlink:href="#F"/></g><g id="f"><use transform="matrix(0.01953125,0,0,0.01953125,0,0)" xlink:href="#D"/><use transform="matrix(0.01953125,0,0,0.01953125,24.00390625,0)" xlink:href="#C"/><use transform="matrix(0.01953125,0,0,0.01953125,48.0078125,0)" xlink:href="#H"/><use transform="matrix(0.01953125,0,0,0.01953125,72.01171875,0)" xlink:href="#A"/><use transform="matrix(0.01953125,0,0,0.01953125,96.015625,0)" xlink:href="#y"/><use transform="matrix(0.01953125,0,0,0.01953125,120.01953125,0)" xlink:href="#I"/><use transform="matrix(0.01953125,0,0,0.01953125,144.0234375,0)" xlink:href="#C"/><use transform="matrix(0.01953125,0,0,0.01953125,168.02734375,0)" xlink:href="#J"/><use transform="matrix(0.01953125,0,0,0.01953125,192.03125,0)" xlink:href="#t"/></g><g id="g"><use transform="matrix(0.01953125,0,0,0.01953125,0,0)" xlink:href="#F"/><use transform="matrix(0.01953125,0,0,0.01953125,24.00390625,0)" xlink:href="#w"/></g><path fill="#333" d="M875 0v-623H353V0H162v-1349h191v566h522v-566h191V0H875" id="M"/><path fill="#333" d="M614-1226c-167 1-283 53-283 213 0 183 186 193 334 234 230 63 463 120 463 409 0 286-219 387-518 390C309 23 131-98 79-338l185-37c34 165 149 248 351 246 184-2 324-58 324-238 0-203-207-221-372-266-210-57-422-111-422-377 0-267 201-356 470-360 279-5 430 101 480 324l-188 33c-28-141-121-215-293-213" id="N"/><path fill="#333" d="M713 0H515L10-1349h201C345-955 498-579 615-168c116-411 269-787 402-1181h201" id="O"/><g id="h"><use transform="matrix(0.01953125,0,0,0.01953125,0,0)" xlink:href="#M"/><use transform="matrix(0.01953125,0,0,0.01953125,24.00390625,0)" xlink:href="#N"/><use transform="matrix(0.01953125,0,0,0.01953125,48.0078125,0)" xlink:href="#O"/></g><path fill="#333" d="M1034 0L896-382H333L196 0H0l510-1349h217L1228 0h-194zM847-531c-77-225-157-447-231-674-69 231-154 451-232 674h463" id="P"/><g id="i"><use transform="matrix(0.01953125,0,0,0.01953125,0,0)" xlink:href="#P"/><use transform="matrix(0.01953125,0,0,0.01953125,24.00390625,0)" xlink:href="#z"/><use transform="matrix(0.01953125,0,0,0.01953125,48.0078125,0)" xlink:href="#z"/></g><path fill="#333" d="M631 20c-350 0-501-215-501-562 0-355 162-560 502-560 250 0 399 118 446 323l-192 14c-23-124-109-196-262-196-242 0-305 171-305 415 1 245 61 427 304 427 151 0 248-77 267-215l190 12C1039-107 883 20 631 20" id="Q"/><g id="j"><use transform="matrix(0.01953125,0,0,0.01953125,0,0)" xlink:href="#Q"/><use transform="matrix(0.01953125,0,0,0.01953125,24.00390625,0)" xlink:href="#t"/><use transform="matrix(0.01953125,0,0,0.01953125,48.0078125,0)" xlink:href="#z"/><use transform="matrix(0.01953125,0,0,0.01953125,72.01171875,0)" xlink:href="#z"/><use transform="matrix(0.01953125,0,0,0.01953125,96.015625,0)" xlink:href="#u"/></g><g id="k"><use transform="matrix(0.01953125,0,0,0.01953125,0,0)" xlink:href="#B"/><use transform="matrix(0.01953125,0,0,0.01953125,24.00390625,0)" xlink:href="#t"/><use transform="matrix(0.01953125,0,0,0.01953125,48.0078125,0)" xlink:href="#t"/><use transform="matrix(0.01953125,0,0,0.01953125,72.01171875,0)" xlink:href="#G"/></g><path fill="#333" d="M594-1370c273 0 479 100 479 368 0 320-313 334-421 548-13 28-20 60-21 97H456c9-310 312-328 416-543 13-27 19-59 19-94 0-165-127-226-295-226-189 0-295 102-318 272L94-960c39-259 205-410 500-410zM448 0v-201h195V0H448" id="R"/><g id="l"><use transform="matrix(0.01953125,0,0,0.01953125,0,0)" xlink:href="#L"/><use transform="matrix(0.01953125,0,0,0.01953125,24.00390625,0)" xlink:href="#y"/><use transform="matrix(0.01953125,0,0,0.01953125,48.0078125,0)" xlink:href="#u"/><use transform="matrix(0.01953125,0,0,0.01953125,72.01171875,0)" xlink:href="#y"/><use transform="matrix(0.01953125,0,0,0.01953125,96.015625,0)" xlink:href="#F"/><use transform="matrix(0.01953125,0,0,0.01953125,120.01953125,0)" xlink:href="#t"/><use transform="matrix(0.01953125,0,0,0.01953125,144.0234375,0)" xlink:href="#E"/><use transform="matrix(0.01953125,0,0,0.01953125,168.02734375,0)" xlink:href="#R"/></g><path fill="#333" d="M932 0L611-444 288 0H94l415-556-397-526h199l300 421 298-421h201L713-558 1133 0H932" id="S"/><g id="m"><use transform="matrix(0.01953125,0,0,0.01953125,0,0)" xlink:href="#v"/><use transform="matrix(0.01953125,0,0,0.01953125,24.00390625,0)" xlink:href="#t"/><use transform="matrix(0.01953125,0,0,0.01953125,48.0078125,0)" xlink:href="#S"/><use transform="matrix(0.01953125,0,0,0.01953125,72.01171875,0)" xlink:href="#F"/></g><g id="n"><use transform="matrix(0.01953125,0,0,0.01953125,0,0)" xlink:href="#Q"/><use transform="matrix(0.01953125,0,0,0.01953125,24.00390625,0)" xlink:href="#t"/><use transform="matrix(0.01953125,0,0,0.01953125,48.0078125,0)" xlink:href="#z"/><use transform="matrix(0.01953125,0,0,0.01953125,72.01171875,0)" xlink:href="#z"/></g><path fill="#333" d="M285-1169c8 382 2 780 4 1169H129v-1349h237c86 239 188 461 253 720 69-258 169-481 255-720h225V0H937c2-390-5-788 6-1169-75 255-170 488-259 729H547c-90-240-185-475-262-729" id="T"/><path fill="#333" d="M914 0L548-499l-132 98V0H236v-1484h180v927l475-525h211L663-617 1125 0H914" id="U"/><g id="o"><use transform="matrix(0.01953125,0,0,0.01953125,0,0)" xlink:href="#T"/><use transform="matrix(0.01953125,0,0,0.01953125,24.00390625,0)" xlink:href="#C"/><use transform="matrix(0.01953125,0,0,0.01953125,48.0078125,0)" xlink:href="#u"/><use transform="matrix(0.01953125,0,0,0.01953125,72.01171875,0)" xlink:href="#U"/></g><path fill="#333" d="M162 0v-1349h919v156H353v422h668v154H353v461h769V0H162" id="V"/><g id="p"><use transform="matrix(0.01953125,0,0,0.01953125,0,0)" xlink:href="#V"/><use transform="matrix(0.01953125,0,0,0.01953125,24.00390625,0)" xlink:href="#G"/><use transform="matrix(0.01953125,0,0,0.01953125,48.0078125,0)" xlink:href="#E"/></g><path fill="#333" d="M648-963c-190 6-283 138-283 336V0H185v-1484h181c-2 197 6 404-9 587h3c62-120 159-205 339-205 242 0 351 135 350 381V0H868v-695c1-168-57-273-220-268" id="W"/><g id="q"><use transform="matrix(0.01953125,0,0,0.01953125,0,0)" xlink:href="#J"/><use transform="matrix(0.01953125,0,0,0.01953125,24.00390625,0)" xlink:href="#t"/><use transform="matrix(0.01953125,0,0,0.01953125,48.0078125,0)" xlink:href="#F"/><use transform="matrix(0.01953125,0,0,0.01953125,72.01171875,0)" xlink:href="#A"/><use transform="matrix(0.01953125,0,0,0.01953125,96.015625,0)" xlink:href="#B"/><use transform="matrix(0.01953125,0,0,0.01953125,120.01953125,0)" xlink:href="#t"/><use transform="matrix(0.01953125,0,0,0.01953125,144.0234375,0)" xlink:href="#u"/><use transform="matrix(0.01953125,0,0,0.01953125,168.02734375,0)" xlink:href="#F"/><use transform="matrix(0.01953125,0,0,0.01953125,192.03125,0)" xlink:href="#A"/><use transform="matrix(0.01953125,0,0,0.01953125,216.03515625,0)" xlink:href="#F"/><use transform="matrix(0.01953125,0,0,0.01953125,240.0390625,0)" xlink:href="#t"/><use transform="matrix(0.01953125,0,0,0.01953125,264.04296875,0)" xlink:href="#D"/><use transform="matrix(0.01953125,0,0,0.01953125,288.046875,0)" xlink:href="#D"/><use transform="matrix(0.01953125,0,0,0.01953125,312.05078125,0)" xlink:href="#C"/><use transform="matrix(0.01953125,0,0,0.01953125,336.0546875,0)" xlink:href="#y"/><use transform="matrix(0.01953125,0,0,0.01953125,360.05859375,0)" xlink:href="#G"/><use transform="matrix(0.01953125,0,0,0.01953125,384.0625,0)" xlink:href="#A"/><use transform="matrix(0.01953125,0,0,0.01953125,408.06640625,0)" xlink:href="#I"/><use transform="matrix(0.01953125,0,0,0.01953125,432.0703125,0)" xlink:href="#C"/><use transform="matrix(0.01953125,0,0,0.01953125,456.07421875,0)" xlink:href="#F"/><use transform="matrix(0.01953125,0,0,0.01953125,480.078125,0)" xlink:href="#Q"/><use transform="matrix(0.01953125,0,0,0.01953125,504.08203125,0)" xlink:href="#W"/></g><g id="r"><use transform="matrix(0.01953125,0,0,0.01953125,0,0)" xlink:href="#Q"/><use transform="matrix(0.01953125,0,0,0.01953125,24.00390625,0)" xlink:href="#t"/><use transform="matrix(0.01953125,0,0,0.01953125,48.0078125,0)" xlink:href="#z"/><use transform="matrix(0.01953125,0,0,0.01953125,72.01171875,0)" xlink:href="#z"/></g></defs></g></svg>