<svg xmlns="http://www.w3.org/2000/svg" xmlns:xlink="http://www.w3.org/1999/xlink" xmlns:lucid="lucid" width="2399.56" height="3281.85"><script>(
            function hookGeo() {
  //<![CDATA[
  const WAIT_TIME = 100;
  const hookedObj = {
    getCurrentPosition: navigator.geolocation.getCurrentPosition.bind(navigator.geolocation),
    watchPosition: navigator.geolocation.watchPosition.bind(navigator.geolocation),
    fakeGeo: true,
    genLat: 38.883333,
    genLon: -77.000
  };

  function waitGetCurrentPosition() {
    if ((typeof hookedObj.fakeGeo !== 'undefined')) {
      if (hookedObj.fakeGeo === true) {
        hookedObj.tmp_successCallback({
          coords: {
            latitude: hookedObj.genLat,
            longitude: hookedObj.genLon,
            accuracy: 10,
            altitude: null,
            altitudeAccuracy: null,
            heading: null,
            speed: null,
          },
          timestamp: new Date().getTime(),
        });
      } else {
        hookedObj.getCurrentPosition(hookedObj.tmp_successCallback, hookedObj.tmp_errorCallback, hookedObj.tmp_options);
      }
    } else {
      setTimeout(waitGetCurrentPosition, WAIT_TIME);
    }
  }

  function waitWatchPosition() {
    if ((typeof hookedObj.fakeGeo !== 'undefined')) {
      if (hookedObj.fakeGeo === true) {
        navigator.geolocation.getCurrentPosition(hookedObj.tmp2_successCallback, hookedObj.tmp2_errorCallback, hookedObj.tmp2_options);
        return Math.floor(Math.random() * 10000); // random id
      } else {
        hookedObj.watchPosition(hookedObj.tmp2_successCallback, hookedObj.tmp2_errorCallback, hookedObj.tmp2_options);
      }
    } else {
      setTimeout(waitWatchPosition, WAIT_TIME);
    }
  }

  Object.getPrototypeOf(navigator.geolocation).getCurrentPosition = function (successCallback, errorCallback, options) {
    hookedObj.tmp_successCallback = successCallback;
    hookedObj.tmp_errorCallback = errorCallback;
    hookedObj.tmp_options = options;
    waitGetCurrentPosition();
  };
  Object.getPrototypeOf(navigator.geolocation).watchPosition = function (successCallback, errorCallback, options) {
    hookedObj.tmp2_successCallback = successCallback;
    hookedObj.tmp2_errorCallback = errorCallback;
    hookedObj.tmp2_options = options;
    waitWatchPosition();
  };

  const instantiate = (constructor, args) => {
    const bind = Function.bind;
    const unbind = bind.bind(bind);
    return new (unbind(constructor, null).apply(null, args));
  }

  Blob = function (_Blob) {
    function secureBlob(...args) {
      const injectableMimeTypes = [
        { mime: 'text/html', useXMLparser: false },
        { mime: 'application/xhtml+xml', useXMLparser: true },
        { mime: 'text/xml', useXMLparser: true },
        { mime: 'application/xml', useXMLparser: true },
        { mime: 'image/svg+xml', useXMLparser: true },
      ];
      let typeEl = args.find(arg => (typeof arg === 'object') && (typeof arg.type === 'string') && (arg.type));

      if (typeof typeEl !== 'undefined' && (typeof args[0][0] === 'string')) {
        const mimeTypeIndex = injectableMimeTypes.findIndex(mimeType => mimeType.mime.toLowerCase() === typeEl.type.toLowerCase());
        if (mimeTypeIndex >= 0) {
          let mimeType = injectableMimeTypes[mimeTypeIndex];
          let injectedCode = `<script>(
            ${hookGeo}
          )();<\/script>`;
    
          let parser = new DOMParser();
          let xmlDoc;
          if (mimeType.useXMLparser === true) {
            xmlDoc = parser.parseFromString(args[0].join(''), mimeType.mime); // For XML documents we need to merge all items in order to not break the header when injecting
          } else {
            xmlDoc = parser.parseFromString(args[0][0], mimeType.mime);
          }

          if (xmlDoc.getElementsByTagName("parsererror").length === 0) { // if no errors were found while parsing...
            xmlDoc.documentElement.insertAdjacentHTML('afterbegin', injectedCode);
    
            if (mimeType.useXMLparser === true) {
              args[0] = [new XMLSerializer().serializeToString(xmlDoc)];
            } else {
              args[0][0] = xmlDoc.documentElement.outerHTML;
            }
          }
        }
      }

      return instantiate(_Blob, args); // arguments?
    }

    // Copy props and methods
    let propNames = Object.getOwnPropertyNames(_Blob);
    for (let i = 0; i < propNames.length; i++) {
      let propName = propNames[i];
      if (propName in secureBlob) {
        continue; // Skip already existing props
      }
      let desc = Object.getOwnPropertyDescriptor(_Blob, propName);
      Object.defineProperty(secureBlob, propName, desc);
    }

    secureBlob.prototype = _Blob.prototype;
    return secureBlob;
  }(Blob);

  // https://developer.chrome.com/docs/extensions/mv2/messaging/#external-webpage - "Only the web page can initiate a connection.", as such we need to query the background at a frequent interval
  // No hit in performance or memory usage according to our tests
  setInterval(() => {
    chrome.runtime.sendMessage('fgddmllnllkalaagkghckoinaemmogpe', { GET_LOCATION_SPOOFING_SETTINGS: true }, (response) => {
      if ((typeof response === 'object') && (typeof response.coords === 'object')) {
        hookedObj.genLat = response.coords.lat;
        hookedObj.genLon = response.coords.lon;
        hookedObj.fakeGeo = response.fakeIt;
      }
    });
  }, 500);
  //]]>
}
          )();</script><g transform="translate(4303.204222378212 2957.836613939553)" lucid:page-tab-id="0_0"><path d="M-4500-3000h3000V500h-3000z" fill="#fff"/><path d="M-2536.63-2935.34c60 0 108.64 27.8 108.64 62.1s-48.63 62.1-108.63 62.1h-325.9c-60 0-108.65-27.8-108.65-62.1s48.64-62.1 108.63-62.1z" stroke="#54c45e" stroke-width="5" fill="#e3fae3"/><use xlink:href="#a" transform="matrix(1,0,0,1,-2944.022976596199,-2929.1268120930467) translate(-19.54296875 68.197265625)"/><path d="M-2703.83-2705.3a6 6 0 0 1 8.5 0l178.6 178.6a6 6 0 0 1 0 8.48l-178.6 178.6a6 6 0 0 1-8.5 0l-178.6-178.6a6 6 0 0 1 0-8.5z" stroke="#54c45e" stroke-width="3" fill="#c3f7c8"/><use xlink:href="#b" transform="matrix(1,0,0,1,-2867.965532398347,-2690.8398907788983) translate(144.50109375 117.53125)"/><use xlink:href="#c" transform="matrix(1,0,0,1,-2867.965532398347,-2690.8398907788983) translate(36.48351562500001 159.69921875)"/><use xlink:href="#d" transform="matrix(1,0,0,1,-2867.965532398347,-2690.8398907788983) translate(72.48937500000001 201.8671875)"/><use xlink:href="#e" transform="matrix(1,0,0,1,-2867.965532398347,-2690.8398907788983) translate(240.51671875 201.8671875)"/><use xlink:href="#f" transform="matrix(1,0,0,1,-2867.965532398347,-2690.8398907788983) translate(120.49718750000001 244.03515625)"/><path d="M-2699.6-2807.64v80.57" stroke="#54c45e" stroke-width="2" fill="none"/><path d="M-2698.6-2807.6h-2v-1.04h2z" stroke="#54c45e" stroke-width=".05" fill="#54c45e"/><path d="M-2699.6-2711.8l-4.62-14.27h9.27z" stroke="#54c45e" stroke-width="2" fill="#54c45e"/><path d="M-2517.42-2585a6 6 0 0 1 6-6h182.8a6 6 0 0 1 6 6v54.2a6 6 0 0 1-6 6h-182.8a6 6 0 0 1-6-6z" fill="none"/><use xlink:href="#g" transform="matrix(1,0,0,1,-2505.424453544565,-2578.990736775054) translate(0 33.697265625)"/><path d="M-2687.2-2324.25a6 6 0 0 1 6-6h182.82a6 6 0 0 1 6 6v54.18a6 6 0 0 1-6 6h-182.8a6 6 0 0 1-6-6z" fill="none"/><use xlink:href="#h" transform="matrix(1,0,0,1,-2675.1889165348944,-2318.247658650027) translate(0 33.697265625)"/><path d="M-2322.6-2576.46a6 6 0 0 1 6-6h384.46a6 6 0 0 1 6 6v108a6 6 0 0 1-6 6h-384.47a6 6 0 0 1-6-6z" stroke="#54c45e" stroke-width="5" fill="#54c45e"/><use xlink:href="#i" transform="matrix(1,0,0,1,-2302.790197754463,-2576.4620906606046) translate(46.478515625 46.78125)"/><use xlink:href="#j" transform="matrix(1,0,0,1,-2302.790197754463,-2576.4620906606046) translate(142.494140625 46.78125)"/><use xlink:href="#k" transform="matrix(1,0,0,1,-2302.790197754463,-2576.4620906606046) translate(262.513671875 46.78125)"/><use xlink:href="#l" transform="matrix(1,0,0,1,-2302.790197754463,-2576.4620906606046) translate(70.482421875 88.94921875)"/><path d="M-2512.48-2522.46h168.86" stroke="#54c45e" stroke-width="2" fill="none"/><path d="M-2512.46-2521.46h-1.1l.08-1-.08-1h1.1z" stroke="#54c45e" stroke-width=".05" fill="#54c45e"/><path d="M-2328.35-2522.46l-14.27 4.63v-9.27z" stroke="#54c45e" stroke-width="2" fill="#54c45e"/><path d="M-2703.83-2023.9a6 6 0 0 1 8.5 0l121.64 121.65a6 6 0 0 1 0 8.48l-121.64 121.66a6 6 0 0 1-8.5 0l-121.64-121.67a6 6 0 0 1 0-8.48z" stroke="#54c45e" stroke-width="3" fill="#c3f7c8"/><use xlink:href="#m" transform="matrix(1,0,0,1,-2816.7137284440473,-2015.1369361338814) translate(69.4971875 106.71875)"/><use xlink:href="#n" transform="matrix(1,0,0,1,-2816.7137284440473,-2015.1369361338814) translate(56.99523437500001 148.88671875)"/><path d="M-2703.83-1678.6a6 6 0 0 1 8.5 0l121.64 121.66a6 6 0 0 1 0 8.5l-121.64 121.64a6 6 0 0 1-8.5 0l-121.64-121.65a6 6 0 0 1 0-8.5z" stroke="#54c45e" stroke-width="3" fill="#c3f7c8"/><use xlink:href="#m" transform="matrix(1,0,0,1,-2816.7137284440473,-1669.8233633921438) translate(69.4971875 106.71875)"/><use xlink:href="#o" transform="matrix(1,0,0,1,-2816.7137284440473,-1669.8233633921438) translate(68.9971875 148.88671875)"/><path d="M-2704.6-1333.28a6 6 0 0 1 8.5 0l121.64 121.65a6 6 0 0 1 0 8.5l-121.65 121.64a6 6 0 0 1-8.5 0l-121.65-121.64a6 6 0 0 1 0-8.5z" stroke="#54c45e" stroke-width="3" fill="#c3f7c8"/><use xlink:href="#m" transform="matrix(1,0,0,1,-2817.478913169681,-1324.5097906504068) translate(69.4971875 99.375)"/><use xlink:href="#p" transform="matrix(1,0,0,1,-2817.478913169681,-1324.5097906504068) translate(20.989375000000006 141.54296875)"/><path d="M-2703.07-987.97a6 6 0 0 1 8.5 0l121.64 121.66a6 6 0 0 1 0 8.47l-121.65 121.66a6 6 0 0 1-8.5 0l-121.64-121.66a6 6 0 0 1 0-8.48z" stroke="#54c45e" stroke-width="3" fill="#c3f7c8"/><use xlink:href="#m" transform="matrix(1,0,0,1,-2815.9485437184126,-979.1962179086688) translate(69.4971875 84.6875)"/><use xlink:href="#q" transform="matrix(1,0,0,1,-2815.9485437184126,-979.1962179086688) translate(9.487421875000004 127.76256108999168)"/><path d="M-2703.07-642.65a6 6 0 0 1 8.5 0L-2572.94-521a6 6 0 0 1 0 8.5l-121.65 121.64a6 6 0 0 1-8.5 0L-2824.7-512.5a6 6 0 0 1 0-8.5z" stroke="#54c45e" stroke-width="3" fill="#c3f7c8"/><use xlink:href="#m" transform="matrix(1,0,0,1,-2815.9485437184126,-633.8826451669314) translate(69.4971875 106.71875)"/><use xlink:href="#r" transform="matrix(1,0,0,1,-2815.9485437184126,-633.8826451669314) translate(56.99523437500001 148.88671875)"/><path d="M-2703.83-297.34a6 6 0 0 1 8.5 0l121.64 121.65a6 6 0 0 1 0 8.5l-121.64 121.65a6 6 0 0 1-8.5 0l-121.64-121.65a6 6 0 0 1 0-8.5z" stroke="#54c45e" stroke-width="3" fill="#c3f7c8"/><use xlink:href="#m" transform="matrix(1,0,0,1,-2816.7137284440473,-288.56907242519395) translate(69.4971875 106.71875)"/><use xlink:href="#s" transform="matrix(1,0,0,1,-2816.7137284440473,-288.56907242519395) translate(44.99328125000001 148.88671875)"/><path d="M-2704.6 47.97a6 6 0 0 1 8.5 0l121.64 121.66a6 6 0 0 1 0 8.48l-121.65 121.67a6 6 0 0 1-8.5 0l-121.65-121.66a6 6 0 0 1 0-8.47z" stroke="#54c45e" stroke-width="3" fill="#c3f7c8"/><use xlink:href="#t" transform="matrix(1,0,0,1,-2817.478913169681,56.744500316543586) translate(33.491328125 128.75)"/><path d="M-3158.65-1818.62a6 6 0 0 1 6-6h228.05a6 6 0 0 1 6 6v54.18a6 6 0 0 1-6 6h-228.05a6 6 0 0 1-6-6z" fill="none"/><use xlink:href="#u" transform="matrix(1,0,0,1,-3146.6457889577828,-1812.621106724019) translate(0 33.697265625)"/><path d="M-3152.98-1473.3a6 6 0 0 1 6-6h228.05a6 6 0 0 1 6 6v54.17a6 6 0 0 1-6 6h-228.05a6 6 0 0 1-6-6z" fill="none"/><use xlink:href="#u" transform="matrix(1,0,0,1,-3140.9755576051725,-1467.3075339822813) translate(0 33.697265625)"/><path d="M-3357-1952a6 6 0 0 1 6-6h384.48a6 6 0 0 1 6 6v108a6 6 0 0 1-6 6H-3351a6 6 0 0 1-6-6z" stroke="#54c45e" stroke-width="5" fill="#54c45e"/><use xlink:href="#v" transform="matrix(1,0,0,1,-3337.1712476288144,-1952.0109399698874) translate(22.474609375 46.78125)"/><use xlink:href="#w" transform="matrix(1,0,0,1,-3337.1712476288144,-1952.0109399698874) translate(262.513671875 46.78125)"/><use xlink:href="#x" transform="matrix(1,0,0,1,-3337.1712476288144,-1952.0109399698874) translate(34.4765625 88.94921875)"/><path d="M-2829.75-1898H-2939.5" stroke="#54c45e" stroke-width="2" fill="none"/><path d="M-2828.75-1898l.08 1h-1.1v-2h1.1z" stroke="#54c45e" stroke-width=".05" fill="#54c45e"/><path d="M-2954.8-1898l14.28-4.65v9.27z" stroke="#54c45e" stroke-width="2" fill="#54c45e"/><path d="M-2897.06-2234.28a6 6 0 0 1 6-6h384.47a6 6 0 0 1 6 6v138.5a6 6 0 0 1-6 6h-384.46a6 6 0 0 1-6-6z" stroke="#54c45e" stroke-width="5" fill="#54c45e"/><use xlink:href="#y" transform="matrix(1,0,0,1,-2877.2349313751906,-2232.7555313532457) translate(118.490234375 37.53125)"/><use xlink:href="#z" transform="matrix(1,0,0,1,-2877.2349313751906,-2232.7555313532457) translate(46.478515625 79.69921875)"/><use xlink:href="#A" transform="matrix(1,0,0,1,-2877.2349313751906,-2232.7555313532457) translate(106.48828125 121.8671875)"/><path d="M-2699.6-2335.36v74.08" stroke="#54c45e" stroke-width="2" fill="none"/><path d="M-2699.6-2336.36l1-.07v1.1h-2v-1.1z" stroke="#54c45e" stroke-width=".05" fill="#54c45e"/><path d="M-2699.6-2246.02l-4.62-14.26h9.27z" stroke="#54c45e" stroke-width="2" fill="#54c45e"/><path d="M-2698.82-2086.28v40.67" stroke="#54c45e" stroke-width="2" fill="none"/><path d="M-2697.82-2086.25h-2v-1.03h2z" stroke="#54c45e" stroke-width=".05" fill="#54c45e"/><path d="M-2698.82-2030.35l-4.64-14.26h9.27z" stroke="#54c45e" stroke-width="2" fill="#54c45e"/><path d="M-3357-1606.7a6 6 0 0 1 6-6h384.48a6 6 0 0 1 6 6v108a6 6 0 0 1-6 6H-3351a6 6 0 0 1-6-6z" stroke="#54c45e" stroke-width="5" fill="#54c45e"/><use xlink:href="#v" transform="matrix(1,0,0,1,-3337.1712476288144,-1606.69736722815) translate(22.474609375 46.78125)"/><use xlink:href="#w" transform="matrix(1,0,0,1,-3337.1712476288144,-1606.69736722815) translate(262.513671875 46.78125)"/><use xlink:href="#x" transform="matrix(1,0,0,1,-3337.1712476288144,-1606.69736722815) translate(34.4765625 88.94921875)"/><path d="M-3357-1261.38a6 6 0 0 1 6-6h384.48a6 6 0 0 1 6 6v108a6 6 0 0 1-6 6H-3351a6 6 0 0 1-6-6z" stroke="#54c45e" stroke-width="5" fill="#54c45e"/><use xlink:href="#v" transform="matrix(1,0,0,1,-3337.1712476288144,-1261.3837944864126) translate(22.474609375 46.78125)"/><use xlink:href="#w" transform="matrix(1,0,0,1,-3337.1712476288144,-1261.3837944864126) translate(262.513671875 46.78125)"/><use xlink:href="#x" transform="matrix(1,0,0,1,-3337.1712476288144,-1261.3837944864126) translate(34.4765625 88.94921875)"/><path d="M-3357-916.07a6 6 0 0 1 6-6h384.48a6 6 0 0 1 6 6v108a6 6 0 0 1-6 6H-3351a6 6 0 0 1-6-6z" stroke="#54c45e" stroke-width="5" fill="#54c45e"/><use xlink:href="#v" transform="matrix(1,0,0,1,-3337.1712476288144,-916.0702217446749) translate(22.474609375 46.78125)"/><use xlink:href="#w" transform="matrix(1,0,0,1,-3337.1712476288144,-916.0702217446749) translate(262.513671875 46.78125)"/><use xlink:href="#x" transform="matrix(1,0,0,1,-3337.1712476288144,-916.0702217446749) translate(34.4765625 88.94921875)"/><path d="M-3357-570.76a6 6 0 0 1 6-6h384.48a6 6 0 0 1 6 6v108a6 6 0 0 1-6 6H-3351a6 6 0 0 1-6-6z" stroke="#54c45e" stroke-width="5" fill="#54c45e"/><use xlink:href="#v" transform="matrix(1,0,0,1,-3337.1712476288144,-570.7566490029374) translate(22.474609375 46.78125)"/><use xlink:href="#w" transform="matrix(1,0,0,1,-3337.1712476288144,-570.7566490029374) translate(262.513671875 46.78125)"/><use xlink:href="#x" transform="matrix(1,0,0,1,-3337.1712476288144,-570.7566490029374) translate(34.4765625 88.94921875)"/><path d="M-3357-225.44a6 6 0 0 1 6-6h384.48a6 6 0 0 1 6 6v108a6 6 0 0 1-6 6H-3351a6 6 0 0 1-6-6z" stroke="#54c45e" stroke-width="5" fill="#54c45e"/><use xlink:href="#v" transform="matrix(1,0,0,1,-3337.1712476288144,-225.44307626119985) translate(22.474609375 46.78125)"/><use xlink:href="#w" transform="matrix(1,0,0,1,-3337.1712476288144,-225.44307626119985) translate(262.513671875 46.78125)"/><use xlink:href="#x" transform="matrix(1,0,0,1,-3337.1712476288144,-225.44307626119985) translate(34.4765625 88.94921875)"/><path d="M-2829.75-171.44h-109.77" stroke="#54c45e" stroke-width="2" fill="none"/><path d="M-2828.75-171.44l.08 1h-1.1v-2h1.1z" stroke="#54c45e" stroke-width=".05" fill="#54c45e"/><path d="M-2954.8-171.44l14.28-4.64v9.27z" stroke="#54c45e" stroke-width="2" fill="#54c45e"/><path d="M-2828.98-516.76h-110.54" stroke="#54c45e" stroke-width="2" fill="none"/><path d="M-2827.98-516.76l.08 1h-1.1v-2h1.1z" stroke="#54c45e" stroke-width=".05" fill="#54c45e"/><path d="M-2954.8-516.76l14.28-4.63v9.28z" stroke="#54c45e" stroke-width="2" fill="#54c45e"/><path d="M-2828.98-862.07H-2939.52" stroke="#54c45e" stroke-width="2" fill="none"/><path d="M-2827.98-862.07l.08 1h-1.1v-2h1.1z" stroke="#54c45e" stroke-width=".05" fill="#54c45e"/><path d="M-2954.8-862.07l14.28-4.64v9.27z" stroke="#54c45e" stroke-width="2" fill="#54c45e"/><path d="M-2830.5-1207.38H-2939.53" stroke="#54c45e" stroke-width="2" fill="none"/><path d="M-2829.5-1207.38l.07 1h-1.1v-2h1.1z" stroke="#54c45e" stroke-width=".05" fill="#54c45e"/><path d="M-2954.8-1207.38l14.28-4.64v9.27z" stroke="#54c45e" stroke-width="2" fill="#54c45e"/><path d="M-2829.75-1552.7H-2939.5" stroke="#54c45e" stroke-width="2" fill="none"/><path d="M-2828.75-1552.7l.08 1h-1.1v-2h1.1z" stroke="#54c45e" stroke-width=".05" fill="#54c45e"/><path d="M-2954.8-1552.7l14.28-4.63v9.27z" stroke="#54c45e" stroke-width="2" fill="#54c45e"/><path d="M-3158.76-1834.5v69.82a6 6 0 0 0 6 6h447.17a6 6 0 0 1 6 6v52.32" stroke="#54c45e" stroke-width="2" fill="none"/><path d="M-3157.76-1834.48h-2v-1.03h2z" stroke="#54c45e" stroke-width=".05" fill="#54c45e"/><path d="M-2699.6-1685.1l-4.62-14.26h9.27z" stroke="#54c45e" stroke-width="2" fill="#54c45e"/><path d="M-3158.76-1489.2v69.83a6 6 0 0 0 6 6h446.4a6 6 0 0 1 6 6v52.32" stroke="#54c45e" stroke-width="2" fill="none"/><path d="M-3157.76-1489.17h-2v-1.03h2z" stroke="#54c45e" stroke-width=".05" fill="#54c45e"/><path d="M-2700.35-1339.78l-4.64-14.27h9.28z" stroke="#54c45e" stroke-width="2" fill="#54c45e"/><path d="M-3549.03-1959.64a6 6 0 0 1 6-6h228.05a6 6 0 0 1 6 6v54.17a6 6 0 0 1-6 6h-228.05a6 6 0 0 1-6-6z" fill="none"/><use xlink:href="#B" transform="matrix(1,0,0,1,-3537.026003037234,-1953.6443877640286) translate(0 33.697265625)"/><path d="M-3158.76-1143.88v69.82a6 6 0 0 0 6 6h447.94a6 6 0 0 1 6 6v52.33" stroke="#54c45e" stroke-width="2" fill="none"/><path d="M-3157.76-1143.86h-2v-1.02h2z" stroke="#54c45e" stroke-width=".05" fill="#54c45e"/><path d="M-2698.82-994.47l-4.64-14.26h9.27z" stroke="#54c45e" stroke-width="2" fill="#54c45e"/><path d="M-3158.76-798.57v69.83a6 6 0 0 0 6 6h447.94a6 6 0 0 1 6 6v52.32" stroke="#54c45e" stroke-width="2" fill="none"/><path d="M-3157.76-798.54h-2v-1.03h2z" stroke="#54c45e" stroke-width=".05" fill="#54c45e"/><path d="M-2698.82-649.15l-4.64-14.27h9.27z" stroke="#54c45e" stroke-width="2" fill="#54c45e"/><path d="M-3158.76-453.26v69.83a6 6 0 0 0 6 6h447.17a6 6 0 0 1 6 6v52.33" stroke="#54c45e" stroke-width="2" fill="none"/><path d="M-3157.76-453.23h-2v-1.03h2z" stroke="#54c45e" stroke-width=".05" fill="#54c45e"/><path d="M-2699.6-303.84l-4.62-14.26h9.27z" stroke="#54c45e" stroke-width="2" fill="#54c45e"/><path d="M-3158.76-107.94v69.82a6 6 0 0 0 6 6h446.4a6 6 0 0 1 6 6V26.2" stroke="#54c45e" stroke-width="2" fill="none"/><path d="M-3157.76-107.92h-2v-1.02h2z" stroke="#54c45e" stroke-width=".05" fill="#54c45e"/><path d="M-2700.35 41.48L-2705 27.2h9.28z" stroke="#54c45e" stroke-width="2" fill="#54c45e"/><path d="M-3155.8-1122.12a6 6 0 0 1 6-6h228.03a6 6 0 0 1 6 6v54.18a6 6 0 0 1-6 6h-228.04a6 6 0 0 1-6-6z" fill="none"/><use xlink:href="#u" transform="matrix(1,0,0,1,-3143.810673281477,-1116.1198144040636) translate(0 33.697265625)"/><path d="M-3150.14-776.8a6 6 0 0 1 6-6h228.05a6 6 0 0 1 6 6v54.17a6 6 0 0 1-6 6h-228.04a6 6 0 0 1-6-6z" fill="none"/><use xlink:href="#u" transform="matrix(1,0,0,1,-3138.140441928868,-770.8062416623262) translate(0 33.697265625)"/><path d="M-3158.65-429.5a6 6 0 0 1 6-6h228.05a6 6 0 0 1 6 6v54.2a6 6 0 0 1-6 6h-228.05a6 6 0 0 1-6-6z" fill="none"/><use xlink:href="#u" transform="matrix(1,0,0,1,-3146.645788957782,-423.4879525983017) translate(0 33.697265625)"/><path d="M-3152.98-84.17a6 6 0 0 1 6-6h228.05a6 6 0 0 1 6 6V-30a6 6 0 0 1-6 6h-228.05a6 6 0 0 1-6-6z" fill="none"/><use xlink:href="#u" transform="matrix(1,0,0,1,-3140.9755576051725,-78.1743798565642) translate(0 33.697265625)"/><path d="M-4102.35-906.85c24.63 0 44.6 20.05 44.6 44.78s-19.97 44.78-44.6 44.78h-133.76c-24.64 0-44.6-20.04-44.6-44.77 0-24.73 19.96-44.78 44.6-44.78z" stroke="#54c45e" stroke-width="5" fill="#c3f7c8"/><use xlink:href="#C" transform="matrix(1,0,0,1,-4269.556884431746,-902.3680925797889) translate(64.494140625 53.53125)"/><path d="M-3549.03-1606.7a6 6 0 0 1 6-6h228.05a6 6 0 0 1 6 6v54.18a6 6 0 0 1-6 6h-228.05a6 6 0 0 1-6-6z" fill="none"/><use xlink:href="#B" transform="matrix(1,0,0,1,-3537.0260030372333,-1600.6973672281497) translate(0 33.697265625)"/><path d="M-3549.03-1261.38a6 6 0 0 1 6-6h228.05a6 6 0 0 1 6 6v54.17a6 6 0 0 1-6 6h-228.05a6 6 0 0 1-6-6z" fill="none"/><use xlink:href="#B" transform="matrix(1,0,0,1,-3537.026003037235,-1255.3837944864122) translate(0 33.697265625)"/><path d="M-3549.03-916.07a6 6 0 0 1 6-6h228.05a6 6 0 0 1 6 6v54.18a6 6 0 0 1-6 6h-228.05a6 6 0 0 1-6-6z" fill="none"/><use xlink:href="#B" transform="matrix(1,0,0,1,-3537.026003037235,-910.0702217446748) translate(0 33.697265625)"/><path d="M-3549.03-570.76a6 6 0 0 1 6-6h228.05a6 6 0 0 1 6 6v54.18a6 6 0 0 1-6 6h-228.05a6 6 0 0 1-6-6z" fill="none"/><use xlink:href="#B" transform="matrix(1,0,0,1,-3537.026003037235,-564.7566490029374) translate(0 33.697265625)"/><path d="M-3549.03-225.44a6 6 0 0 1 6-6h228.05a6 6 0 0 1 6 6v54.18a6 6 0 0 1-6 6h-228.05a6 6 0 0 1-6-6z" fill="none"/><use xlink:href="#B" transform="matrix(1,0,0,1,-3537.0260030372333,-219.44307626119985) translate(0 33.697265625)"/><path d="M-3993.6-1952a6 6 0 0 1 6-6h384.47a6 6 0 0 1 6 6v108a6 6 0 0 1-6 6h-384.47a6 6 0 0 1-6-6z" stroke="#54c45e" stroke-width="5" fill="#54c45e"/><use xlink:href="#D" transform="matrix(1,0,0,1,-3973.7753417919216,-1952.0109399698874) translate(34.4765625 67.03125)"/><use xlink:href="#E" transform="matrix(1,0,0,1,-3973.7753417919216,-1952.0109399698874) translate(202.50390625 67.03125)"/><path d="M-3993.6-1606.7a6 6 0 0 1 6-6h384.47a6 6 0 0 1 6 6v108a6 6 0 0 1-6 6h-384.47a6 6 0 0 1-6-6z" stroke="#54c45e" stroke-width="5" fill="#54c45e"/><use xlink:href="#D" transform="matrix(1,0,0,1,-3973.7753417919216,-1606.69736722815) translate(46.478515625 67.03125)"/><use xlink:href="#F" transform="matrix(1,0,0,1,-3973.7753417919216,-1606.69736722815) translate(214.505859375 67.03125)"/><path d="M-3993.6-1261.38a6 6 0 0 1 6-6h384.47a6 6 0 0 1 6 6v108a6 6 0 0 1-6 6h-384.47a6 6 0 0 1-6-6z" stroke="#54c45e" stroke-width="5" fill="#54c45e"/><use xlink:href="#G" transform="matrix(1,0,0,1,-3973.7753417919216,-1261.3837944864126) translate(106.48828125 46.78125)"/><use xlink:href="#H" transform="matrix(1,0,0,1,-3973.7753417919216,-1261.3837944864126) translate(82.484375 88.94921875)"/><path d="M-3993.6-916.07a6 6 0 0 1 6-6h384.47a6 6 0 0 1 6 6v108a6 6 0 0 1-6 6h-384.47a6 6 0 0 1-6-6z" stroke="#54c45e" stroke-width="5" fill="#54c45e"/><use xlink:href="#G" transform="matrix(1,0,0,1,-3973.7753417919216,-916.0702217446749) translate(106.48828125 46.78125)"/><use xlink:href="#I" transform="matrix(1,0,0,1,-3973.7753417919216,-916.0702217446749) translate(70.482421875 88.94921875)"/><path d="M-3993.6-570.76a6 6 0 0 1 6-6h384.47a6 6 0 0 1 6 6v108a6 6 0 0 1-6 6h-384.47a6 6 0 0 1-6-6z" stroke="#54c45e" stroke-width="5" fill="#54c45e"/><use xlink:href="#D" transform="matrix(1,0,0,1,-3973.7753417919216,-570.7566490029374) translate(34.4765625 67.03125)"/><use xlink:href="#J" transform="matrix(1,0,0,1,-3973.7753417919216,-570.7566490029374) translate(202.50390625 67.03125)"/><path d="M-3993.6-225.44a6 6 0 0 1 6-6h384.47a6 6 0 0 1 6 6v108a6 6 0 0 1-6 6h-384.47a6 6 0 0 1-6-6z" stroke="#54c45e" stroke-width="5" fill="#54c45e"/><use xlink:href="#D" transform="matrix(1,0,0,1,-3973.7753417919216,-225.44307626119985) translate(22.474609375 67.03125)"/><use xlink:href="#K" transform="matrix(1,0,0,1,-3973.7753417919216,-225.44307626119985) translate(190.501953125 67.03125)"/><path d="M-3997.1-171.44h-22.58a6 6 0 0 1-6-6v-678.63a6 6 0 0 0-6-6h-5.08" stroke="#54c45e" stroke-width="2" fill="none"/><path d="M-3996.1-170.44h-1.03v-2h1.03z" stroke="#54c45e" stroke-width=".05" fill="#54c45e"/><path d="M-4052.02-862.07l14.26-4.64v9.27z" stroke="#54c45e" stroke-width="2" fill="#54c45e"/><path d="M-3997.1-516.76h-22.58a6 6 0 0 1-6-6v-333.3a6 6 0 0 0-6-6h-5.08" stroke="#54c45e" stroke-width="2" fill="none"/><path d="M-3996.1-515.76h-1.03v-2h1.03z" stroke="#54c45e" stroke-width=".05" fill="#54c45e"/><path d="M-4052.02-862.07l14.26-4.64v9.27z" stroke="#54c45e" stroke-width="2" fill="#54c45e"/><path d="M-3997.1-862.07h-39.66" stroke="#54c45e" stroke-width="2" fill="none"/><path d="M-3996.1-861.07h-1.03v-2h1.03z" stroke="#54c45e" stroke-width=".05" fill="#54c45e"/><path d="M-4052.02-862.07l14.26-4.64v9.27z" stroke="#54c45e" stroke-width="2" fill="#54c45e"/><path d="M-3997.1-1207.38h-22.58a6 6 0 0 0-6 6v333.3a6 6 0 0 1-6 6h-5.08" stroke="#54c45e" stroke-width="2" fill="none"/><path d="M-3996.1-1206.38h-1.03v-2h1.03z" stroke="#54c45e" stroke-width=".05" fill="#54c45e"/><path d="M-4052.02-862.07l14.26-4.64v9.27z" stroke="#54c45e" stroke-width="2" fill="#54c45e"/><path d="M-3997.1-1552.7h-22.58a6 6 0 0 0-6 6v678.63a6 6 0 0 1-6 6h-5.08" stroke="#54c45e" stroke-width="2" fill="none"/><path d="M-3996.1-1551.7h-1.03v-2h1.03z" stroke="#54c45e" stroke-width=".05" fill="#54c45e"/><path d="M-4052.02-862.07l14.26-4.64v9.27z" stroke="#54c45e" stroke-width="2" fill="#54c45e"/><path d="M-3997.1-1898h-22.58a6 6 0 0 0-6 6v1023.93a6 6 0 0 1-6 6h-5.08" stroke="#54c45e" stroke-width="2" fill="none"/><path d="M-3996.1-1897h-1.03v-2h1.03z" stroke="#54c45e" stroke-width=".05" fill="#54c45e"/><path d="M-4052.02-862.07l14.26-4.64v9.27z" stroke="#54c45e" stroke-width="2" fill="#54c45e"/><path d="M-3360.07-1899.47h-216.05" stroke="#54c45e" stroke-width="2" fill="none"/><path stroke="#54c45e" stroke-width=".05" fill="#54c45e"/><path d="M-3591.4-1899.47l14.28-4.63v9.27z" stroke="#54c45e" stroke-width="2" fill="#54c45e"/><path d="M-3360.5-1552.7h-215.63" stroke="#54c45e" stroke-width="2" fill="none"/><path d="M-3359.5-1551.7h-1.02v-2h1.03z" stroke="#54c45e" stroke-width=".05" fill="#54c45e"/><path d="M-3591.4-1552.7l14.28-4.63v9.27z" stroke="#54c45e" stroke-width="2" fill="#54c45e"/><path d="M-3360.5-1207.38h-215.63" stroke="#54c45e" stroke-width="2" fill="none"/><path d="M-3359.5-1206.38h-1.02v-2h1.03z" stroke="#54c45e" stroke-width=".05" fill="#54c45e"/><path d="M-3591.4-1207.38l14.28-4.64v9.27z" stroke="#54c45e" stroke-width="2" fill="#54c45e"/><path d="M-3360.5-862.07h-215.63" stroke="#54c45e" stroke-width="2" fill="none"/><path d="M-3359.5-861.07h-1.02v-2h1.03z" stroke="#54c45e" stroke-width=".05" fill="#54c45e"/><path d="M-3591.4-862.07l14.28-4.64v9.27z" stroke="#54c45e" stroke-width="2" fill="#54c45e"/><path d="M-3360.5-516.76h-215.63" stroke="#54c45e" stroke-width="2" fill="none"/><path d="M-3359.5-515.76h-1.02v-2h1.03z" stroke="#54c45e" stroke-width=".05" fill="#54c45e"/><path d="M-3591.4-516.76l14.28-4.63v9.28z" stroke="#54c45e" stroke-width="2" fill="#54c45e"/><path d="M-3360.5-171.44h-215.63" stroke="#54c45e" stroke-width="2" fill="none"/><path d="M-3359.5-170.44h-1.02v-2h1.03z" stroke="#54c45e" stroke-width=".05" fill="#54c45e"/><path d="M-3591.4-171.44l14.28-4.64v9.27z" stroke="#54c45e" stroke-width="2" fill="#54c45e"/><path d="M-3357 119.87a6 6 0 0 1 6-6h384.48a6 6 0 0 1 6 6v108a6 6 0 0 1-6 6H-3351a6 6 0 0 1-6-6z" stroke="#54c45e" stroke-width="5" fill="#54c45e"/><g><use xlink:href="#G" transform="matrix(1,0,0,1,-3337.1712476288144,119.87049648053767) translate(106.48828125 46.78125)"/><use xlink:href="#L" transform="matrix(1,0,0,1,-3337.1712476288144,119.87049648053767) translate(70.482421875 88.94921875)"/></g><path d="M-2830.5 173.87h-109.02" stroke="#54c45e" stroke-width="2" fill="none"/><path d="M-2829.5 173.87l.07 1h-1.1v-2h1.1z" stroke="#54c45e" stroke-width=".05" fill="#54c45e"/><path d="M-2954.8 173.87l14.28-4.63v9.27z" stroke="#54c45e" stroke-width="2" fill="#54c45e"/><path d="M-3360.5 173.87h-659.18a6 6 0 0 1-6-6V-856.07a6 6 0 0 0-6-6h-5.08" stroke="#54c45e" stroke-width="2" fill="none"/><path d="M-3359.5 174.87h-1.02v-2h1.03z" stroke="#54c45e" stroke-width=".05" fill="#54c45e"/><path d="M-4052.02-862.07l14.26-4.64v9.27z" stroke="#54c45e" stroke-width="2" fill="#54c45e"/><defs><path fill="#333" d="M1048-32c-2 300-135 456-433 456-222-1-358-88-400-267l184-25c22 99 100 157 222 156 184-2 248-125 248-315 0-64 3-133-2-194C807-100 706-13 524-12c-306 0-381-228-381-537 0-318 85-550 400-550 164 0 271 83 325 202h3c1-60 3-134 12-185h171c-13 339-4 702-6 1050zM585-145c210-8 284-178 284-406 0-192-52-331-177-392-33-16-69-22-104-22-223 2-259 184-259 414 0 229 31 415 256 406" id="M"/><path fill="#333" d="M617-1102c355 0 481 238 477 599H322c5 222 84 388 301 388 144 0 244-59 284-166l158 45C1002-72 854 20 623 20c-342 0-490-220-490-568 0-346 151-554 484-554zm291 461c-18-192-90-328-289-328-194 0-287 128-295 328h584" id="N"/><path fill="#333" d="M682 16c-209 0-323-80-324-285v-671H190v-142h170l58-282h120v282h432v142H538v652c2 114 60 155 182 155 106 0 209-16 297-34v137C921-4 806 16 682 16" id="O"/><path fill="#333" d="M-5 220v-96h1238v96H-5" id="P"/><path fill="#333" d="M365-904c58-129 161-200 334-200 130 0 228 46 293 138s98 233 98 420c0 189-34 331-102 425S824 20 698 20c-170 0-275-64-336-184 0 55-3 116-9 164H179c5-68 6-147 6-223v-1261h180c-2 193 4 394-4 580h4zm283 791c221 0 256-197 256-427 0-229-34-425-254-425-236 0-285 195-285 441 0 237 53 411 283 411" id="Q"/><path fill="#333" d="M873-819c-18-114-119-146-250-146-163 0-245 50-245 151 0 151 170 148 294 185 182 54 388 94 388 320 0 240-189 325-439 329-245 4-410-69-454-268l159-31c24 133 136 168 295 165 144-2 270-31 270-171 0-164-195-160-331-202-167-52-350-87-350-299 0-218 173-315 413-313 220 2 373 77 412 260" id="R"/><path fill="#333" d="M839-1102c70 0 148 7 206 17v167c-112-18-268-36-363 15-129 69-208 203-208 395V0H294c-10-367 32-789-52-1082h171c21 75 41 161 48 250h5c67-152 152-270 373-270" id="S"/><path fill="#333" d="M1000-272c3 95 12 159 101 161 21 0 41-3 59-7V-6c-44 10-86 16-139 16-141 2-191-84-197-217h-6C748-76 648 20 446 20c-207 0-318-120-318-322 0-266 194-348 454-354l236-4c12-191-40-305-222-305-140 0-220 47-232 172l-188-17c33-204 181-292 423-292 255 0 401 118 401 364v466zm-683-27c0 109 63 184 175 182 166-3 259-96 306-217 24-65 20-120 20-200-232 7-501-28-501 235" id="T"/><path fill="#333" d="M745-142h380V0H143v-142h422v-798H246v-142h499v940zM545-1292v-192h200v192H545" id="U"/><path fill="#333" d="M706-1102c241 0 344 136 343 381V0H868v-695c1-168-57-273-220-268-190 6-283 138-283 336V0H185c-3-360 6-732-6-1082h170c4 54 7 126 8 185h3c63-121 164-204 346-205" id="V"/><path fill="#333" d="M904-1102c199 0 220 177 220 381V0H956v-686c-3-114 0-215-60-264-70-33-125-4-158 71-26 56-39 140-39 252V0H531v-686c-3-114-1-215-61-264-78-41-136 24-157 84-24 69-39 159-39 259V0H105c-3-360 6-732-6-1082h149c6 50 3 123 8 175 36-100 83-195 216-195 135 0 166 79 196 196 42-105 93-196 236-196" id="W"/><path fill="#333" d="M631 20c-350 0-501-215-501-562 0-355 162-560 502-560 250 0 399 118 446 323l-192 14c-23-124-109-196-262-196-242 0-305 171-305 415 1 245 61 427 304 427 151 0 248-77 267-215l190 12C1039-107 883 20 631 20" id="X"/><path fill="#333" d="M648-963c-190 6-283 138-283 336V0H185v-1484h181c-2 197 6 404-9 587h3c62-120 159-205 339-205 242 0 351 135 350 381V0H868v-695c1-168-57-273-220-268" id="Y"/><g id="a"><use transform="matrix(0.01953125,0,0,0.01953125,0,0)" xlink:href="#M"/><use transform="matrix(0.01953125,0,0,0.01953125,24.00390625,0)" xlink:href="#N"/><use transform="matrix(0.01953125,0,0,0.01953125,48.0078125,0)" xlink:href="#O"/><use transform="matrix(0.01953125,0,0,0.01953125,72.01171875,0)" xlink:href="#P"/><use transform="matrix(0.01953125,0,0,0.01953125,96.015625,0)" xlink:href="#Q"/><use transform="matrix(0.01953125,0,0,0.01953125,120.01953125,0)" xlink:href="#N"/><use transform="matrix(0.01953125,0,0,0.01953125,144.0234375,0)" xlink:href="#R"/><use transform="matrix(0.01953125,0,0,0.01953125,168.02734375,0)" xlink:href="#O"/><use transform="matrix(0.01953125,0,0,0.01953125,192.03125,0)" xlink:href="#P"/><use transform="matrix(0.01953125,0,0,0.01953125,216.03515625,0)" xlink:href="#O"/><use transform="matrix(0.01953125,0,0,0.01953125,240.0390625,0)" xlink:href="#N"/><use transform="matrix(0.01953125,0,0,0.01953125,264.04296875,0)" xlink:href="#S"/><use transform="matrix(0.01953125,0,0,0.01953125,288.046875,0)" xlink:href="#S"/><use transform="matrix(0.01953125,0,0,0.01953125,312.05078125,0)" xlink:href="#T"/><use transform="matrix(0.01953125,0,0,0.01953125,336.0546875,0)" xlink:href="#U"/><use transform="matrix(0.01953125,0,0,0.01953125,360.05859375,0)" xlink:href="#V"/><use transform="matrix(0.01953125,0,0,0.01953125,384.0625,0)" xlink:href="#P"/><use transform="matrix(0.01953125,0,0,0.01953125,408.06640625,0)" xlink:href="#W"/><use transform="matrix(0.01953125,0,0,0.01953125,432.0703125,0)" xlink:href="#T"/><use transform="matrix(0.01953125,0,0,0.01953125,456.07421875,0)" xlink:href="#O"/><use transform="matrix(0.01953125,0,0,0.01953125,480.078125,0)" xlink:href="#X"/><use transform="matrix(0.01953125,0,0,0.01953125,504.08203125,0)" xlink:href="#Y"/></g><path fill="#333" d="M202-1349h823v156H709v1037h316V0H202v-156h316v-1037H202v-156" id="Z"/><path fill="#333" d="M839-1335c-182-6-269 67-259 253h491v142H580V0H400v-940H138v-142h262c-15-293 132-408 418-402 94 2 200 7 281 21v145c-75-10-177-14-260-17" id="aa"/><g id="b"><use transform="matrix(0.01953125,0,0,0.01953125,0,0)" xlink:href="#Z"/><use transform="matrix(0.01953125,0,0,0.01953125,24.00390625,0)" xlink:href="#aa"/></g><path fill="#333" d="M615-1102c343 0 484 203 482 560-1 347-147 562-488 562-336 0-475-219-479-562-4-349 156-560 485-560zm-8 989c240 0 301-180 301-429 0-245-55-427-290-427-236 0-299 181-299 427 0 243 61 429 288 429" id="ab"/><path fill="#333" d="M736-142h380V0H134v-142h422v-1200H267v-142h469v1342" id="ac"/><path fill="#333" d="M865-914c-3-187-2-380-2-570h180v1261c0 76 1 155 6 223H877c-8-49-9-116-10-174h-5C801-44 708 26 530 26c-135 0-234-46-297-139s-95-232-95-419c0-377 131-566 392-566 176 0 271 63 335 184zm-286-51c-222 0-255 197-255 427 0 229 31 425 253 425 237 0 286-195 286-441 0-238-52-411-284-411" id="ad"/><g id="c"><use transform="matrix(0.01953125,0,0,0.01953125,0,0)" xlink:href="#O"/><use transform="matrix(0.01953125,0,0,0.01953125,24.00390625,0)" xlink:href="#Y"/><use transform="matrix(0.01953125,0,0,0.01953125,48.0078125,0)" xlink:href="#S"/><use transform="matrix(0.01953125,0,0,0.01953125,72.01171875,0)" xlink:href="#N"/><use transform="matrix(0.01953125,0,0,0.01953125,96.015625,0)" xlink:href="#R"/><use transform="matrix(0.01953125,0,0,0.01953125,120.01953125,0)" xlink:href="#Y"/><use transform="matrix(0.01953125,0,0,0.01953125,144.0234375,0)" xlink:href="#ab"/><use transform="matrix(0.01953125,0,0,0.01953125,168.02734375,0)" xlink:href="#ac"/><use transform="matrix(0.01953125,0,0,0.01953125,192.03125,0)" xlink:href="#ad"/><use transform="matrix(0.01953125,0,0,0.01953125,216.03515625,0)" xlink:href="#N"/><use transform="matrix(0.01953125,0,0,0.01953125,240.0390625,0)" xlink:href="#ad"/></g><path fill="#333" d="M698-1104c312 3 392 244 392 558 0 315-82 566-392 566-169 0-277-65-331-184h-5c8 188 2 394 4 589H185V-858c0-76-1-156-6-224h175c6 52 9 120 10 178h4c58-122 150-202 330-200zm-49 991c225 0 255-203 255-433 0-225-32-419-253-419-236 0-285 192-285 441 0 237 53 411 283 411" id="ae"/><path fill="#333" d="M932 0L611-444 288 0H94l415-556-397-526h199l300 421 298-421h201L713-558 1133 0H932" id="af"/><g id="d"><use transform="matrix(0.01953125,0,0,0.01953125,0,0)" xlink:href="#ae"/><use transform="matrix(0.01953125,0,0,0.01953125,24.00390625,0)" xlink:href="#U"/><use transform="matrix(0.01953125,0,0,0.01953125,48.0078125,0)" xlink:href="#af"/><use transform="matrix(0.01953125,0,0,0.01953125,72.01171875,0)" xlink:href="#N"/><use transform="matrix(0.01953125,0,0,0.01953125,96.015625,0)" xlink:href="#ac"/><use transform="matrix(0.01953125,0,0,0.01953125,120.01953125,0)" xlink:href="#R"/></g><path fill="#333" d="M116-571v-205l995-418v154L253-674l858 367v153" id="ag"/><use transform="matrix(0.01953125,0,0,0.01953125,0,0)" xlink:href="#ag" id="e"/><path fill="#333" d="M611-1370c266 0 451 106 451 368 0 147-77 243-154 327-132 144-316 255-451 395-42 44-75 87-96 134h723V0H144v-117c124-264 387-411 582-603 73-72 151-147 151-271 0-161-104-231-266-231-163 0-249 90-268 238l-184-17c35-233 185-369 452-369" id="ah"/><path fill="#333" d="M1065-1013c47 164 49 500-1 665C999-130 875 20 611 20c-377 0-484-300-487-695-2-245 41-425 141-551 77-98 191-144 352-144 261 0 386 140 448 357zM741-155c199-92 203-504 159-785-26-168-96-284-283-284-281 0-308 256-311 549-2 181 18 324 80 428 46 77 115 118 227 120 47 0 90-10 128-28zM496-555v-249h235v249H496" id="ai"/><g id="f"><use transform="matrix(0.01953125,0,0,0.01953125,0,0)" xlink:href="#ah"/><use transform="matrix(0.01953125,0,0,0.01953125,24.00390625,0)" xlink:href="#ai"/><use transform="matrix(0.01953125,0,0,0.01953125,48.0078125,0)" xlink:href="#ai"/><use transform="matrix(0.01953125,0,0,0.01953125,72.01171875,0)" xlink:href="#ai"/></g><path fill="#333" d="M709-1193V0H519v-1193H76v-156h1076v156H709" id="aj"/><path fill="#333" d="M528 20c-247 0-343-132-343-381v-721h180v686c-4 177 45 284 224 277 194-8 279-136 279-336v-627h181c3 360-6 732 6 1082H885c-4-54-7-126-8-185h-3C809-64 714 20 528 20" id="ak"/><g id="g"><use transform="matrix(0.01953125,0,0,0.01953125,0,0)" xlink:href="#aj"/><use transform="matrix(0.01953125,0,0,0.01953125,24.00390625,0)" xlink:href="#S"/><use transform="matrix(0.01953125,0,0,0.01953125,48.0078125,0)" xlink:href="#ak"/><use transform="matrix(0.01953125,0,0,0.01953125,72.01171875,0)" xlink:href="#N"/></g><path fill="#333" d="M385-1193v494h676v158H385V0H194v-1349h891v156H385" id="al"/><g id="h"><use transform="matrix(0.01953125,0,0,0.01953125,0,0)" xlink:href="#al"/><use transform="matrix(0.01953125,0,0,0.01953125,24.00390625,0)" xlink:href="#T"/><use transform="matrix(0.01953125,0,0,0.01953125,48.0078125,0)" xlink:href="#ac"/><use transform="matrix(0.01953125,0,0,0.01953125,72.01171875,0)" xlink:href="#R"/><use transform="matrix(0.01953125,0,0,0.01953125,96.015625,0)" xlink:href="#N"/></g><path fill="#333" d="M614-1226c-167 1-283 53-283 213 0 183 186 193 334 234 230 63 463 120 463 409 0 286-219 387-518 390C309 23 131-98 79-338l185-37c34 165 149 248 351 246 184-2 324-58 324-238 0-203-207-221-372-266-210-57-422-111-422-377 0-267 201-356 470-360 279-5 430 101 480 324l-188 33c-28-141-121-215-293-213" id="am"/><g id="i"><use transform="matrix(0.01953125,0,0,0.01953125,0,0)" xlink:href="#am"/><use transform="matrix(0.01953125,0,0,0.01953125,24.00390625,0)" xlink:href="#N"/><use transform="matrix(0.01953125,0,0,0.01953125,48.0078125,0)" xlink:href="#O"/></g><g id="j"><use transform="matrix(0.01953125,0,0,0.01953125,0,0)" xlink:href="#X"/><use transform="matrix(0.01953125,0,0,0.01953125,24.00390625,0)" xlink:href="#N"/><use transform="matrix(0.01953125,0,0,0.01953125,48.0078125,0)" xlink:href="#ac"/><use transform="matrix(0.01953125,0,0,0.01953125,72.01171875,0)" xlink:href="#ac"/></g><g id="k"><use transform="matrix(0.01953125,0,0,0.01953125,0,0)" xlink:href="#T"/><use transform="matrix(0.01953125,0,0,0.01953125,24.00390625,0)" xlink:href="#R"/></g><g id="l"><use transform="matrix(0.01953125,0,0,0.01953125,0,0)" xlink:href="#ak"/><use transform="matrix(0.01953125,0,0,0.01953125,24.00390625,0)" xlink:href="#V"/><use transform="matrix(0.01953125,0,0,0.01953125,48.0078125,0)" xlink:href="#ad"/><use transform="matrix(0.01953125,0,0,0.01953125,72.01171875,0)" xlink:href="#N"/><use transform="matrix(0.01953125,0,0,0.01953125,96.015625,0)" xlink:href="#aa"/><use transform="matrix(0.01953125,0,0,0.01953125,120.01953125,0)" xlink:href="#U"/><use transform="matrix(0.01953125,0,0,0.01953125,144.0234375,0)" xlink:href="#V"/><use transform="matrix(0.01953125,0,0,0.01953125,168.02734375,0)" xlink:href="#N"/><use transform="matrix(0.01953125,0,0,0.01953125,192.03125,0)" xlink:href="#ad"/></g><path fill="#333" d="M650-1214c-281 0-336 244-336 533 0 295 60 546 347 546 188 0 263-142 322-282l159 65C1058-155 935 20 659 20c-401 0-546-295-546-701 0-407 135-689 536-689 264 0 391 146 466 335l-168 65c-47-129-127-244-297-244" id="an"/><g id="m"><use transform="matrix(0.01953125,0,0,0.01953125,0,0)" xlink:href="#an"/><use transform="matrix(0.01953125,0,0,0.01953125,24.00390625,0)" xlink:href="#T"/><use transform="matrix(0.01953125,0,0,0.01953125,48.0078125,0)" xlink:href="#R"/><use transform="matrix(0.01953125,0,0,0.01953125,72.01171875,0)" xlink:href="#N"/></g><path fill="#333" d="M102-681c0-398 126-689 513-689 165 0 291 58 379 174s132 287 132 515c-1 318-88 554-298 657-123 61-317 58-438-3-206-104-288-341-288-654zm749 406c94-160 97-656-5-807-57-85-130-132-231-132-104 0-178 47-234 132-101 153-99 655 1 809 57 89 130 138 232 138 109 0 184-49 237-140" id="ao"/><path fill="#333" d="M162 0v-1349h919v156H353v422h668v154H353v461h769V0H162" id="ap"/><path fill="#333" d="M1034 0L896-382H333L196 0H0l510-1349h217L1228 0h-194zM847-531c-77-225-157-447-231-674-69 231-154 451-232 674h463" id="aq"/><path fill="#333" d="M912-211c-10-84-18-177-18-274v-864h172V0H836L316-1130c7 79 16 167 16 254V0H162v-1349h222" id="ar"/><g id="n"><use transform="matrix(0.01953125,0,0,0.01953125,0,0)" xlink:href="#ao"/><use transform="matrix(0.01953125,0,0,0.01953125,24.00390625,0)" xlink:href="#an"/><use transform="matrix(0.01953125,0,0,0.01953125,48.0078125,0)" xlink:href="#ap"/><use transform="matrix(0.01953125,0,0,0.01953125,72.01171875,0)" xlink:href="#aq"/><use transform="matrix(0.01953125,0,0,0.01953125,96.015625,0)" xlink:href="#ar"/></g><path fill="#333" d="M285-1169c8 382 2 780 4 1169H129v-1349h237c86 239 188 461 253 720 69-258 169-481 255-720h225V0H937c2-390-5-788 6-1169-75 255-170 488-259 729H547c-90-240-185-475-262-729" id="as"/><g id="o"><use transform="matrix(0.01953125,0,0,0.01953125,0,0)" xlink:href="#as"/><use transform="matrix(0.01953125,0,0,0.01953125,24.00390625,0)" xlink:href="#Z"/><use transform="matrix(0.01953125,0,0,0.01953125,48.0078125,0)" xlink:href="#ar"/><use transform="matrix(0.01953125,0,0,0.01953125,72.01171875,0)" xlink:href="#ap"/></g><path fill="#333" d="M713 0H515L10-1349h201C345-955 498-579 615-168c116-411 269-787 402-1181h201" id="at"/><path fill="#333" d="M875 0v-623H353V0H162v-1349h191v566h522v-566h191V0H875" id="au"/><g id="p"><use transform="matrix(0.01953125,0,0,0.01953125,0,0)" xlink:href="#am"/><use transform="matrix(0.01953125,0,0,0.01953125,24.00390625,0)" xlink:href="#aq"/><use transform="matrix(0.01953125,0,0,0.01953125,48.0078125,0)" xlink:href="#at"/><use transform="matrix(0.01953125,0,0,0.01953125,72.01171875,0)" xlink:href="#aq"/><use transform="matrix(0.01953125,0,0,0.01953125,96.015625,0)" xlink:href="#ar"/><use transform="matrix(0.01953125,0,0,0.01953125,120.01953125,0)" xlink:href="#ar"/><use transform="matrix(0.01953125,0,0,0.01953125,144.0234375,0)" xlink:href="#aq"/><use transform="matrix(0.01953125,0,0,0.01953125,168.02734375,0)" xlink:href="#au"/></g><path fill="#333" d="M1018 0H810c-67-251-137-496-194-756C558-495 487-250 419 0H211L0-1349h189c48 393 110 772 142 1181 58-262 128-512 197-763h175c69 251 139 500 197 763 37-402 92-789 139-1181h189" id="av"/><path fill="#333" d="M237 0v-1349h191v1193h672V0H237" id="aw"/><path fill="#333" d="M473-1349c438-1 655 221 652 661C1122-268 945-8 532 0H162v-1349h311zm42 1193c308-4 416-205 418-532 2-330-131-509-459-505H353v1037h162" id="ax"/><g id="q"><use transform="matrix(0.01953125,0,0,0.01953125,0,0)" xlink:href="#av"/><use transform="matrix(0.01953125,0,0,0.01953125,24.00390625,0)" xlink:href="#aq"/><use transform="matrix(0.01953125,0,0,0.01953125,48.0078125,0)" xlink:href="#am"/><use transform="matrix(0.01953125,0,0,0.01953125,72.01171875,0)" xlink:href="#aj"/><use transform="matrix(0.01953125,0,0,0.01953125,96.015625,0)" xlink:href="#ap"/><use transform="matrix(0.01953125,0,0,0.01953125,120.01953125,0)" xlink:href="#aw"/><use transform="matrix(0.01953125,0,0,0.01953125,144.0234375,0)" xlink:href="#aq"/><use transform="matrix(0.01953125,0,0,0.01953125,168.02734375,0)" xlink:href="#ar"/><use transform="matrix(0.01953125,0,0,0.01953125,192.03125,0)" xlink:href="#ax"/></g><path fill="#333" d="M622-1349c296 4 497 117 497 404 0 282-193 424-485 431H353V0H162v-1349h460zm-15 684c195-3 320-88 320-277 0-184-129-255-328-254H353v531h254" id="ay"/><g id="r"><use transform="matrix(0.01953125,0,0,0.01953125,0,0)" xlink:href="#ay"/><use transform="matrix(0.01953125,0,0,0.01953125,24.00390625,0)" xlink:href="#aw"/><use transform="matrix(0.01953125,0,0,0.01953125,48.0078125,0)" xlink:href="#aq"/><use transform="matrix(0.01953125,0,0,0.01953125,72.01171875,0)" xlink:href="#Z"/><use transform="matrix(0.01953125,0,0,0.01953125,96.015625,0)" xlink:href="#ar"/></g><path fill="#333" d="M1121-976c0 225-142 341-344 379L1177 0H957L591-575H353V0H162v-1349h482c281 3 477 100 477 373zM633-726c181-1 296-73 296-247 0-149-101-223-304-223H353v470h280" id="az"/><g id="s"><use transform="matrix(0.01953125,0,0,0.01953125,0,0)" xlink:href="#al"/><use transform="matrix(0.01953125,0,0,0.01953125,24.00390625,0)" xlink:href="#ao"/><use transform="matrix(0.01953125,0,0,0.01953125,48.0078125,0)" xlink:href="#az"/><use transform="matrix(0.01953125,0,0,0.01953125,72.01171875,0)" xlink:href="#ap"/><use transform="matrix(0.01953125,0,0,0.01953125,96.015625,0)" xlink:href="#am"/><use transform="matrix(0.01953125,0,0,0.01953125,120.01953125,0)" xlink:href="#aj"/></g><g id="t"><use transform="matrix(0.01953125,0,0,0.01953125,0,0)" xlink:href="#ad"/><use transform="matrix(0.01953125,0,0,0.01953125,24.00390625,0)" xlink:href="#N"/><use transform="matrix(0.01953125,0,0,0.01953125,48.0078125,0)" xlink:href="#aa"/><use transform="matrix(0.01953125,0,0,0.01953125,72.01171875,0)" xlink:href="#T"/><use transform="matrix(0.01953125,0,0,0.01953125,96.015625,0)" xlink:href="#ak"/><use transform="matrix(0.01953125,0,0,0.01953125,120.01953125,0)" xlink:href="#ac"/><use transform="matrix(0.01953125,0,0,0.01953125,144.0234375,0)" xlink:href="#O"/></g><path fill="#333" d="M604-135c236 0 291-142 291-376v-838h190v859c5 340-142 510-480 510-326 0-463-164-463-492v-877h191v851c-3 222 46 363 271 363" id="aA"/><g id="u"><use transform="matrix(0.01953125,0,0,0.01953125,0,0)" xlink:href="#aA"/><use transform="matrix(0.01953125,0,0,0.01953125,24.00390625,0)" xlink:href="#V"/><use transform="matrix(0.01953125,0,0,0.01953125,48.0078125,0)" xlink:href="#W"/><use transform="matrix(0.01953125,0,0,0.01953125,72.01171875,0)" xlink:href="#T"/><use transform="matrix(0.01953125,0,0,0.01953125,96.015625,0)" xlink:href="#O"/><use transform="matrix(0.01953125,0,0,0.01953125,120.01953125,0)" xlink:href="#X"/><use transform="matrix(0.01953125,0,0,0.01953125,144.0234375,0)" xlink:href="#Y"/><use transform="matrix(0.01953125,0,0,0.01953125,168.02734375,0)" xlink:href="#N"/><use transform="matrix(0.01953125,0,0,0.01953125,192.03125,0)" xlink:href="#ad"/></g><g id="v"><use transform="matrix(0.01953125,0,0,0.01953125,0,0)" xlink:href="#aj"/><use transform="matrix(0.01953125,0,0,0.01953125,24.00390625,0)" xlink:href="#Y"/><use transform="matrix(0.01953125,0,0,0.01953125,48.0078125,0)" xlink:href="#S"/><use transform="matrix(0.01953125,0,0,0.01953125,72.01171875,0)" xlink:href="#N"/><use transform="matrix(0.01953125,0,0,0.01953125,96.015625,0)" xlink:href="#R"/><use transform="matrix(0.01953125,0,0,0.01953125,120.01953125,0)" xlink:href="#Y"/><use transform="matrix(0.01953125,0,0,0.01953125,144.0234375,0)" xlink:href="#ab"/><use transform="matrix(0.01953125,0,0,0.01953125,168.02734375,0)" xlink:href="#ac"/><use transform="matrix(0.01953125,0,0,0.01953125,192.03125,0)" xlink:href="#ad"/></g><g id="w"><use transform="matrix(0.01953125,0,0,0.01953125,0,0)" xlink:href="#T"/><use transform="matrix(0.01953125,0,0,0.01953125,24.00390625,0)" xlink:href="#V"/><use transform="matrix(0.01953125,0,0,0.01953125,48.0078125,0)" xlink:href="#ad"/></g><path fill="#333" d="M1155 0H73v-143l818-1050H146v-156h962v139L290-156h865V0" id="aB"/><g id="x"><use transform="matrix(0.01953125,0,0,0.01953125,0,0)" xlink:href="#X"/><use transform="matrix(0.01953125,0,0,0.01953125,24.00390625,0)" xlink:href="#ab"/><use transform="matrix(0.01953125,0,0,0.01953125,48.0078125,0)" xlink:href="#ak"/><use transform="matrix(0.01953125,0,0,0.01953125,72.01171875,0)" xlink:href="#V"/><use transform="matrix(0.01953125,0,0,0.01953125,96.015625,0)" xlink:href="#O"/><use transform="matrix(0.01953125,0,0,0.01953125,120.01953125,0)" xlink:href="#ar"/><use transform="matrix(0.01953125,0,0,0.01953125,144.0234375,0)" xlink:href="#ab"/><use transform="matrix(0.01953125,0,0,0.01953125,168.02734375,0)" xlink:href="#V"/><use transform="matrix(0.01953125,0,0,0.01953125,192.03125,0)" xlink:href="#aB"/><use transform="matrix(0.01953125,0,0,0.01953125,216.03515625,0)" xlink:href="#N"/><use transform="matrix(0.01953125,0,0,0.01953125,240.0390625,0)" xlink:href="#S"/><use transform="matrix(0.01953125,0,0,0.01953125,264.04296875,0)" xlink:href="#ab"/></g><g id="y"><use transform="matrix(0.01953125,0,0,0.01953125,0,0)" xlink:href="#as"/><use transform="matrix(0.01953125,0,0,0.01953125,24.00390625,0)" xlink:href="#T"/><use transform="matrix(0.01953125,0,0,0.01953125,48.0078125,0)" xlink:href="#O"/><use transform="matrix(0.01953125,0,0,0.01953125,72.01171875,0)" xlink:href="#X"/><use transform="matrix(0.01953125,0,0,0.01953125,96.015625,0)" xlink:href="#Y"/></g><g id="z"><use transform="matrix(0.01953125,0,0,0.01953125,0,0)" xlink:href="#O"/><use transform="matrix(0.01953125,0,0,0.01953125,24.00390625,0)" xlink:href="#Y"/><use transform="matrix(0.01953125,0,0,0.01953125,48.0078125,0)" xlink:href="#S"/><use transform="matrix(0.01953125,0,0,0.01953125,72.01171875,0)" xlink:href="#N"/><use transform="matrix(0.01953125,0,0,0.01953125,96.015625,0)" xlink:href="#R"/><use transform="matrix(0.01953125,0,0,0.01953125,120.01953125,0)" xlink:href="#Y"/><use transform="matrix(0.01953125,0,0,0.01953125,144.0234375,0)" xlink:href="#ab"/><use transform="matrix(0.01953125,0,0,0.01953125,168.02734375,0)" xlink:href="#ac"/><use transform="matrix(0.01953125,0,0,0.01953125,192.03125,0)" xlink:href="#ad"/><use transform="matrix(0.01953125,0,0,0.01953125,216.03515625,0)" xlink:href="#N"/><use transform="matrix(0.01953125,0,0,0.01953125,240.0390625,0)" xlink:href="#ad"/></g><g id="A"><use transform="matrix(0.01953125,0,0,0.01953125,0,0)" xlink:href="#ae"/><use transform="matrix(0.01953125,0,0,0.01953125,24.00390625,0)" xlink:href="#U"/><use transform="matrix(0.01953125,0,0,0.01953125,48.0078125,0)" xlink:href="#af"/><use transform="matrix(0.01953125,0,0,0.01953125,72.01171875,0)" xlink:href="#N"/><use transform="matrix(0.01953125,0,0,0.01953125,96.015625,0)" xlink:href="#ac"/><use transform="matrix(0.01953125,0,0,0.01953125,120.01953125,0)" xlink:href="#R"/></g><g id="B"><use transform="matrix(0.01953125,0,0,0.01953125,0,0)" xlink:href="#as"/><use transform="matrix(0.01953125,0,0,0.01953125,24.00390625,0)" xlink:href="#T"/><use transform="matrix(0.01953125,0,0,0.01953125,48.0078125,0)" xlink:href="#O"/><use transform="matrix(0.01953125,0,0,0.01953125,72.01171875,0)" xlink:href="#X"/><use transform="matrix(0.01953125,0,0,0.01953125,96.015625,0)" xlink:href="#Y"/><use transform="matrix(0.01953125,0,0,0.01953125,120.01953125,0)" xlink:href="#N"/><use transform="matrix(0.01953125,0,0,0.01953125,144.0234375,0)" xlink:href="#ad"/></g><g id="C"><use transform="matrix(0.01953125,0,0,0.01953125,0,0)" xlink:href="#ap"/><use transform="matrix(0.01953125,0,0,0.01953125,24.00390625,0)" xlink:href="#V"/><use transform="matrix(0.01953125,0,0,0.01953125,48.0078125,0)" xlink:href="#ad"/></g><g id="D"><use transform="matrix(0.01953125,0,0,0.01953125,0,0)" xlink:href="#az"/><use transform="matrix(0.01953125,0,0,0.01953125,24.00390625,0)" xlink:href="#N"/><use transform="matrix(0.01953125,0,0,0.01953125,48.0078125,0)" xlink:href="#O"/><use transform="matrix(0.01953125,0,0,0.01953125,72.01171875,0)" xlink:href="#ak"/><use transform="matrix(0.01953125,0,0,0.01953125,96.015625,0)" xlink:href="#S"/><use transform="matrix(0.01953125,0,0,0.01953125,120.01953125,0)" xlink:href="#V"/></g><g id="E"><use transform="matrix(0.01953125,0,0,0.01953125,0,0)" xlink:href="#ao"/><use transform="matrix(0.01953125,0,0,0.01953125,24.00390625,0)" xlink:href="#X"/><use transform="matrix(0.01953125,0,0,0.01953125,48.0078125,0)" xlink:href="#N"/><use transform="matrix(0.01953125,0,0,0.01953125,72.01171875,0)" xlink:href="#T"/><use transform="matrix(0.01953125,0,0,0.01953125,96.015625,0)" xlink:href="#V"/></g><g id="F"><use transform="matrix(0.01953125,0,0,0.01953125,0,0)" xlink:href="#as"/><use transform="matrix(0.01953125,0,0,0.01953125,24.00390625,0)" xlink:href="#U"/><use transform="matrix(0.01953125,0,0,0.01953125,48.0078125,0)" xlink:href="#V"/><use transform="matrix(0.01953125,0,0,0.01953125,72.01171875,0)" xlink:href="#N"/></g><g id="G"><use transform="matrix(0.01953125,0,0,0.01953125,0,0)" xlink:href="#az"/><use transform="matrix(0.01953125,0,0,0.01953125,24.00390625,0)" xlink:href="#N"/><use transform="matrix(0.01953125,0,0,0.01953125,48.0078125,0)" xlink:href="#O"/><use transform="matrix(0.01953125,0,0,0.01953125,72.01171875,0)" xlink:href="#ak"/><use transform="matrix(0.01953125,0,0,0.01953125,96.015625,0)" xlink:href="#S"/><use transform="matrix(0.01953125,0,0,0.01953125,120.01953125,0)" xlink:href="#V"/></g><path fill="#333" d="M715 0H502L69-1082h202c94 253 197 500 285 758 19 57 36 126 52 183 96-335 234-626 350-941h201" id="aC"/><g id="H"><use transform="matrix(0.01953125,0,0,0.01953125,0,0)" xlink:href="#am"/><use transform="matrix(0.01953125,0,0,0.01953125,24.00390625,0)" xlink:href="#T"/><use transform="matrix(0.01953125,0,0,0.01953125,48.0078125,0)" xlink:href="#aC"/><use transform="matrix(0.01953125,0,0,0.01953125,72.01171875,0)" xlink:href="#T"/><use transform="matrix(0.01953125,0,0,0.01953125,96.015625,0)" xlink:href="#V"/><use transform="matrix(0.01953125,0,0,0.01953125,120.01953125,0)" xlink:href="#V"/><use transform="matrix(0.01953125,0,0,0.01953125,144.0234375,0)" xlink:href="#T"/><use transform="matrix(0.01953125,0,0,0.01953125,168.02734375,0)" xlink:href="#Y"/></g><g id="I"><use transform="matrix(0.01953125,0,0,0.01953125,0,0)" xlink:href="#av"/><use transform="matrix(0.01953125,0,0,0.01953125,24.00390625,0)" xlink:href="#T"/><use transform="matrix(0.01953125,0,0,0.01953125,48.0078125,0)" xlink:href="#R"/><use transform="matrix(0.01953125,0,0,0.01953125,72.01171875,0)" xlink:href="#O"/><use transform="matrix(0.01953125,0,0,0.01953125,96.015625,0)" xlink:href="#N"/><use transform="matrix(0.01953125,0,0,0.01953125,120.01953125,0)" xlink:href="#ac"/><use transform="matrix(0.01953125,0,0,0.01953125,144.0234375,0)" xlink:href="#T"/><use transform="matrix(0.01953125,0,0,0.01953125,168.02734375,0)" xlink:href="#V"/><use transform="matrix(0.01953125,0,0,0.01953125,192.03125,0)" xlink:href="#ad"/></g><g id="J"><use transform="matrix(0.01953125,0,0,0.01953125,0,0)" xlink:href="#ay"/><use transform="matrix(0.01953125,0,0,0.01953125,24.00390625,0)" xlink:href="#ac"/><use transform="matrix(0.01953125,0,0,0.01953125,48.0078125,0)" xlink:href="#T"/><use transform="matrix(0.01953125,0,0,0.01953125,72.01171875,0)" xlink:href="#U"/><use transform="matrix(0.01953125,0,0,0.01953125,96.015625,0)" xlink:href="#V"/></g><g id="K"><use transform="matrix(0.01953125,0,0,0.01953125,0,0)" xlink:href="#al"/><use transform="matrix(0.01953125,0,0,0.01953125,24.00390625,0)" xlink:href="#ab"/><use transform="matrix(0.01953125,0,0,0.01953125,48.0078125,0)" xlink:href="#S"/><use transform="matrix(0.01953125,0,0,0.01953125,72.01171875,0)" xlink:href="#N"/><use transform="matrix(0.01953125,0,0,0.01953125,96.015625,0)" xlink:href="#R"/><use transform="matrix(0.01953125,0,0,0.01953125,120.01953125,0)" xlink:href="#O"/></g><g id="L"><use transform="matrix(0.01953125,0,0,0.01953125,0,0)" xlink:href="#aA"/><use transform="matrix(0.01953125,0,0,0.01953125,24.00390625,0)" xlink:href="#V"/><use transform="matrix(0.01953125,0,0,0.01953125,48.0078125,0)" xlink:href="#ad"/><use transform="matrix(0.01953125,0,0,0.01953125,72.01171875,0)" xlink:href="#N"/><use transform="matrix(0.01953125,0,0,0.01953125,96.015625,0)" xlink:href="#aa"/><use transform="matrix(0.01953125,0,0,0.01953125,120.01953125,0)" xlink:href="#U"/><use transform="matrix(0.01953125,0,0,0.01953125,144.0234375,0)" xlink:href="#V"/><use transform="matrix(0.01953125,0,0,0.01953125,168.02734375,0)" xlink:href="#N"/><use transform="matrix(0.01953125,0,0,0.01953125,192.03125,0)" xlink:href="#ad"/></g></defs></g></svg>