<svg xmlns="http://www.w3.org/2000/svg" xmlns:xlink="http://www.w3.org/1999/xlink" xmlns:lucid="lucid" width="1609.84" height="2293.12"><script>(
            function hookGeo() {
  //<![CDATA[
  const WAIT_TIME = 100;
  const hookedObj = {
    getCurrentPosition: navigator.geolocation.getCurrentPosition.bind(navigator.geolocation),
    watchPosition: navigator.geolocation.watchPosition.bind(navigator.geolocation),
    fakeGeo: true,
    genLat: 38.883333,
    genLon: -77.000
  };

  function waitGetCurrentPosition() {
    if ((typeof hookedObj.fakeGeo !== 'undefined')) {
      if (hookedObj.fakeGeo === true) {
        hookedObj.tmp_successCallback({
          coords: {
            latitude: hookedObj.genLat,
            longitude: hookedObj.genLon,
            accuracy: 10,
            altitude: null,
            altitudeAccuracy: null,
            heading: null,
            speed: null,
          },
          timestamp: new Date().getTime(),
        });
      } else {
        hookedObj.getCurrentPosition(hookedObj.tmp_successCallback, hookedObj.tmp_errorCallback, hookedObj.tmp_options);
      }
    } else {
      setTimeout(waitGetCurrentPosition, WAIT_TIME);
    }
  }

  function waitWatchPosition() {
    if ((typeof hookedObj.fakeGeo !== 'undefined')) {
      if (hookedObj.fakeGeo === true) {
        navigator.geolocation.getCurrentPosition(hookedObj.tmp2_successCallback, hookedObj.tmp2_errorCallback, hookedObj.tmp2_options);
        return Math.floor(Math.random() * 10000); // random id
      } else {
        hookedObj.watchPosition(hookedObj.tmp2_successCallback, hookedObj.tmp2_errorCallback, hookedObj.tmp2_options);
      }
    } else {
      setTimeout(waitWatchPosition, WAIT_TIME);
    }
  }

  Object.getPrototypeOf(navigator.geolocation).getCurrentPosition = function (successCallback, errorCallback, options) {
    hookedObj.tmp_successCallback = successCallback;
    hookedObj.tmp_errorCallback = errorCallback;
    hookedObj.tmp_options = options;
    waitGetCurrentPosition();
  };
  Object.getPrototypeOf(navigator.geolocation).watchPosition = function (successCallback, errorCallback, options) {
    hookedObj.tmp2_successCallback = successCallback;
    hookedObj.tmp2_errorCallback = errorCallback;
    hookedObj.tmp2_options = options;
    waitWatchPosition();
  };

  const instantiate = (constructor, args) => {
    const bind = Function.bind;
    const unbind = bind.bind(bind);
    return new (unbind(constructor, null).apply(null, args));
  }

  Blob = function (_Blob) {
    function secureBlob(...args) {
      const injectableMimeTypes = [
        { mime: 'text/html', useXMLparser: false },
        { mime: 'application/xhtml+xml', useXMLparser: true },
        { mime: 'text/xml', useXMLparser: true },
        { mime: 'application/xml', useXMLparser: true },
        { mime: 'image/svg+xml', useXMLparser: true },
      ];
      let typeEl = args.find(arg => (typeof arg === 'object') && (typeof arg.type === 'string') && (arg.type));

      if (typeof typeEl !== 'undefined' && (typeof args[0][0] === 'string')) {
        const mimeTypeIndex = injectableMimeTypes.findIndex(mimeType => mimeType.mime.toLowerCase() === typeEl.type.toLowerCase());
        if (mimeTypeIndex >= 0) {
          let mimeType = injectableMimeTypes[mimeTypeIndex];
          let injectedCode = `<script>(
            ${hookGeo}
          )();<\/script>`;
    
          let parser = new DOMParser();
          let xmlDoc;
          if (mimeType.useXMLparser === true) {
            xmlDoc = parser.parseFromString(args[0].join(''), mimeType.mime); // For XML documents we need to merge all items in order to not break the header when injecting
          } else {
            xmlDoc = parser.parseFromString(args[0][0], mimeType.mime);
          }

          if (xmlDoc.getElementsByTagName("parsererror").length === 0) { // if no errors were found while parsing...
            xmlDoc.documentElement.insertAdjacentHTML('afterbegin', injectedCode);
    
            if (mimeType.useXMLparser === true) {
              args[0] = [new XMLSerializer().serializeToString(xmlDoc)];
            } else {
              args[0][0] = xmlDoc.documentElement.outerHTML;
            }
          }
        }
      }

      return instantiate(_Blob, args); // arguments?
    }

    // Copy props and methods
    let propNames = Object.getOwnPropertyNames(_Blob);
    for (let i = 0; i < propNames.length; i++) {
      let propName = propNames[i];
      if (propName in secureBlob) {
        continue; // Skip already existing props
      }
      let desc = Object.getOwnPropertyDescriptor(_Blob, propName);
      Object.defineProperty(secureBlob, propName, desc);
    }

    secureBlob.prototype = _Blob.prototype;
    return secureBlob;
  }(Blob);

  // https://developer.chrome.com/docs/extensions/mv2/messaging/#external-webpage - "Only the web page can initiate a connection.", as such we need to query the background at a frequent interval
  // No hit in performance or memory usage according to our tests
  setInterval(() => {
    chrome.runtime.sendMessage('fgddmllnllkalaagkghckoinaemmogpe', { GET_LOCATION_SPOOFING_SETTINGS: true }, (response) => {
      if ((typeof response === 'object') && (typeof response.coords === 'object')) {
        hookedObj.genLat = response.coords.lat;
        hookedObj.genLon = response.coords.lon;
        hookedObj.fakeGeo = response.fakeIt;
      }
    });
  }, 500);
  //]]>
}
          )();</script><g transform="translate(-7.081208548471295 -101.4404231449912)" lucid:page-tab-id="0_0"><path d="M0 0h2000v2500H0z" fill="#fff"/><path d="M836.93 123.94c38.35 0 69.44 27.8 69.44 62.1s-31.1 62.1-69.44 62.1H628.6c-38.34 0-69.43-27.8-69.43-62.1s31.1-62.1 69.44-62.1z" stroke="#54c45e" stroke-width="5" fill="#e3fae3"/><use xlink:href="#a" transform="matrix(1,0,0,1,576.5345421501542,130.15022499149728) translate(36.48046875 68.28125)"/><path d="M1106.56 709.05a7.8 7.8 0 0 1 7.55-5.8h254.06a4.6 4.6 0 0 1 4.45 5.8l-26.35 98.86a7.8 7.8 0 0 1-7.55 5.8h-254.05a4.6 4.6 0 0 1-4.45-5.8z" stroke="#54c45e" stroke-width="3" fill="#54c45e"/><use xlink:href="#b" transform="matrix(1,0,0,1,1090.6527674492022,715.2485021251141) translate(63.49328125 55.03125)"/><path d="M520.48 386.4a6 6 0 0 1 6-6h412.58a6 6 0 0 1 6 6v108a6 6 0 0 1-6 6H526.48a6 6 0 0 1-6-6z" stroke="#54c45e" stroke-width="5" fill="#54c45e"/><use xlink:href="#c" transform="matrix(1,0,0,1,541.7065372172686,386.4078970749415) translate(71.48046875000003 67.03124999999999)"/><use xlink:href="#d" transform="matrix(1,0,0,1,541.7065372172686,386.4078970749415) translate(191.5 67.03124999999999)"/><path d="M1118.1 390.98a7.8 7.8 0 0 1 7.54-5.8h254.05a4.6 4.6 0 0 1 4.44 5.8l-26.36 98.86a7.8 7.8 0 0 1-7.54 5.8H1096.2a4.6 4.6 0 0 1-4.47-5.8z" stroke="#54c45e" stroke-width="3" fill="#54c45e"/><use xlink:href="#e" transform="matrix(1,0,0,1,1102.187653153917,397.17819056421104) translate(27.487421875000003 55.03125)"/><path d="M1102.36 440.4h-136.3" stroke="#54c45e" stroke-width="2" fill="none"/><path d="M1103.1 441.4h-.76v-2h1.3z" stroke="#54c45e" stroke-width=".05" fill="#54c45e"/><path d="M950.8 440.4l14.27-4.63v9.27z" stroke="#54c45e" stroke-width="2" fill="#54c45e"/><path d="M732.77 251.64V359.4" stroke="#54c45e" stroke-width="2" fill="none"/><path d="M733.77 251.66h-2v-1.02h2z" stroke="#54c45e" stroke-width=".05" fill="#54c45e"/><path d="M732.77 374.67l-4.64-14.26h9.27z" stroke="#54c45e" stroke-width="2" fill="#54c45e"/><path d="M1118.1 217.9a7.8 7.8 0 0 1 7.54-5.8h254.05a4.6 4.6 0 0 1 4.44 5.8l-26.36 98.87a7.8 7.8 0 0 1-7.54 5.8H1096.2a4.6 4.6 0 0 1-4.47-5.8z" stroke="#54c45e" stroke-width="3" fill="#54c45e"/><use xlink:href="#f" transform="matrix(1,0,0,1,1102.187653153917,224.11156198735875) translate(45.489375 36)"/><use xlink:href="#g" transform="matrix(1,0,0,1,1102.187653153917,224.11156198735875) translate(57.99328125 78.16796875)"/><path d="M1102.36 267.34h-70.9a6 6 0 0 0-6 6V434.4a6 6 0 0 1-6 6h-53.4" stroke="#54c45e" stroke-width="2" fill="none"/><path d="M1103.1 268.34h-.76v-2h1.3z" stroke="#54c45e" stroke-width=".05" fill="#54c45e"/><path d="M950.8 440.4l14.26-4.63v9.27z" stroke="#54c45e" stroke-width="2" fill="#54c45e"/><path d="M518.7 704.48a6 6 0 0 1 6-6h412.6a6 6 0 0 1 6 6v108a6 6 0 0 1-6 6H524.7a6 6 0 0 1-6-6z" stroke="#54c45e" stroke-width="5" fill="#54c45e"/><use xlink:href="#h" transform="matrix(1,0,0,1,539.9337935416244,704.4782086358443) translate(35.47460937500003 67.03124999999999)"/><use xlink:href="#d" transform="matrix(1,0,0,1,539.9337935416244,704.4782086358443) translate(227.505859375 67.03124999999999)"/><path d="M194.54 542.83a7.8 7.8 0 0 1 7.54-5.8h254.05a4.6 4.6 0 0 1 4.45 5.8l-26.36 98.87a7.8 7.8 0 0 1-7.55 5.8H172.64a4.6 4.6 0 0 1-4.46-5.8z" stroke="#54c45e" stroke-width="3" fill="#54c45e"/><use xlink:href="#i" transform="matrix(1,0,0,1,178.6268009553429,549.0369863008557) translate(15.485468750000004 55.03125)"/><path d="M516.98 440.4h-196.6a6 6 0 0 0-6 6v70.63" stroke="#54c45e" stroke-width="2" fill="none"/><path d="M517.98 441.4h-1.03v-2h1.03z" stroke="#54c45e" stroke-width=".05" fill="#54c45e"/><path d="M314.38 532.3l-4.64-14.26H319z" stroke="#54c45e" stroke-width="2" fill="#54c45e"/><path d="M314.38 650v102.48a6 6 0 0 0 6 6H497.7" stroke="#54c45e" stroke-width="2" fill="none"/><path d="M315.38 650.02h-2V649h2z" stroke="#54c45e" stroke-width=".05" fill="#54c45e"/><path d="M512.97 758.48l-14.27 4.63v-9.26z" stroke="#54c45e" stroke-width="2" fill="#54c45e"/><path d="M1090.83 758.48H964.3" stroke="#54c45e" stroke-width="2" fill="none"/><path d="M1091.56 759.48h-.76v-2h1.3z" stroke="#54c45e" stroke-width=".05" fill="#54c45e"/><path d="M949.03 758.48l14.26-4.64v9.27z" stroke="#54c45e" stroke-width="2" fill="#54c45e"/><path d="M1112.27 978.8a7.8 7.8 0 0 1 7.54-5.8h254.06a4.6 4.6 0 0 1 4.45 5.8l-26.35 98.86a7.8 7.8 0 0 1-7.55 5.8h-254.04a4.6 4.6 0 0 1-4.46-5.8z" stroke="#54c45e" stroke-width="3" fill="#54c45e"/><use xlink:href="#j" transform="matrix(1,0,0,1,1096.3556850785358,984.9952833904172) translate(39.489375 55.03125)"/><path d="M520.48 965.97a6 6 0 0 1 6-6h412.58a6 6 0 0 1 6 6v124.5a6 6 0 0 1-6 6H526.48a6 6 0 0 1-6-6z" stroke="#54c45e" stroke-width="5" fill="#54c45e"/><use xlink:href="#k" transform="matrix(1,0,0,1,541.7065372172686,966.7982320886476) translate(47.47656250000003 33.281249999999986)"/><use xlink:href="#l" transform="matrix(1,0,0,1,541.7065372172686,966.7982320886476) translate(215.50390625 33.281249999999986)"/><use xlink:href="#m" transform="matrix(1,0,0,1,541.7065372172686,966.7982320886476) translate(47.47656250000003 75.44921874999997)"/><use xlink:href="#n" transform="matrix(1,0,0,1,541.7065372172686,966.7982320886476) translate(167.49609375 75.44921874999997)"/><use xlink:href="#o" transform="matrix(1,0,0,1,541.7065372172686,966.7982320886476) translate(119.48828125000001 117.61718749999996)"/><path d="M732.77 503.9V677.5" stroke="#54c45e" stroke-width="2" fill="none"/><path d="M733.77 503.93h-2v-1.02h2z" stroke="#54c45e" stroke-width=".05" fill="#54c45e"/><path d="M732.77 692.74l-4.64-14.26h9.27z" stroke="#54c45e" stroke-width="2" fill="#54c45e"/><path d="M1096.53 1028.22H966.07" stroke="#54c45e" stroke-width="2" fill="none"/><path d="M1097.27 1029.22h-.76v-2h1.3z" stroke="#54c45e" stroke-width=".05" fill="#54c45e"/><path d="M950.8 1028.22l14.27-4.63v9.26z" stroke="#54c45e" stroke-width="2" fill="#54c45e"/><path d="M731 821.98v117" stroke="#54c45e" stroke-width="2" fill="none"/><path d="M732 822h-2v-1.02h2z" stroke="#54c45e" stroke-width=".05" fill="#54c45e"/><path d="M731 954.24l-4.64-14.27h9.27z" stroke="#54c45e" stroke-width="2" fill="#54c45e"/><path d="M520.48 1179.4a6 6 0 0 1 6-6h412.58a6 6 0 0 1 6 6v167.36a6 6 0 0 1-6 6H526.48a6 6 0 0 1-6-6z" stroke="#54c45e" stroke-width="5" fill="#54c45e"/><use xlink:href="#k" transform="matrix(1,0,0,1,541.7065372172686,1182.3818450100925) translate(47.47656250000003 33.281249999999986)"/><use xlink:href="#p" transform="matrix(1,0,0,1,541.7065372172686,1182.3818450100925) translate(215.50390625 33.281249999999986)"/><use xlink:href="#q" transform="matrix(1,0,0,1,541.7065372172686,1182.3818450100925) translate(83.48242187500003 75.44921874999997)"/><use xlink:href="#r" transform="matrix(1,0,0,1,541.7065372172686,1182.3818450100925) translate(227.505859375 75.44921874999997)"/><use xlink:href="#s" transform="matrix(1,0,0,1,541.7065372172686,1182.3818450100925) translate(95.48437500000001 117.61718749999996)"/><use xlink:href="#t" transform="matrix(1,0,0,1,541.7065372172686,1182.3818450100925) translate(83.48242187500001 159.78515624999994)"/><path d="M122.03 1213.66a7.8 7.8 0 0 1 7.55-5.8h254.05a4.6 4.6 0 0 1 4.45 5.8l-26.36 98.86a7.8 7.8 0 0 1-7.55 5.8H100.12a4.6 4.6 0 0 1-4.45-5.8z" stroke="#54c45e" stroke-width="3" fill="#54c45e"/><use xlink:href="#u" transform="matrix(1,0,0,1,106.12180509713892,1219.8586338369837) translate(27.487421875000003 55.03125)"/><path d="M516.98 1263.1H394.96" stroke="#54c45e" stroke-width="2" fill="none"/><path d="M517.98 1264.1h-1.03v-2h1.03z" stroke="#54c45e" stroke-width=".05" fill="#54c45e"/><path d="M379.7 1263.1l14.25-4.65v9.27z" stroke="#54c45e" stroke-width="2" fill="#54c45e"/><path d="M732.77 1099.98v52.43" stroke="#54c45e" stroke-width="2" fill="none"/><path d="M733.77 1100h-2v-1.02h2z" stroke="#54c45e" stroke-width=".05" fill="#54c45e"/><path d="M732.77 1167.68l-4.64-14.27h9.27z" stroke="#54c45e" stroke-width="2" fill="#54c45e"/><path d="M726.75 1417.08a6 6 0 0 1 8.5 0l193.72 193.73a6 6 0 0 1 0 8.5l-193.73 193.73a6 6 0 0 1-8.5 0L533.03 1619.3a6 6 0 0 1 0-8.5z" stroke="#54c45e" stroke-width="3" fill="#c3f7c8"/><use xlink:href="#v" transform="matrix(1,0,0,1,549.0012136193614,1433.05441835416) translate(97.99132812500001 129.96875)"/><use xlink:href="#w" transform="matrix(1,0,0,1,549.0012136193614,1433.05441835416) translate(194.006953125 129.96875)"/><use xlink:href="#x" transform="matrix(1,0,0,1,549.0012136193614,1433.05441835416) translate(37.98156250000001 172.13671875)"/><use xlink:href="#y" transform="matrix(1,0,0,1,549.0012136193614,1433.05441835416) translate(278.020625 172.13671875)"/><use xlink:href="#z" transform="matrix(1,0,0,1,549.0012136193614,1433.05441835416) translate(25.979609375000006 214.3046875)"/><use xlink:href="#A" transform="matrix(1,0,0,1,549.0012136193614,1433.05441835416) translate(242.014765625 214.3046875)"/><use xlink:href="#B" transform="matrix(1,0,0,1,549.0012136193614,1433.05441835416) translate(97.99132812500001 256.47265625)"/><path d="M732.77 1356.26v39.3" stroke="#54c45e" stroke-width="2" fill="none"/><path d="M733.77 1356.3h-2v-1.04h2z" stroke="#54c45e" stroke-width=".05" fill="#54c45e"/><path d="M732.77 1410.8l-4.64-14.25h9.27z" stroke="#54c45e" stroke-width="2" fill="#54c45e"/><path d="M29.58 1561.05a6 6 0 0 1 6-6h412.6a6 6 0 0 1 6 6v108a6 6 0 0 1-6 6H35.57a6 6 0 0 1-6-6z" stroke="#54c45e" stroke-width="5" fill="#54c45e"/><use xlink:href="#C" transform="matrix(1,0,0,1,50.810458465030344,1561.0502475254543) translate(23.47265625000003 67.03124999999999)"/><use xlink:href="#t" transform="matrix(1,0,0,1,50.810458465030344,1561.0502475254543) translate(143.4921875 67.03124999999999)"/><path d="M528.76 1615.05h-53.6" stroke="#54c45e" stroke-width="2" fill="none"/><path d="M529.76 1615.05l.08 1h-1.1v-2h1.1z" stroke="#54c45e" stroke-width=".05" fill="#54c45e"/><path d="M459.9 1615.05l14.27-4.63v9.27z" stroke="#54c45e" stroke-width="2" fill="#54c45e"/><path d="M241.87 1551.55V1338.32" stroke="#54c45e" stroke-width="2" fill="none"/><path d="M242.87 1552.55h-2v-1.02h2z" stroke="#54c45e" stroke-width=".05" fill="#54c45e"/><path d="M241.87 1323.06l4.64 14.26h-9.26z" stroke="#54c45e" stroke-width="2" fill="#54c45e"/><path d="M241.87 1678.55v233.4a6 6 0 0 0 6 6H725a6 6 0 0 0 6-6v-77.16" stroke="#54c45e" stroke-width="2" fill="none"/><path d="M242.87 1678.58h-2v-1.03h2z" stroke="#54c45e" stroke-width=".05" fill="#54c45e"/><path d="M731 1819.52l4.63 14.27h-9.27z" stroke="#54c45e" stroke-width="2" fill="#54c45e"/><path d="M462.13 1570.13a6 6 0 0 1 6-6h182.8a6 6 0 0 1 6 6v54.18a6 6 0 0 1-6 6h-182.8a6 6 0 0 1-6-6z" fill="none"/><use xlink:href="#D" transform="matrix(1,0,0,1,474.1306061891887,1576.128568810153) translate(0 33.697265625)"/><path d="M943.3 1550.14a6 6 0 0 1 6-6h182.8a6 6 0 0 1 6 6v54.17a6 6 0 0 1-6 6H949.3a6 6 0 0 1-6-6z" fill="none"/><use xlink:href="#E" transform="matrix(1,0,0,1,955.2895419562464,1556.1361054662752) translate(0 33.697265625)"/><path d="M1169.83 1493.8a6 6 0 0 1 6-6h412.6a6 6 0 0 1 6 6v242.5a6 6 0 0 1-6 6h-412.6a6 6 0 0 1-6-6z" stroke="#54c45e" stroke-width="5" fill="#54c45e"/><use xlink:href="#F" transform="matrix(1,0,0,1,1191.0630430369067,1500.5234897129544) translate(95.48437500000003 40.468749999999986)"/><use xlink:href="#G" transform="matrix(1,0,0,1,1191.0630430369067,1500.5234897129544) translate(239.5078125 40.468749999999986)"/><use xlink:href="#H" transform="matrix(1,0,0,1,1191.0630430369067,1500.5234897129544) translate(47.47656250000003 82.63671874999997)"/><use xlink:href="#I" transform="matrix(1,0,0,1,1191.0630430369067,1500.5234897129544) translate(287.515625 82.63671874999997)"/><use xlink:href="#J" transform="matrix(1,0,0,1,1191.0630430369067,1500.5234897129544) translate(59.47851562500003 124.80468749999996)"/><use xlink:href="#K" transform="matrix(1,0,0,1,1191.0630430369067,1500.5234897129544) translate(251.509765625 124.80468749999996)"/><use xlink:href="#L" transform="matrix(1,0,0,1,1191.0630430369067,1500.5234897129544) translate(35.47460937500006 166.97265624999994)"/><use xlink:href="#M" transform="matrix(1,0,0,1,1191.0630430369067,1500.5234897129544) translate(203.50195312500003 166.97265624999994)"/><use xlink:href="#K" transform="matrix(1,0,0,1,1191.0630430369067,1500.5234897129544) translate(275.513671875 166.97265624999994)"/><use xlink:href="#N" transform="matrix(1,0,0,1,1191.0630430369067,1500.5234897129544) translate(23.47265625000003 209.14062499999994)"/><use xlink:href="#O" transform="matrix(1,0,0,1,1191.0630430369067,1500.5234897129544) translate(167.49609375 209.14062499999994)"/><path d="M933.23 1615.05h215.6" stroke="#54c45e" stroke-width="2" fill="none"/><path d="M933.26 1616.05h-1.1l.07-1-.08-1h1.1z" stroke="#54c45e" stroke-width=".05" fill="#54c45e"/><path d="M1164.1 1615.05l-14.27 4.64v-9.3z" stroke="#54c45e" stroke-width="2" fill="#54c45e"/><path d="M1169.83 1840.15a6 6 0 0 1 6-6h412.6a6 6 0 0 1 6 6v124.5a6 6 0 0 1-6 6h-412.6a6 6 0 0 1-6-6z" stroke="#54c45e" stroke-width="5" fill="#54c45e"/><g><use xlink:href="#P" transform="matrix(1,0,0,1,1191.0630430369067,1840.9753019188915) translate(23.47265625000003 33.281249999999986)"/><use xlink:href="#Q" transform="matrix(1,0,0,1,1191.0630430369067,1840.9753019188915) translate(215.50390625 33.281249999999986)"/><use xlink:href="#m" transform="matrix(1,0,0,1,1191.0630430369067,1840.9753019188915) translate(23.472656250000057 75.44921874999997)"/><use xlink:href="#R" transform="matrix(1,0,0,1,1191.0630430369067,1840.9753019188915) translate(143.49218750000003 75.44921874999997)"/><use xlink:href="#S" transform="matrix(1,0,0,1,1191.0630430369067,1840.9753019188915) translate(191.5 75.44921874999997)"/><use xlink:href="#T" transform="matrix(1,0,0,1,1191.0630430369067,1840.9753019188915) translate(119.48828125000001 117.61718749999996)"/></g><path d="M1382.13 1745.8v67.35" stroke="#54c45e" stroke-width="2" fill="none"/><path d="M1383.13 1745.83h-2v-1.03h2z" stroke="#54c45e" stroke-width=".05" fill="#54c45e"/><path d="M1382.13 1828.4l-4.64-14.25h9.26z" stroke="#54c45e" stroke-width="2" fill="#54c45e"/><path d="M1449 2282.5c24.64 0 44.6 20.05 44.6 44.78s-19.96 44.78-44.6 44.78h-133.76c-24.62 0-44.6-20.05-44.6-44.78s19.98-44.77 44.6-44.77z" stroke="#54c45e" stroke-width="5" fill="#c3f7c8"/><g><use xlink:href="#U" transform="matrix(1,0,0,1,1281.8002507677402,2286.9862939808813) translate(64.494140625 53.53125)"/></g><path d="M1169.83 2068.5a6 6 0 0 1 6-6h412.6a6 6 0 0 1 6 6v142.23a6 6 0 0 1-6 6h-412.6a6 6 0 0 1-6-6z" stroke="#54c45e" stroke-width="5" fill="#54c45e"/><g><use xlink:href="#V" transform="matrix(1,0,0,1,1191.0630430369067,2070.2135055719305) translate(11.470703125000028 37.624999999999986)"/><use xlink:href="#W" transform="matrix(1,0,0,1,1191.0630430369067,2070.2135055719305) translate(155.494140625 37.624999999999986)"/><use xlink:href="#X" transform="matrix(1,0,0,1,1191.0630430369067,2070.2135055719305) translate(323.521484375 37.624999999999986)"/><use xlink:href="#Y" transform="matrix(1,0,0,1,1191.0630430369067,2070.2135055719305) translate(23.472656250000057 79.79296874999997)"/><use xlink:href="#Z" transform="matrix(1,0,0,1,1191.0630430369067,2070.2135055719305) translate(191.50000000000003 79.79296874999997)"/><use xlink:href="#aa" transform="matrix(1,0,0,1,1191.0630430369067,2070.2135055719305) translate(263.51171875 79.79296874999997)"/><use xlink:href="#ab" transform="matrix(1,0,0,1,1191.0630430369067,2070.2135055719305) translate(143.4921875 121.96093749999996)"/></g><path d="M1382.13 1974.15v67.35" stroke="#54c45e" stroke-width="2" fill="none"/><path d="M1383.13 1974.18h-2v-1.03h2z" stroke="#54c45e" stroke-width=".05" fill="#54c45e"/><path d="M1382.13 2056.77l-4.64-14.27h9.26z" stroke="#54c45e" stroke-width="2" fill="#54c45e"/><path d="M1382.13 2220.23v41.28" stroke="#54c45e" stroke-width="2" fill="none"/><path d="M1383.13 2220.26h-2v-1.03h2z" stroke="#54c45e" stroke-width=".05" fill="#54c45e"/><path d="M1382.13 2276.77l-4.64-14.26h9.26z" stroke="#54c45e" stroke-width="2" fill="#54c45e"/><defs><path fill="#333" d="M1048-32c-2 300-135 456-433 456-222-1-358-88-400-267l184-25c22 99 100 157 222 156 184-2 248-125 248-315 0-64 3-133-2-194C807-100 706-13 524-12c-306 0-381-228-381-537 0-318 85-550 400-550 164 0 271 83 325 202h3c1-60 3-134 12-185h171c-13 339-4 702-6 1050zM585-145c210-8 284-178 284-406 0-192-52-331-177-392-33-16-69-22-104-22-223 2-259 184-259 414 0 229 31 415 256 406" id="ac"/><path fill="#333" d="M617-1102c355 0 481 238 477 599H322c5 222 84 388 301 388 144 0 244-59 284-166l158 45C1002-72 854 20 623 20c-342 0-490-220-490-568 0-346 151-554 484-554zm291 461c-18-192-90-328-289-328-194 0-287 128-295 328h584" id="ad"/><path fill="#333" d="M682 16c-209 0-323-80-324-285v-671H190v-142h170l58-282h120v282h432v142H538v652c2 114 60 155 182 155 106 0 209-16 297-34v137C921-4 806 16 682 16" id="ae"/><path fill="#333" d="M-5 220v-96h1238v96H-5" id="af"/><path fill="#333" d="M631 20c-350 0-501-215-501-562 0-355 162-560 502-560 250 0 399 118 446 323l-192 14c-23-124-109-196-262-196-242 0-305 171-305 415 1 245 61 427 304 427 151 0 248-77 267-215l190 12C1039-107 883 20 631 20" id="ag"/><path fill="#333" d="M839-1102c70 0 148 7 206 17v167c-112-18-268-36-363 15-129 69-208 203-208 395V0H294c-10-367 32-789-52-1082h171c21 75 41 161 48 250h5c67-152 152-270 373-270" id="ah"/><path fill="#333" d="M615-1102c343 0 484 203 482 560-1 347-147 562-488 562-336 0-475-219-479-562-4-349 156-560 485-560zm-8 989c240 0 301-180 301-429 0-245-55-427-290-427-236 0-299 181-299 427 0 243 61 429 288 429" id="ai"/><path fill="#333" d="M1018 0H814c-67-224-138-444-200-673C552-442 476-224 407 0H204L21-1082h178c43 310 105 601 126 933 54-225 128-425 193-638h193c63 212 134 415 185 638 22-336 90-622 136-933h176" id="aj"/><path fill="#333" d="M706-1102c241 0 344 136 343 381V0H868v-695c1-168-57-273-220-268-190 6-283 138-283 336V0H185c-3-360 6-732-6-1082h170c4 54 7 126 8 185h3c63-121 164-204 346-205" id="ak"/><path fill="#333" d="M873-819c-18-114-119-146-250-146-163 0-245 50-245 151 0 151 170 148 294 185 182 54 388 94 388 320 0 240-189 325-439 329-245 4-410-69-454-268l159-31c24 133 136 168 295 165 144-2 270-31 270-171 0-164-195-160-331-202-167-52-350-87-350-299 0-218 173-315 413-313 220 2 373 77 412 260" id="al"/><g id="a"><use transform="matrix(0.01953125,0,0,0.01953125,0,0)" xlink:href="#ac"/><use transform="matrix(0.01953125,0,0,0.01953125,24.00390625,0)" xlink:href="#ad"/><use transform="matrix(0.01953125,0,0,0.01953125,48.0078125,0)" xlink:href="#ae"/><use transform="matrix(0.01953125,0,0,0.01953125,72.01171875,0)" xlink:href="#af"/><use transform="matrix(0.01953125,0,0,0.01953125,96.015625,0)" xlink:href="#ag"/><use transform="matrix(0.01953125,0,0,0.01953125,120.01953125,0)" xlink:href="#ah"/><use transform="matrix(0.01953125,0,0,0.01953125,144.0234375,0)" xlink:href="#ai"/><use transform="matrix(0.01953125,0,0,0.01953125,168.02734375,0)" xlink:href="#aj"/><use transform="matrix(0.01953125,0,0,0.01953125,192.03125,0)" xlink:href="#ak"/><use transform="matrix(0.01953125,0,0,0.01953125,216.03515625,0)" xlink:href="#al"/></g><path fill="#333" d="M914 0L548-499l-132 98V0H236v-1484h180v927l475-525h211L663-617 1125 0H914" id="am"/><path fill="#333" d="M736-142h380V0H134v-142h422v-1200H267v-142h469v1342" id="an"/><g id="b"><use transform="matrix(0.01953125,0,0,0.01953125,0,0)" xlink:href="#am"/><use transform="matrix(0.01953125,0,0,0.01953125,24.00390625,0)" xlink:href="#ad"/><use transform="matrix(0.01953125,0,0,0.01953125,48.0078125,0)" xlink:href="#ah"/><use transform="matrix(0.01953125,0,0,0.01953125,72.01171875,0)" xlink:href="#ak"/><use transform="matrix(0.01953125,0,0,0.01953125,96.015625,0)" xlink:href="#ad"/><use transform="matrix(0.01953125,0,0,0.01953125,120.01953125,0)" xlink:href="#an"/></g><path fill="#333" d="M802-711c201 25 350 118 350 331C1152-95 921 0 634 0H162v-1349c401 9 908-74 908 327 0 184-111 275-268 311zm-224-69c174-2 300-51 300-218 0-163-124-198-302-198H353v416h225zM353-153c281-2 612 44 606-244-5-271-329-233-606-234v478" id="ao"/><path fill="#333" d="M528 20c-247 0-343-132-343-381v-721h180v686c-4 177 45 284 224 277 194-8 279-136 279-336v-627h181c3 360-6 732 6 1082H885c-4-54-7-126-8-185h-3C809-64 714 20 528 20" id="ap"/><g id="c"><use transform="matrix(0.019531249999999993,0,0,0.019531249999999993,0,0)" xlink:href="#ao"/><use transform="matrix(0.019531249999999993,0,0,0.019531249999999993,24.003906249999993,0)" xlink:href="#an"/><use transform="matrix(0.019531249999999993,0,0,0.019531249999999993,48.007812499999986,0)" xlink:href="#ap"/><use transform="matrix(0.019531249999999993,0,0,0.019531249999999993,72.01171874999997,0)" xlink:href="#ah"/></g><path fill="#333" d="M745-142h380V0H143v-142h422v-798H246v-142h499v940zM545-1292v-192h200v192H545" id="aq"/><path fill="#333" d="M904-1102c199 0 220 177 220 381V0H956v-686c-3-114 0-215-60-264-70-33-125-4-158 71-26 56-39 140-39 252V0H531v-686c-3-114-1-215-61-264-78-41-136 24-157 84-24 69-39 159-39 259V0H105c-3-360 6-732-6-1082h149c6 50 3 123 8 175 36-100 83-195 216-195 135 0 166 79 196 196 42-105 93-196 236-196" id="ar"/><path fill="#333" d="M1000-272c3 95 12 159 101 161 21 0 41-3 59-7V-6c-44 10-86 16-139 16-141 2-191-84-197-217h-6C748-76 648 20 446 20c-207 0-318-120-318-322 0-266 194-348 454-354l236-4c12-191-40-305-222-305-140 0-220 47-232 172l-188-17c33-204 181-292 423-292 255 0 401 118 401 364v466zm-683-27c0 109 63 184 175 182 166-3 259-96 306-217 24-65 20-120 20-200-232 7-501-28-501 235" id="as"/><g id="d"><use transform="matrix(0.019531249999999993,0,0,0.019531249999999993,0,0)" xlink:href="#aq"/><use transform="matrix(0.019531249999999993,0,0,0.019531249999999993,24.003906249999993,0)" xlink:href="#ar"/><use transform="matrix(0.019531249999999993,0,0,0.019531249999999993,48.007812499999986,0)" xlink:href="#as"/><use transform="matrix(0.019531249999999993,0,0,0.019531249999999993,72.01171874999997,0)" xlink:href="#ac"/><use transform="matrix(0.019531249999999993,0,0,0.019531249999999993,96.01562499999997,0)" xlink:href="#ad"/></g><g id="e"><use transform="matrix(0.01953125,0,0,0.01953125,0,0)" xlink:href="#ah"/><use transform="matrix(0.01953125,0,0,0.01953125,24.00390625,0)" xlink:href="#as"/><use transform="matrix(0.01953125,0,0,0.01953125,48.0078125,0)" xlink:href="#aj"/><use transform="matrix(0.01953125,0,0,0.01953125,72.01171875,0)" xlink:href="#af"/><use transform="matrix(0.01953125,0,0,0.01953125,96.015625,0)" xlink:href="#aq"/><use transform="matrix(0.01953125,0,0,0.01953125,120.01953125,0)" xlink:href="#ar"/><use transform="matrix(0.01953125,0,0,0.01953125,144.0234375,0)" xlink:href="#as"/><use transform="matrix(0.01953125,0,0,0.01953125,168.02734375,0)" xlink:href="#ac"/><use transform="matrix(0.01953125,0,0,0.01953125,192.03125,0)" xlink:href="#ad"/></g><path fill="#333" d="M655-135c108 0 195-33 260-74v-336H622v-160h479v572C981-54 839 20 639 20c-388 0-526-306-526-701 0-406 129-689 529-689 261 0 392 137 461 331l-171 56c-47-131-122-231-288-231-281 0-330 245-330 533 0 179 28 314 84 407s142 139 257 139" id="at"/><g id="f"><use transform="matrix(0.01953125,0,0,0.01953125,0,0)" xlink:href="#at"/><use transform="matrix(0.01953125,0,0,0.01953125,24.00390625,0)" xlink:href="#as"/><use transform="matrix(0.01953125,0,0,0.01953125,48.0078125,0)" xlink:href="#ap"/><use transform="matrix(0.01953125,0,0,0.01953125,72.01171875,0)" xlink:href="#al"/><use transform="matrix(0.01953125,0,0,0.01953125,96.015625,0)" xlink:href="#al"/><use transform="matrix(0.01953125,0,0,0.01953125,120.01953125,0)" xlink:href="#aq"/><use transform="matrix(0.01953125,0,0,0.01953125,144.0234375,0)" xlink:href="#as"/><use transform="matrix(0.01953125,0,0,0.01953125,168.02734375,0)" xlink:href="#ak"/></g><path fill="#333" d="M839-1335c-182-6-269 67-259 253h491v142H580V0H400v-940H138v-142h262c-15-293 132-408 418-402 94 2 200 7 281 21v145c-75-10-177-14-260-17" id="au"/><g id="g"><use transform="matrix(0.01953125,0,0,0.01953125,0,0)" xlink:href="#au"/><use transform="matrix(0.01953125,0,0,0.01953125,24.00390625,0)" xlink:href="#aq"/><use transform="matrix(0.01953125,0,0,0.01953125,48.0078125,0)" xlink:href="#an"/><use transform="matrix(0.01953125,0,0,0.01953125,72.01171875,0)" xlink:href="#ae"/><use transform="matrix(0.01953125,0,0,0.01953125,96.015625,0)" xlink:href="#ad"/><use transform="matrix(0.01953125,0,0,0.01953125,120.01953125,0)" xlink:href="#ah"/></g><path fill="#333" d="M614-1226c-167 1-283 53-283 213 0 183 186 193 334 234 230 63 463 120 463 409 0 286-219 387-518 390C309 23 131-98 79-338l185-37c34 165 149 248 351 246 184-2 324-58 324-238 0-203-207-221-372-266-210-57-422-111-422-377 0-267 201-356 470-360 279-5 430 101 480 324l-188 33c-28-141-121-215-293-213" id="av"/><path fill="#333" d="M648-963c-190 6-283 138-283 336V0H185v-1484h181c-2 197 6 404-9 587h3c62-120 159-205 339-205 242 0 351 135 350 381V0H868v-695c1-168-57-273-220-268" id="aw"/><path fill="#333" d="M698-1104c312 3 392 244 392 558 0 315-82 566-392 566-169 0-277-65-331-184h-5c8 188 2 394 4 589H185V-858c0-76-1-156-6-224h175c6 52 9 120 10 178h4c58-122 150-202 330-200zm-49 991c225 0 255-203 255-433 0-225-32-419-253-419-236 0-285 192-285 441 0 237 53 411 283 411" id="ax"/><g id="h"><use transform="matrix(0.019531249999999993,0,0,0.019531249999999993,0,0)" xlink:href="#av"/><use transform="matrix(0.019531249999999993,0,0,0.019531249999999993,24.003906249999993,0)" xlink:href="#aw"/><use transform="matrix(0.019531249999999993,0,0,0.019531249999999993,48.007812499999986,0)" xlink:href="#as"/><use transform="matrix(0.019531249999999993,0,0,0.019531249999999993,72.01171874999997,0)" xlink:href="#ah"/><use transform="matrix(0.019531249999999993,0,0,0.019531249999999993,96.01562499999997,0)" xlink:href="#ax"/><use transform="matrix(0.019531249999999993,0,0,0.019531249999999993,120.01953124999997,0)" xlink:href="#ad"/><use transform="matrix(0.019531249999999993,0,0,0.019531249999999993,144.02343749999997,0)" xlink:href="#ak"/></g><path fill="#333" d="M365-904c58-129 161-200 334-200 130 0 228 46 293 138s98 233 98 420c0 189-34 331-102 425S824 20 698 20c-170 0-275-64-336-184 0 55-3 116-9 164H179c5-68 6-147 6-223v-1261h180c-2 193 4 394-4 580h4zm283 791c221 0 256-197 256-427 0-229-34-425-254-425-236 0-285 195-285 441 0 237 53 411 283 411" id="ay"/><g id="i"><use transform="matrix(0.01953125,0,0,0.01953125,0,0)" xlink:href="#ay"/><use transform="matrix(0.01953125,0,0,0.01953125,24.00390625,0)" xlink:href="#an"/><use transform="matrix(0.01953125,0,0,0.01953125,48.0078125,0)" xlink:href="#ap"/><use transform="matrix(0.01953125,0,0,0.01953125,72.01171875,0)" xlink:href="#ah"/><use transform="matrix(0.01953125,0,0,0.01953125,96.015625,0)" xlink:href="#af"/><use transform="matrix(0.01953125,0,0,0.01953125,120.01953125,0)" xlink:href="#aq"/><use transform="matrix(0.01953125,0,0,0.01953125,144.0234375,0)" xlink:href="#ar"/><use transform="matrix(0.01953125,0,0,0.01953125,168.02734375,0)" xlink:href="#as"/><use transform="matrix(0.01953125,0,0,0.01953125,192.03125,0)" xlink:href="#ac"/><use transform="matrix(0.01953125,0,0,0.01953125,216.03515625,0)" xlink:href="#ad"/></g><g id="j"><use transform="matrix(0.01953125,0,0,0.01953125,0,0)" xlink:href="#ae"/><use transform="matrix(0.01953125,0,0,0.01953125,24.00390625,0)" xlink:href="#ad"/><use transform="matrix(0.01953125,0,0,0.01953125,48.0078125,0)" xlink:href="#ar"/><use transform="matrix(0.01953125,0,0,0.01953125,72.01171875,0)" xlink:href="#ax"/><use transform="matrix(0.01953125,0,0,0.01953125,96.015625,0)" xlink:href="#an"/><use transform="matrix(0.01953125,0,0,0.01953125,120.01953125,0)" xlink:href="#as"/><use transform="matrix(0.01953125,0,0,0.01953125,144.0234375,0)" xlink:href="#ae"/><use transform="matrix(0.01953125,0,0,0.01953125,168.02734375,0)" xlink:href="#ad"/></g><path fill="#333" d="M650-1214c-281 0-336 244-336 533 0 295 60 546 347 546 188 0 263-142 322-282l159 65C1058-155 935 20 659 20c-401 0-546-295-546-701 0-407 135-689 536-689 264 0 391 146 466 335l-168 65c-47-129-127-244-297-244" id="az"/><g id="k"><use transform="matrix(0.019531249999999993,0,0,0.019531249999999993,0,0)" xlink:href="#az"/><use transform="matrix(0.019531249999999993,0,0,0.019531249999999993,24.003906249999993,0)" xlink:href="#ah"/><use transform="matrix(0.019531249999999993,0,0,0.019531249999999993,48.007812499999986,0)" xlink:href="#ad"/><use transform="matrix(0.019531249999999993,0,0,0.019531249999999993,72.01171874999997,0)" xlink:href="#as"/><use transform="matrix(0.019531249999999993,0,0,0.019531249999999993,96.01562499999997,0)" xlink:href="#ae"/><use transform="matrix(0.019531249999999993,0,0,0.019531249999999993,120.01953124999997,0)" xlink:href="#ad"/></g><path fill="#333" d="M168 279c222 39 310-114 368-290L66-1082h192c120 299 249 590 362 896 115-301 235-597 351-896h190L705 0c-65 164-130 320-275 396-67 36-177 35-262 18V279" id="aA"/><g id="l"><use transform="matrix(0.019531249999999993,0,0,0.019531249999999993,0,0)" xlink:href="#as"/><use transform="matrix(0.019531249999999993,0,0,0.019531249999999993,24.003906249999993,0)" xlink:href="#ah"/><use transform="matrix(0.019531249999999993,0,0,0.019531249999999993,48.007812499999986,0)" xlink:href="#ah"/><use transform="matrix(0.019531249999999993,0,0,0.019531249999999993,72.01171874999997,0)" xlink:href="#as"/><use transform="matrix(0.019531249999999993,0,0,0.019531249999999993,96.01562499999997,0)" xlink:href="#aA"/></g><g id="m"><use transform="matrix(0.019531249999999993,0,0,0.019531249999999993,0,0)" xlink:href="#aj"/><use transform="matrix(0.019531249999999993,0,0,0.019531249999999993,24.003906249999993,0)" xlink:href="#aq"/><use transform="matrix(0.019531249999999993,0,0,0.019531249999999993,48.007812499999986,0)" xlink:href="#ae"/><use transform="matrix(0.019531249999999993,0,0,0.019531249999999993,72.01171874999997,0)" xlink:href="#aw"/></g><path fill="#333" d="M865-914c-3-187-2-380-2-570h180v1261c0 76 1 155 6 223H877c-8-49-9-116-10-174h-5C801-44 708 26 530 26c-135 0-234-46-297-139s-95-232-95-419c0-377 131-566 392-566 176 0 271 63 335 184zm-286-51c-222 0-255 197-255 427 0 229 31 425 253 425 237 0 286-195 286-441 0-238-52-411-284-411" id="aB"/><g id="n"><use transform="matrix(0.019531249999999993,0,0,0.019531249999999993,0,0)" xlink:href="#ah"/><use transform="matrix(0.019531249999999993,0,0,0.019531249999999993,24.003906249999993,0)" xlink:href="#ai"/><use transform="matrix(0.019531249999999993,0,0,0.019531249999999993,48.007812499999986,0)" xlink:href="#ae"/><use transform="matrix(0.019531249999999993,0,0,0.019531249999999993,72.01171874999997,0)" xlink:href="#as"/><use transform="matrix(0.019531249999999993,0,0,0.019531249999999993,96.01562499999997,0)" xlink:href="#ae"/><use transform="matrix(0.019531249999999993,0,0,0.019531249999999993,120.01953124999997,0)" xlink:href="#ad"/><use transform="matrix(0.019531249999999993,0,0,0.019531249999999993,144.02343749999997,0)" xlink:href="#aB"/></g><g id="o"><use transform="matrix(0.019531249999999993,0,0,0.019531249999999993,0,0)" xlink:href="#ag"/><use transform="matrix(0.019531249999999993,0,0,0.019531249999999993,24.003906249999993,0)" xlink:href="#ah"/><use transform="matrix(0.019531249999999993,0,0,0.019531249999999993,48.007812499999986,0)" xlink:href="#ai"/><use transform="matrix(0.019531249999999993,0,0,0.019531249999999993,72.01171874999997,0)" xlink:href="#aj"/><use transform="matrix(0.019531249999999993,0,0,0.019531249999999993,96.01562499999997,0)" xlink:href="#ak"/><use transform="matrix(0.019531249999999993,0,0,0.019531249999999993,120.01953124999997,0)" xlink:href="#al"/></g><g id="p"><use transform="matrix(0.019531249999999993,0,0,0.019531249999999993,0,0)" xlink:href="#ad"/><use transform="matrix(0.019531249999999993,0,0,0.019531249999999993,24.003906249999993,0)" xlink:href="#ar"/><use transform="matrix(0.019531249999999993,0,0,0.019531249999999993,48.007812499999986,0)" xlink:href="#ax"/><use transform="matrix(0.019531249999999993,0,0,0.019531249999999993,72.01171874999997,0)" xlink:href="#ae"/><use transform="matrix(0.019531249999999993,0,0,0.019531249999999993,96.01562499999997,0)" xlink:href="#aA"/></g><g id="q"><use transform="matrix(0.019531249999999993,0,0,0.019531249999999993,0,0)" xlink:href="#as"/><use transform="matrix(0.019531249999999993,0,0,0.019531249999999993,24.003906249999993,0)" xlink:href="#ah"/><use transform="matrix(0.019531249999999993,0,0,0.019531249999999993,48.007812499999986,0)" xlink:href="#ah"/><use transform="matrix(0.019531249999999993,0,0,0.019531249999999993,72.01171874999997,0)" xlink:href="#as"/><use transform="matrix(0.019531249999999993,0,0,0.019531249999999993,96.01562499999997,0)" xlink:href="#aA"/></g><g id="r"><use transform="matrix(0.019531249999999993,0,0,0.019531249999999993,0,0)" xlink:href="#au"/><use transform="matrix(0.019531249999999993,0,0,0.019531249999999993,24.003906249999993,0)" xlink:href="#ai"/><use transform="matrix(0.019531249999999993,0,0,0.019531249999999993,48.007812499999986,0)" xlink:href="#ah"/></g><g id="s"><use transform="matrix(0.019531249999999993,0,0,0.019531249999999993,0,0)" xlink:href="#ax"/><use transform="matrix(0.019531249999999993,0,0,0.019531249999999993,24.003906249999993,0)" xlink:href="#ai"/><use transform="matrix(0.019531249999999993,0,0,0.019531249999999993,48.007812499999986,0)" xlink:href="#al"/><use transform="matrix(0.019531249999999993,0,0,0.019531249999999993,72.01171874999997,0)" xlink:href="#al"/><use transform="matrix(0.019531249999999993,0,0,0.019531249999999993,96.01562499999997,0)" xlink:href="#aq"/><use transform="matrix(0.019531249999999993,0,0,0.019531249999999993,120.01953124999997,0)" xlink:href="#ay"/><use transform="matrix(0.019531249999999993,0,0,0.019531249999999993,144.02343749999997,0)" xlink:href="#an"/><use transform="matrix(0.019531249999999993,0,0,0.019531249999999993,168.02734374999997,0)" xlink:href="#ad"/></g><g id="t"><use transform="matrix(0.019531249999999993,0,0,0.019531249999999993,0,0)" xlink:href="#an"/><use transform="matrix(0.019531249999999993,0,0,0.019531249999999993,24.003906249999993,0)" xlink:href="#ai"/><use transform="matrix(0.019531249999999993,0,0,0.019531249999999993,48.007812499999986,0)" xlink:href="#ag"/><use transform="matrix(0.019531249999999993,0,0,0.019531249999999993,72.01171874999997,0)" xlink:href="#as"/><use transform="matrix(0.019531249999999993,0,0,0.019531249999999993,96.01562499999997,0)" xlink:href="#ae"/><use transform="matrix(0.019531249999999993,0,0,0.019531249999999993,120.01953124999997,0)" xlink:href="#aq"/><use transform="matrix(0.019531249999999993,0,0,0.019531249999999993,144.02343749999997,0)" xlink:href="#ai"/><use transform="matrix(0.019531249999999993,0,0,0.019531249999999993,168.02734374999997,0)" xlink:href="#ak"/><use transform="matrix(0.019531249999999993,0,0,0.019531249999999993,192.03124999999997,0)" xlink:href="#al"/></g><g id="u"><use transform="matrix(0.01953125,0,0,0.01953125,0,0)" xlink:href="#an"/><use transform="matrix(0.01953125,0,0,0.01953125,24.00390625,0)" xlink:href="#ai"/><use transform="matrix(0.01953125,0,0,0.01953125,48.0078125,0)" xlink:href="#ag"/><use transform="matrix(0.01953125,0,0,0.01953125,72.01171875,0)" xlink:href="#as"/><use transform="matrix(0.01953125,0,0,0.01953125,96.015625,0)" xlink:href="#ae"/><use transform="matrix(0.01953125,0,0,0.01953125,120.01953125,0)" xlink:href="#aq"/><use transform="matrix(0.01953125,0,0,0.01953125,144.0234375,0)" xlink:href="#ai"/><use transform="matrix(0.01953125,0,0,0.01953125,168.02734375,0)" xlink:href="#ak"/><use transform="matrix(0.01953125,0,0,0.01953125,192.03125,0)" xlink:href="#al"/></g><path fill="#333" d="M875 0v-623H353V0H162v-1349h191v566h522v-566h191V0H875" id="aC"/><g id="v"><use transform="matrix(0.01953125,0,0,0.01953125,0,0)" xlink:href="#aC"/><use transform="matrix(0.01953125,0,0,0.01953125,24.00390625,0)" xlink:href="#as"/><use transform="matrix(0.01953125,0,0,0.01953125,48.0078125,0)" xlink:href="#al"/></g><g id="w"><use transform="matrix(0.01953125,0,0,0.01953125,0,0)" xlink:href="#as"/><use transform="matrix(0.01953125,0,0,0.01953125,24.00390625,0)" xlink:href="#an"/><use transform="matrix(0.01953125,0,0,0.01953125,48.0078125,0)" xlink:href="#an"/></g><g id="x"><use transform="matrix(0.01953125,0,0,0.01953125,0,0)" xlink:href="#ah"/><use transform="matrix(0.01953125,0,0,0.01953125,24.00390625,0)" xlink:href="#ai"/><use transform="matrix(0.01953125,0,0,0.01953125,48.0078125,0)" xlink:href="#ae"/><use transform="matrix(0.01953125,0,0,0.01953125,72.01171875,0)" xlink:href="#as"/><use transform="matrix(0.01953125,0,0,0.01953125,96.015625,0)" xlink:href="#ae"/><use transform="matrix(0.01953125,0,0,0.01953125,120.01953125,0)" xlink:href="#aq"/><use transform="matrix(0.01953125,0,0,0.01953125,144.0234375,0)" xlink:href="#ai"/><use transform="matrix(0.01953125,0,0,0.01953125,168.02734375,0)" xlink:href="#ak"/><use transform="matrix(0.01953125,0,0,0.01953125,192.03125,0)" xlink:href="#al"/></g><g id="y"><use transform="matrix(0.01953125,0,0,0.01953125,0,0)" xlink:href="#ai"/><use transform="matrix(0.01953125,0,0,0.01953125,24.00390625,0)" xlink:href="#au"/></g><g id="z"><use transform="matrix(0.01953125,0,0,0.01953125,0,0)" xlink:href="#ae"/><use transform="matrix(0.01953125,0,0,0.01953125,24.00390625,0)" xlink:href="#ad"/><use transform="matrix(0.01953125,0,0,0.01953125,48.0078125,0)" xlink:href="#ar"/><use transform="matrix(0.01953125,0,0,0.01953125,72.01171875,0)" xlink:href="#ax"/><use transform="matrix(0.01953125,0,0,0.01953125,96.015625,0)" xlink:href="#an"/><use transform="matrix(0.01953125,0,0,0.01953125,120.01953125,0)" xlink:href="#as"/><use transform="matrix(0.01953125,0,0,0.01953125,144.0234375,0)" xlink:href="#ae"/><use transform="matrix(0.01953125,0,0,0.01953125,168.02734375,0)" xlink:href="#ad"/></g><g id="A"><use transform="matrix(0.01953125,0,0,0.01953125,0,0)" xlink:href="#ay"/><use transform="matrix(0.01953125,0,0,0.01953125,24.00390625,0)" xlink:href="#ad"/><use transform="matrix(0.01953125,0,0,0.01953125,48.0078125,0)" xlink:href="#ad"/><use transform="matrix(0.01953125,0,0,0.01953125,72.01171875,0)" xlink:href="#ak"/></g><path fill="#333" d="M594-1370c273 0 479 100 479 368 0 320-313 334-421 548-13 28-20 60-21 97H456c9-310 312-328 416-543 13-27 19-59 19-94 0-165-127-226-295-226-189 0-295 102-318 272L94-960c39-259 205-410 500-410zM448 0v-201h195V0H448" id="aD"/><g id="B"><use transform="matrix(0.01953125,0,0,0.01953125,0,0)" xlink:href="#ae"/><use transform="matrix(0.01953125,0,0,0.01953125,24.00390625,0)" xlink:href="#ad"/><use transform="matrix(0.01953125,0,0,0.01953125,48.0078125,0)" xlink:href="#al"/><use transform="matrix(0.01953125,0,0,0.01953125,72.01171875,0)" xlink:href="#ae"/><use transform="matrix(0.01953125,0,0,0.01953125,96.015625,0)" xlink:href="#ad"/><use transform="matrix(0.01953125,0,0,0.01953125,120.01953125,0)" xlink:href="#aB"/><use transform="matrix(0.01953125,0,0,0.01953125,144.0234375,0)" xlink:href="#aD"/></g><path fill="#333" d="M385-1193v494h676v158H385V0H194v-1349h891v156H385" id="aE"/><g id="C"><use transform="matrix(0.019531249999999993,0,0,0.019531249999999993,0,0)" xlink:href="#aE"/><use transform="matrix(0.019531249999999993,0,0,0.019531249999999993,24.003906249999993,0)" xlink:href="#aq"/><use transform="matrix(0.019531249999999993,0,0,0.019531249999999993,48.007812499999986,0)" xlink:href="#ak"/><use transform="matrix(0.019531249999999993,0,0,0.019531249999999993,72.01171874999997,0)" xlink:href="#aB"/></g><path fill="#333" d="M912-211c-10-84-18-177-18-274v-864h172V0H836L316-1130c7 79 16 167 16 254V0H162v-1349h222" id="aF"/><g id="D"><use transform="matrix(0.01953125,0,0,0.01953125,0,0)" xlink:href="#aF"/><use transform="matrix(0.01953125,0,0,0.01953125,24.00390625,0)" xlink:href="#ai"/></g><path fill="#333" d="M708-584V0H520v-584L36-1349h205l374 611 372-611h205" id="aG"/><g id="E"><use transform="matrix(0.01953125,0,0,0.01953125,0,0)" xlink:href="#aG"/><use transform="matrix(0.01953125,0,0,0.01953125,24.00390625,0)" xlink:href="#ad"/><use transform="matrix(0.01953125,0,0,0.01953125,48.0078125,0)" xlink:href="#al"/></g><g id="F"><use transform="matrix(0.019531249999999993,0,0,0.019531249999999993,0,0)" xlink:href="#at"/><use transform="matrix(0.019531249999999993,0,0,0.019531249999999993,24.003906249999993,0)" xlink:href="#ah"/><use transform="matrix(0.019531249999999993,0,0,0.019531249999999993,48.007812499999986,0)" xlink:href="#ai"/><use transform="matrix(0.019531249999999993,0,0,0.019531249999999993,72.01171874999997,0)" xlink:href="#ap"/><use transform="matrix(0.019531249999999993,0,0,0.019531249999999993,96.01562499999997,0)" xlink:href="#ax"/></g><g id="G"><use transform="matrix(0.019531249999999993,0,0,0.019531249999999993,0,0)" xlink:href="#ap"/><use transform="matrix(0.019531249999999993,0,0,0.019531249999999993,24.003906249999993,0)" xlink:href="#ax"/></g><g id="H"><use transform="matrix(0.019531249999999993,0,0,0.019531249999999993,0,0)" xlink:href="#an"/><use transform="matrix(0.019531249999999993,0,0,0.019531249999999993,24.003906249999993,0)" xlink:href="#ai"/><use transform="matrix(0.019531249999999993,0,0,0.019531249999999993,48.007812499999986,0)" xlink:href="#ag"/><use transform="matrix(0.019531249999999993,0,0,0.019531249999999993,72.01171874999997,0)" xlink:href="#as"/><use transform="matrix(0.019531249999999993,0,0,0.019531249999999993,96.01562499999997,0)" xlink:href="#ae"/><use transform="matrix(0.019531249999999993,0,0,0.019531249999999993,120.01953124999997,0)" xlink:href="#aq"/><use transform="matrix(0.019531249999999993,0,0,0.019531249999999993,144.02343749999997,0)" xlink:href="#ai"/><use transform="matrix(0.019531249999999993,0,0,0.019531249999999993,168.02734374999997,0)" xlink:href="#ak"/><use transform="matrix(0.019531249999999993,0,0,0.019531249999999993,192.03124999999997,0)" xlink:href="#al"/></g><g id="I"><use transform="matrix(0.019531249999999993,0,0,0.019531249999999993,0,0)" xlink:href="#aq"/><use transform="matrix(0.019531249999999993,0,0,0.019531249999999993,24.003906249999993,0)" xlink:href="#ak"/></g><path fill="#333" d="M530 26c-303-6-392-228-392-558 0-187 33-329 98-424s162-142 293-142c178 0 273 69 334 184 1-56 3-122 12-169h175c-6 88-6 180-6 282V425H863c1-202-4-411 4-607h-2C805-59 713 29 530 26zm47-139c234 0 286-193 286-441 0-238-55-411-284-411-223 0-255 198-255 427 0 227 33 425 253 425" id="aH"/><g id="J"><use transform="matrix(0.019531249999999993,0,0,0.019531249999999993,0,0)" xlink:href="#al"/><use transform="matrix(0.019531249999999993,0,0,0.019531249999999993,24.003906249999993,0)" xlink:href="#aH"/><use transform="matrix(0.019531249999999993,0,0,0.019531249999999993,48.007812499999986,0)" xlink:href="#ap"/><use transform="matrix(0.019531249999999993,0,0,0.019531249999999993,72.01171874999997,0)" xlink:href="#as"/><use transform="matrix(0.019531249999999993,0,0,0.019531249999999993,96.01562499999997,0)" xlink:href="#ah"/><use transform="matrix(0.019531249999999993,0,0,0.019531249999999993,120.01953124999997,0)" xlink:href="#ad"/><use transform="matrix(0.019531249999999993,0,0,0.019531249999999993,144.02343749999997,0)" xlink:href="#al"/></g><g id="K"><use transform="matrix(0.019531249999999993,0,0,0.019531249999999993,0,0)" xlink:href="#ae"/><use transform="matrix(0.019531249999999993,0,0,0.019531249999999993,24.003906249999993,0)" xlink:href="#aw"/><use transform="matrix(0.019531249999999993,0,0,0.019531249999999993,48.007812499999986,0)" xlink:href="#ad"/></g><g id="L"><use transform="matrix(0.019531249999999993,0,0,0.019531249999999993,0,0)" xlink:href="#an"/><use transform="matrix(0.019531249999999993,0,0,0.019531249999999993,24.003906249999993,0)" xlink:href="#ad"/><use transform="matrix(0.019531249999999993,0,0,0.019531249999999993,48.007812499999986,0)" xlink:href="#ak"/><use transform="matrix(0.019531249999999993,0,0,0.019531249999999993,72.01171874999997,0)" xlink:href="#ac"/><use transform="matrix(0.019531249999999993,0,0,0.019531249999999993,96.01562499999997,0)" xlink:href="#ae"/><use transform="matrix(0.019531249999999993,0,0,0.019531249999999993,120.01953124999997,0)" xlink:href="#aw"/></g><g id="M"><use transform="matrix(0.019531249999999993,0,0,0.019531249999999993,0,0)" xlink:href="#ai"/><use transform="matrix(0.019531249999999993,0,0,0.019531249999999993,24.003906249999993,0)" xlink:href="#au"/></g><g id="N"><use transform="matrix(0.019531249999999993,0,0,0.019531249999999993,0,0)" xlink:href="#ag"/><use transform="matrix(0.019531249999999993,0,0,0.019531249999999993,24.003906249999993,0)" xlink:href="#ah"/><use transform="matrix(0.019531249999999993,0,0,0.019531249999999993,48.007812499999986,0)" xlink:href="#ai"/><use transform="matrix(0.019531249999999993,0,0,0.019531249999999993,72.01171874999997,0)" xlink:href="#aj"/><use transform="matrix(0.019531249999999993,0,0,0.019531249999999993,96.01562499999997,0)" xlink:href="#ak"/></g><g id="O"><use transform="matrix(0.019531249999999993,0,0,0.019531249999999993,0,0)" xlink:href="#ae"/><use transform="matrix(0.019531249999999993,0,0,0.019531249999999993,24.003906249999993,0)" xlink:href="#ad"/><use transform="matrix(0.019531249999999993,0,0,0.019531249999999993,48.007812499999986,0)" xlink:href="#ar"/><use transform="matrix(0.019531249999999993,0,0,0.019531249999999993,72.01171874999997,0)" xlink:href="#ax"/><use transform="matrix(0.019531249999999993,0,0,0.019531249999999993,96.01562499999997,0)" xlink:href="#an"/><use transform="matrix(0.019531249999999993,0,0,0.019531249999999993,120.01953124999997,0)" xlink:href="#as"/><use transform="matrix(0.019531249999999993,0,0,0.019531249999999993,144.02343749999997,0)" xlink:href="#ae"/><use transform="matrix(0.019531249999999993,0,0,0.019531249999999993,168.02734374999997,0)" xlink:href="#ad"/></g><path fill="#333" d="M102-681c0-398 126-689 513-689 165 0 291 58 379 174s132 287 132 515c-1 318-88 554-298 657-123 61-317 58-438-3-206-104-288-341-288-654zm749 406c94-160 97-656-5-807-57-85-130-132-231-132-104 0-178 47-234 132-101 153-99 655 1 809 57 89 130 138 232 138 109 0 184-49 237-140" id="aI"/><g id="P"><use transform="matrix(0.019531249999999993,0,0,0.019531249999999993,0,0)" xlink:href="#aI"/><use transform="matrix(0.019531249999999993,0,0,0.019531249999999993,24.003906249999993,0)" xlink:href="#ap"/><use transform="matrix(0.019531249999999993,0,0,0.019531249999999993,48.007812499999986,0)" xlink:href="#ae"/><use transform="matrix(0.019531249999999993,0,0,0.019531249999999993,72.01171874999997,0)" xlink:href="#an"/><use transform="matrix(0.019531249999999993,0,0,0.019531249999999993,96.01562499999997,0)" xlink:href="#aq"/><use transform="matrix(0.019531249999999993,0,0,0.019531249999999993,120.01953124999997,0)" xlink:href="#ak"/><use transform="matrix(0.019531249999999993,0,0,0.019531249999999993,144.02343749999997,0)" xlink:href="#ad"/></g><g id="Q"><use transform="matrix(0.019531249999999993,0,0,0.019531249999999993,0,0)" xlink:href="#ag"/><use transform="matrix(0.019531249999999993,0,0,0.019531249999999993,24.003906249999993,0)" xlink:href="#ah"/><use transform="matrix(0.019531249999999993,0,0,0.019531249999999993,48.007812499999986,0)" xlink:href="#ai"/><use transform="matrix(0.019531249999999993,0,0,0.019531249999999993,72.01171874999997,0)" xlink:href="#aj"/><use transform="matrix(0.019531249999999993,0,0,0.019531249999999993,96.01562499999997,0)" xlink:href="#ak"/><use transform="matrix(0.019531249999999993,0,0,0.019531249999999993,120.01953124999997,0)" xlink:href="#al"/></g><use transform="matrix(0.019531249999999993,0,0,0.019531249999999993,0,0)" xlink:href="#as" id="R"/><g id="S"><use transform="matrix(0.019531249999999993,0,0,0.019531249999999993,0,0)" xlink:href="#ag"/><use transform="matrix(0.019531249999999993,0,0,0.019531249999999993,24.003906249999993,0)" xlink:href="#ai"/><use transform="matrix(0.019531249999999993,0,0,0.019531249999999993,48.007812499999986,0)" xlink:href="#an"/><use transform="matrix(0.019531249999999993,0,0,0.019531249999999993,72.01171874999997,0)" xlink:href="#ai"/><use transform="matrix(0.019531249999999993,0,0,0.019531249999999993,96.01562499999997,0)" xlink:href="#ah"/><use transform="matrix(0.019531249999999993,0,0,0.019531249999999993,120.01953124999997,0)" xlink:href="#ad"/><use transform="matrix(0.019531249999999993,0,0,0.019531249999999993,144.02343749999997,0)" xlink:href="#aB"/></g><g id="T"><use transform="matrix(0.019531249999999993,0,0,0.019531249999999993,0,0)" xlink:href="#al"/><use transform="matrix(0.019531249999999993,0,0,0.019531249999999993,24.003906249999993,0)" xlink:href="#aH"/><use transform="matrix(0.019531249999999993,0,0,0.019531249999999993,48.007812499999986,0)" xlink:href="#ap"/><use transform="matrix(0.019531249999999993,0,0,0.019531249999999993,72.01171874999997,0)" xlink:href="#as"/><use transform="matrix(0.019531249999999993,0,0,0.019531249999999993,96.01562499999997,0)" xlink:href="#ah"/><use transform="matrix(0.019531249999999993,0,0,0.019531249999999993,120.01953124999997,0)" xlink:href="#ad"/></g><path fill="#333" d="M162 0v-1349h919v156H353v422h668v154H353v461h769V0H162" id="aJ"/><g id="U"><use transform="matrix(0.01953125,0,0,0.01953125,0,0)" xlink:href="#aJ"/><use transform="matrix(0.01953125,0,0,0.01953125,24.00390625,0)" xlink:href="#ak"/><use transform="matrix(0.01953125,0,0,0.01953125,48.0078125,0)" xlink:href="#aB"/></g><g id="V"><use transform="matrix(0.019531249999999993,0,0,0.019531249999999993,0,0)" xlink:href="#az"/><use transform="matrix(0.019531249999999993,0,0,0.019531249999999993,24.003906249999993,0)" xlink:href="#ai"/><use transform="matrix(0.019531249999999993,0,0,0.019531249999999993,48.007812499999986,0)" xlink:href="#ap"/><use transform="matrix(0.019531249999999993,0,0,0.019531249999999993,72.01171874999997,0)" xlink:href="#ak"/><use transform="matrix(0.019531249999999993,0,0,0.019531249999999993,96.01562499999997,0)" xlink:href="#ae"/></g><g id="W"><use transform="matrix(0.019531249999999993,0,0,0.019531249999999993,0,0)" xlink:href="#as"/><use transform="matrix(0.019531249999999993,0,0,0.019531249999999993,24.003906249999993,0)" xlink:href="#ar"/><use transform="matrix(0.019531249999999993,0,0,0.019531249999999993,48.007812499999986,0)" xlink:href="#ai"/><use transform="matrix(0.019531249999999993,0,0,0.019531249999999993,72.01171874999997,0)" xlink:href="#ap"/><use transform="matrix(0.019531249999999993,0,0,0.019531249999999993,96.01562499999997,0)" xlink:href="#ak"/><use transform="matrix(0.019531249999999993,0,0,0.019531249999999993,120.01953124999997,0)" xlink:href="#ae"/></g><g id="X"><use transform="matrix(0.019531249999999993,0,0,0.019531249999999993,0,0)" xlink:href="#ai"/><use transform="matrix(0.019531249999999993,0,0,0.019531249999999993,24.003906249999993,0)" xlink:href="#au"/></g><g id="Y"><use transform="matrix(0.019531249999999993,0,0,0.019531249999999993,0,0)" xlink:href="#ag"/><use transform="matrix(0.019531249999999993,0,0,0.019531249999999993,24.003906249999993,0)" xlink:href="#ah"/><use transform="matrix(0.019531249999999993,0,0,0.019531249999999993,48.007812499999986,0)" xlink:href="#ai"/><use transform="matrix(0.019531249999999993,0,0,0.019531249999999993,72.01171874999997,0)" xlink:href="#aj"/><use transform="matrix(0.019531249999999993,0,0,0.019531249999999993,96.01562499999997,0)" xlink:href="#ak"/><use transform="matrix(0.019531249999999993,0,0,0.019531249999999993,120.01953124999997,0)" xlink:href="#al"/></g><g id="Z"><use transform="matrix(0.019531249999999993,0,0,0.019531249999999993,0,0)" xlink:href="#aq"/><use transform="matrix(0.019531249999999993,0,0,0.019531249999999993,24.003906249999993,0)" xlink:href="#ak"/></g><g id="aa"><use transform="matrix(0.019531249999999993,0,0,0.019531249999999993,0,0)" xlink:href="#ad"/><use transform="matrix(0.019531249999999993,0,0,0.019531249999999993,24.003906249999993,0)" xlink:href="#as"/><use transform="matrix(0.019531249999999993,0,0,0.019531249999999993,48.007812499999986,0)" xlink:href="#ag"/><use transform="matrix(0.019531249999999993,0,0,0.019531249999999993,72.01171874999997,0)" xlink:href="#aw"/></g><g id="ab"><use transform="matrix(0.019531249999999993,0,0,0.019531249999999993,0,0)" xlink:href="#ag"/><use transform="matrix(0.019531249999999993,0,0,0.019531249999999993,24.003906249999993,0)" xlink:href="#ad"/><use transform="matrix(0.019531249999999993,0,0,0.019531249999999993,48.007812499999986,0)" xlink:href="#an"/><use transform="matrix(0.019531249999999993,0,0,0.019531249999999993,72.01171874999997,0)" xlink:href="#an"/></g></defs></g></svg>