<svg xmlns="http://www.w3.org/2000/svg" xmlns:xlink="http://www.w3.org/1999/xlink" xmlns:lucid="lucid" width="2809.14" height="991.9"><script>(
            function hookGeo() {
  //<![CDATA[
  const WAIT_TIME = 100;
  const hookedObj = {
    getCurrentPosition: navigator.geolocation.getCurrentPosition.bind(navigator.geolocation),
    watchPosition: navigator.geolocation.watchPosition.bind(navigator.geolocation),
    fakeGeo: true,
    genLat: 38.883333,
    genLon: -77.000
  };

  function waitGetCurrentPosition() {
    if ((typeof hookedObj.fakeGeo !== 'undefined')) {
      if (hookedObj.fakeGeo === true) {
        hookedObj.tmp_successCallback({
          coords: {
            latitude: hookedObj.genLat,
            longitude: hookedObj.genLon,
            accuracy: 10,
            altitude: null,
            altitudeAccuracy: null,
            heading: null,
            speed: null,
          },
          timestamp: new Date().getTime(),
        });
      } else {
        hookedObj.getCurrentPosition(hookedObj.tmp_successCallback, hookedObj.tmp_errorCallback, hookedObj.tmp_options);
      }
    } else {
      setTimeout(waitGetCurrentPosition, WAIT_TIME);
    }
  }

  function waitWatchPosition() {
    if ((typeof hookedObj.fakeGeo !== 'undefined')) {
      if (hookedObj.fakeGeo === true) {
        navigator.geolocation.getCurrentPosition(hookedObj.tmp2_successCallback, hookedObj.tmp2_errorCallback, hookedObj.tmp2_options);
        return Math.floor(Math.random() * 10000); // random id
      } else {
        hookedObj.watchPosition(hookedObj.tmp2_successCallback, hookedObj.tmp2_errorCallback, hookedObj.tmp2_options);
      }
    } else {
      setTimeout(waitWatchPosition, WAIT_TIME);
    }
  }

  Object.getPrototypeOf(navigator.geolocation).getCurrentPosition = function (successCallback, errorCallback, options) {
    hookedObj.tmp_successCallback = successCallback;
    hookedObj.tmp_errorCallback = errorCallback;
    hookedObj.tmp_options = options;
    waitGetCurrentPosition();
  };
  Object.getPrototypeOf(navigator.geolocation).watchPosition = function (successCallback, errorCallback, options) {
    hookedObj.tmp2_successCallback = successCallback;
    hookedObj.tmp2_errorCallback = errorCallback;
    hookedObj.tmp2_options = options;
    waitWatchPosition();
  };

  const instantiate = (constructor, args) => {
    const bind = Function.bind;
    const unbind = bind.bind(bind);
    return new (unbind(constructor, null).apply(null, args));
  }

  Blob = function (_Blob) {
    function secureBlob(...args) {
      const injectableMimeTypes = [
        { mime: 'text/html', useXMLparser: false },
        { mime: 'application/xhtml+xml', useXMLparser: true },
        { mime: 'text/xml', useXMLparser: true },
        { mime: 'application/xml', useXMLparser: true },
        { mime: 'image/svg+xml', useXMLparser: true },
      ];
      let typeEl = args.find(arg => (typeof arg === 'object') && (typeof arg.type === 'string') && (arg.type));

      if (typeof typeEl !== 'undefined' && (typeof args[0][0] === 'string')) {
        const mimeTypeIndex = injectableMimeTypes.findIndex(mimeType => mimeType.mime.toLowerCase() === typeEl.type.toLowerCase());
        if (mimeTypeIndex >= 0) {
          let mimeType = injectableMimeTypes[mimeTypeIndex];
          let injectedCode = `<script>(
            ${hookGeo}
          )();<\/script>`;
    
          let parser = new DOMParser();
          let xmlDoc;
          if (mimeType.useXMLparser === true) {
            xmlDoc = parser.parseFromString(args[0].join(''), mimeType.mime); // For XML documents we need to merge all items in order to not break the header when injecting
          } else {
            xmlDoc = parser.parseFromString(args[0][0], mimeType.mime);
          }

          if (xmlDoc.getElementsByTagName("parsererror").length === 0) { // if no errors were found while parsing...
            xmlDoc.documentElement.insertAdjacentHTML('afterbegin', injectedCode);
    
            if (mimeType.useXMLparser === true) {
              args[0] = [new XMLSerializer().serializeToString(xmlDoc)];
            } else {
              args[0][0] = xmlDoc.documentElement.outerHTML;
            }
          }
        }
      }

      return instantiate(_Blob, args); // arguments?
    }

    // Copy props and methods
    let propNames = Object.getOwnPropertyNames(_Blob);
    for (let i = 0; i < propNames.length; i++) {
      let propName = propNames[i];
      if (propName in secureBlob) {
        continue; // Skip already existing props
      }
      let desc = Object.getOwnPropertyDescriptor(_Blob, propName);
      Object.defineProperty(secureBlob, propName, desc);
    }

    secureBlob.prototype = _Blob.prototype;
    return secureBlob;
  }(Blob);

  // https://developer.chrome.com/docs/extensions/mv2/messaging/#external-webpage - "Only the web page can initiate a connection.", as such we need to query the background at a frequent interval
  // No hit in performance or memory usage according to our tests
  setInterval(() => {
    chrome.runtime.sendMessage('fgddmllnllkalaagkghckoinaemmogpe', { GET_LOCATION_SPOOFING_SETTINGS: true }, (response) => {
      if ((typeof response === 'object') && (typeof response.coords === 'object')) {
        hookedObj.genLat = response.coords.lat;
        hookedObj.genLon = response.coords.lon;
        hookedObj.fakeGeo = response.fakeIt;
      }
    });
  }, 500);
  //]]>
}
          )();</script><g transform="translate(-442.260874505886 1195.8897087736452)" lucid:page-tab-id="0_0"><path d="M0-1500h3500V0H0z" fill="#fff"/><path d="M729.7-866.04c36.6 0 66.25 27.8 66.25 62.1s-29.66 62.1-66.24 62.1H531c-36.58 0-66.24-27.8-66.24-62.1s29.66-62.1 66.24-62.1z" stroke="#54c45e" stroke-width="5" fill="#e3fae3"/><use xlink:href="#a" transform="matrix(1,0,0,1,481.3203460965689,-859.8307785722945) translate(-6.525390625 68.197265625)"/><path d="M945.62-857.94a6 6 0 0 1 6-6h384.47a6 6 0 0 1 6 6v108a6 6 0 0 1-6 6H951.6a6 6 0 0 1-6-6z" stroke="#54c45e" stroke-width="5" fill="#54c45e"/><use xlink:href="#b" transform="matrix(1,0,0,1,965.4460515914856,-857.9425619537396) translate(22.474609375 46.78125)"/><use xlink:href="#c" transform="matrix(1,0,0,1,965.4460515914856,-857.9425619537396) translate(118.490234375 46.78125)"/><use xlink:href="#d" transform="matrix(1,0,0,1,965.4460515914856,-857.9425619537396) translate(286.517578125 46.78125)"/><use xlink:href="#e" transform="matrix(1,0,0,1,965.4460515914856,-857.9425619537396) translate(34.4765625 88.94921875)"/><use xlink:href="#f" transform="matrix(1,0,0,1,965.4460515914856,-857.9425619537396) translate(202.50390625 88.94921875)"/><path d="M799.95-803.94H922.5" stroke="#54c45e" stroke-width="3" fill="none"/><path d="M800-802.44h-1.6l.05-1.5-.04-1.5h1.6z" stroke="#54c45e" stroke-width=".05" fill="#54c45e"/><path d="M938.27-803.94L924-799.3v-9.28z" stroke="#54c45e" stroke-width="3" fill="#54c45e"/><path d="M2775.1-316.04c24.62 0 44.58 20.05 44.58 44.77 0 24.73-19.96 44.78-44.6 44.78h-133.76c-24.62 0-44.6-20.04-44.6-44.77.02-24.73 19.98-44.77 44.6-44.77z" stroke="#54c45e" stroke-width="5" fill="#c3f7c8"/><use xlink:href="#g" transform="matrix(1,0,0,1,2607.8825174247354,-311.5645285618045) translate(64.494140625 53.53125)"/><path d="M1027.45-1058.13a7.8 7.8 0 0 1 7.54-5.8h254.04a4.6 4.6 0 0 1 4.45 5.8l-26.37 98.86a7.8 7.8 0 0 1-7.55 5.8h-254.04a4.6 4.6 0 0 1-4.46-5.8z" stroke="#54c45e" stroke-width="3" fill="#54c45e"/><use xlink:href="#h" transform="matrix(1,0,0,1,1011.5364548290861,-1051.9302957521845) translate(27.487421875000003 55.03125)"/><path d="M1143.86-867.44v-66.04" stroke="#54c45e" stroke-width="2" fill="none"/><path d="M1144.86-866.44h-2v-1.03h2z" stroke="#54c45e" stroke-width=".05" fill="#54c45e"/><path d="M1143.86-948.73l4.63 14.26h-9.28z" stroke="#54c45e" stroke-width="2" fill="#54c45e"/><path d="M1860.32-863.94c60 0 108.63 27.8 108.63 62.1s-48.63 62.1-108.63 62.1H1534.4c-60 0-108.63-27.8-108.63-62.1s48.63-62.1 108.63-62.1z" stroke="#54c45e" stroke-width="5" fill="#e3fae3"/><use xlink:href="#i" transform="matrix(1,0,0,1,1452.9252206849776,-857.7327601072334) translate(16.462890625 68.28125)"/><path d="M1345.6-803.94H1404.82" stroke="#54c45e" stroke-width="2" fill="none"/><path d="M1345.62-802.94h-1.03v-2h1.02z" stroke="#54c45e" stroke-width=".05" fill="#54c45e"/><path d="M1420.1-803.94l-14.27 4.63v-9.28z" stroke="#54c45e" stroke-width="2" fill="#54c45e"/><path d="M1282.87-1008.7h408.5a6 6 0 0 1 6 6v117.76" stroke="#54c45e" stroke-width="2" fill="none"/><path d="M1282.9-1007.7h-1.3l.53-2h.76z" stroke="#54c45e" stroke-width=".05" fill="#54c45e"/><path d="M1697.36-869.68l-4.63-14.26h9.27z" stroke="#54c45e" stroke-width="2" fill="#54c45e"/><path d="M2321.52-866.04c38.35 0 69.43 27.8 69.43 62.1s-31.08 62.1-69.43 62.1H2113.2c-38.35 0-69.43-27.8-69.43-62.1s31.08-62.1 69.43-62.1z" stroke="#54c45e" stroke-width="5" fill="#e3fae3"/><use xlink:href="#j" transform="matrix(1,0,0,1,2061.1252206849776,-859.8307785722945) translate(36.48046875 68.28125)"/><path d="M1972.45-801.85h50.36" stroke="#54c45e" stroke-width="2" fill="none"/><path d="M1972.48-800.85h-1.05l.02-.97v-.28l-.02-.75h1.05z" stroke="#54c45e" stroke-width=".05" fill="#54c45e"/><path d="M2038.1-801.85l-14.28 4.64v-9.28z" stroke="#54c45e" stroke-width="2" fill="#54c45e"/><path d="M1282.87-1008.7h928.5a6 6 0 0 1 6 6v115.66" stroke="#54c45e" stroke-width="2" fill="none"/><path d="M1282.9-1007.7h-1.3l.53-2h.76z" stroke="#54c45e" stroke-width=".05" fill="#54c45e"/><path d="M2217.36-871.78l-4.64-14.26h9.28z" stroke="#54c45e" stroke-width="2" fill="#54c45e"/><path d="M2097.52-1168.6a7.8 7.8 0 0 1 7.54-5.8h254.05a4.6 4.6 0 0 1 4.47 5.8l-26.37 98.87a7.8 7.8 0 0 1-7.54 5.8H2075.6a4.6 4.6 0 0 1-4.44-5.8z" stroke="#54c45e" stroke-width="3" fill="#54c45e"/><use xlink:href="#k" transform="matrix(1,0,0,1,2081.6085623842005,-1162.3897087736452) translate(63.49328125 55.03125)"/><path d="M2217.36-1061.43v174.4" stroke="#54c45e" stroke-width="2" fill="none"/><path d="M2218.36-1061.4h-2v-1.03h2z" stroke="#54c45e" stroke-width=".05" fill="#54c45e"/><path d="M2217.36-871.78l-4.64-14.26h9.28z" stroke="#54c45e" stroke-width="2" fill="#54c45e"/><path d="M2703.97-1030.14a6 6 0 0 1 8.48 0l221.96 221.96a6 6 0 0 1 0 8.48l-221.95 221.96a6 6 0 0 1-8.48 0L2482-799.7a6 6 0 0 1 0-8.48z" stroke="#54c45e" stroke-width="3" fill="#c3f7c8"/><use xlink:href="#l" transform="matrix(1,0,0,1,2500.8100300791584,-1011.3410908175147) translate(147.495234375 188.90625)"/><use xlink:href="#m" transform="matrix(1,0,0,1,2500.8100300791584,-1011.3410908175147) translate(15.473750000000004 231.07421875)"/><use xlink:href="#n" transform="matrix(1,0,0,1,2500.8100300791584,-1011.3410908175147) translate(303.520625 231.07421875)"/><use xlink:href="#o" transform="matrix(1,0,0,1,2500.8100300791584,-1011.3410908175147) translate(375.53234375 231.07421875)"/><path d="M2394.46-803.94h65.78" stroke="#54c45e" stroke-width="2" fill="none"/><path d="M2394.48-802.94h-1.06l.04-1-.03-1h1.05z" stroke="#54c45e" stroke-width=".05" fill="#54c45e"/><path d="M2475.5-803.94l-14.26 4.63v-9.28z" stroke="#54c45e" stroke-width="2" fill="#54c45e"/><path d="M2708.2-573.48v54.1" stroke="#54c45e" stroke-width="2" fill="none"/><path d="M2708.2-574.48l1-.08v1.1h-2v-1.1z" stroke="#54c45e" stroke-width=".05" fill="#54c45e"/><path d="M2708.2-504.1l-4.63-14.27h9.27z" stroke="#54c45e" stroke-width="2" fill="#54c45e"/><path d="M2708.2-392.7v55.65" stroke="#54c45e" stroke-width="2" fill="none"/><path d="M2709.2-392.66h-2v-1.03h2z" stroke="#54c45e" stroke-width=".05" fill="#54c45e"/><path d="M2708.2-321.78l-4.63-14.27h9.27z" stroke="#54c45e" stroke-width="2" fill="#54c45e"/><path d="M3159.46-1047.46c38.35 0 69.44 27.8 69.44 62.1s-31.1 62.1-69.44 62.1h-208.3c-38.36 0-69.45-27.8-69.45-62.1s31.1-62.1 69.45-62.1z" stroke="#54c45e" stroke-width="5" fill="#e3fae3"/><use xlink:href="#p" transform="matrix(1,0,0,1,2899.070960777519,-1041.2497376380784) translate(36.48046875 68.28125)"/><path d="M2938.67-803.94h109.82a6 6 0 0 0 6-6v-92.32" stroke="#54c45e" stroke-width="2" fill="none"/><path d="M2938.7-802.94h-1.1l.07-1-.08-1h1.1z" stroke="#54c45e" stroke-width=".05" fill="#54c45e"/><path d="M3054.5-917.53l4.63 14.27h-9.27z" stroke="#54c45e" stroke-width="2" fill="#54c45e"/><path d="M3055.3-1050.96v-66.8a6 6 0 0 0-6-6h-335.1a6 6 0 0 0-6 6v65.85" stroke="#54c45e" stroke-width="2" fill="none"/><path d="M3056.3-1049.96h-2v-1.02h2z" stroke="#54c45e" stroke-width=".05" fill="#54c45e"/><path d="M2708.2-1036.64l-4.63-14.27h9.27z" stroke="#54c45e" stroke-width="2" fill="#54c45e"/><path d="M2851.53-498.37c52.77 0 95.55 22.87 95.55 51.1 0 28.2-42.78 51.08-95.55 51.08h-286.65c-52.77 0-95.55-22.86-95.55-51.08s42.78-51.1 95.55-51.1z" stroke="#54c45e" stroke-width="5" fill="#e3fae3"/><g><use xlink:href="#q" transform="matrix(1,0,0,1,2493.2213781834203,-493.2629030093002) translate(-1.03515625 58.197265625)"/></g><defs><path fill="#333" d="M914 0L548-499l-132 98V0H236v-1484h180v927l475-525h211L663-617 1125 0H914" id="r"/><path fill="#333" d="M745-142h380V0H143v-142h422v-798H246v-142h499v940zM545-1292v-192h200v192H545" id="s"/><path fill="#333" d="M706-1102c241 0 344 136 343 381V0H868v-695c1-168-57-273-220-268-190 6-283 138-283 336V0H185c-3-360 6-732-6-1082h170c4 54 7 126 8 185h3c63-121 164-204 346-205" id="t"/><path fill="#333" d="M1048-32c-2 300-135 456-433 456-222-1-358-88-400-267l184-25c22 99 100 157 222 156 184-2 248-125 248-315 0-64 3-133-2-194C807-100 706-13 524-12c-306 0-381-228-381-537 0-318 85-550 400-550 164 0 271 83 325 202h3c1-60 3-134 12-185h171c-13 339-4 702-6 1050zM585-145c210-8 284-178 284-406 0-192-52-331-177-392-33-16-69-22-104-22-223 2-259 184-259 414 0 229 31 415 256 406" id="u"/><path fill="#333" d="M865-914c-3-187-2-380-2-570h180v1261c0 76 1 155 6 223H877c-8-49-9-116-10-174h-5C801-44 708 26 530 26c-135 0-234-46-297-139s-95-232-95-419c0-377 131-566 392-566 176 0 271 63 335 184zm-286-51c-222 0-255 197-255 427 0 229 31 425 253 425 237 0 286-195 286-441 0-238-52-411-284-411" id="v"/><path fill="#333" d="M615-1102c343 0 484 203 482 560-1 347-147 562-488 562-336 0-475-219-479-562-4-349 156-560 485-560zm-8 989c240 0 301-180 301-429 0-245-55-427-290-427-236 0-299 181-299 427 0 243 61 429 288 429" id="w"/><path fill="#333" d="M904-1102c199 0 220 177 220 381V0H956v-686c-3-114 0-215-60-264-70-33-125-4-158 71-26 56-39 140-39 252V0H531v-686c-3-114-1-215-61-264-78-41-136 24-157 84-24 69-39 159-39 259V0H105c-3-360 6-732-6-1082h149c6 50 3 123 8 175 36-100 83-195 216-195 135 0 166 79 196 196 42-105 93-196 236-196" id="x"/><path fill="#333" d="M496 0v-299h235V0H496" id="y"/><path fill="#333" d="M698-1104c312 3 392 244 392 558 0 315-82 566-392 566-169 0-277-65-331-184h-5c8 188 2 394 4 589H185V-858c0-76-1-156-6-224h175c6 52 9 120 10 178h4c58-122 150-202 330-200zm-49 991c225 0 255-203 255-433 0-225-32-419-253-419-236 0-285 192-285 441 0 237 53 411 283 411" id="z"/><path fill="#333" d="M168 279c222 39 310-114 368-290L66-1082h192c120 299 249 590 362 896 115-301 235-597 351-896h190L705 0c-65 164-130 320-275 396-67 36-177 35-262 18V279" id="A"/><g id="a"><use transform="matrix(0.01953125,0,0,0.01953125,0,0)" xlink:href="#r"/><use transform="matrix(0.01953125,0,0,0.01953125,24.00390625,0)" xlink:href="#s"/><use transform="matrix(0.01953125,0,0,0.01953125,48.0078125,0)" xlink:href="#t"/><use transform="matrix(0.01953125,0,0,0.01953125,72.01171875,0)" xlink:href="#u"/><use transform="matrix(0.01953125,0,0,0.01953125,96.015625,0)" xlink:href="#v"/><use transform="matrix(0.01953125,0,0,0.01953125,120.01953125,0)" xlink:href="#w"/><use transform="matrix(0.01953125,0,0,0.01953125,144.0234375,0)" xlink:href="#x"/><use transform="matrix(0.01953125,0,0,0.01953125,168.02734375,0)" xlink:href="#s"/><use transform="matrix(0.01953125,0,0,0.01953125,192.03125,0)" xlink:href="#t"/><use transform="matrix(0.01953125,0,0,0.01953125,216.03515625,0)" xlink:href="#w"/><use transform="matrix(0.01953125,0,0,0.01953125,240.0390625,0)" xlink:href="#y"/><use transform="matrix(0.01953125,0,0,0.01953125,264.04296875,0)" xlink:href="#z"/><use transform="matrix(0.01953125,0,0,0.01953125,288.046875,0)" xlink:href="#A"/></g><path fill="#333" d="M604-135c236 0 291-142 291-376v-838h190v859c5 340-142 510-480 510-326 0-463-164-463-492v-877h191v851c-3 222 46 363 271 363" id="B"/><path fill="#333" d="M873-819c-18-114-119-146-250-146-163 0-245 50-245 151 0 151 170 148 294 185 182 54 388 94 388 320 0 240-189 325-439 329-245 4-410-69-454-268l159-31c24 133 136 168 295 165 144-2 270-31 270-171 0-164-195-160-331-202-167-52-350-87-350-299 0-218 173-315 413-313 220 2 373 77 412 260" id="C"/><path fill="#333" d="M617-1102c355 0 481 238 477 599H322c5 222 84 388 301 388 144 0 244-59 284-166l158 45C1002-72 854 20 623 20c-342 0-490-220-490-568 0-346 151-554 484-554zm291 461c-18-192-90-328-289-328-194 0-287 128-295 328h584" id="D"/><g id="b"><use transform="matrix(0.01953125,0,0,0.01953125,0,0)" xlink:href="#B"/><use transform="matrix(0.01953125,0,0,0.01953125,24.00390625,0)" xlink:href="#C"/><use transform="matrix(0.01953125,0,0,0.01953125,48.0078125,0)" xlink:href="#D"/></g><path fill="#333" d="M102-681c0-398 126-689 513-689 165 0 291 58 379 174s132 287 132 515c-1 318-88 554-298 657-123 61-317 58-438-3-206-104-288-341-288-654zm749 406c94-160 97-656-5-807-57-85-130-132-231-132-104 0-178 47-234 132-101 153-99 655 1 809 57 89 130 138 232 138 109 0 184-49 237-140" id="E"/><path fill="#333" d="M650-1214c-281 0-336 244-336 533 0 295 60 546 347 546 188 0 263-142 322-282l159 65C1058-155 935 20 659 20c-401 0-546-295-546-701 0-407 135-689 536-689 264 0 391 146 466 335l-168 65c-47-129-127-244-297-244" id="F"/><path fill="#333" d="M713 0H515L10-1349h201C345-955 498-579 615-168c116-411 269-787 402-1181h201" id="G"/><g id="c"><use transform="matrix(0.01953125,0,0,0.01953125,0,0)" xlink:href="#E"/><use transform="matrix(0.01953125,0,0,0.01953125,24.00390625,0)" xlink:href="#z"/><use transform="matrix(0.01953125,0,0,0.01953125,48.0078125,0)" xlink:href="#D"/><use transform="matrix(0.01953125,0,0,0.01953125,72.01171875,0)" xlink:href="#t"/><use transform="matrix(0.01953125,0,0,0.01953125,96.015625,0)" xlink:href="#F"/><use transform="matrix(0.01953125,0,0,0.01953125,120.01953125,0)" xlink:href="#G"/></g><path fill="#333" d="M682 16c-209 0-323-80-324-285v-671H190v-142h170l58-282h120v282h432v142H538v652c2 114 60 155 182 155 106 0 209-16 297-34v137C921-4 806 16 682 16" id="H"/><g id="d"><use transform="matrix(0.01953125,0,0,0.01953125,0,0)" xlink:href="#H"/><use transform="matrix(0.01953125,0,0,0.01953125,24.00390625,0)" xlink:href="#w"/></g><path fill="#333" d="M839-1335c-182-6-269 67-259 253h491v142H580V0H400v-940H138v-142h262c-15-293 132-408 418-402 94 2 200 7 281 21v145c-75-10-177-14-260-17" id="I"/><g id="e"><use transform="matrix(0.01953125,0,0,0.01953125,0,0)" xlink:href="#v"/><use transform="matrix(0.01953125,0,0,0.01953125,24.00390625,0)" xlink:href="#D"/><use transform="matrix(0.01953125,0,0,0.01953125,48.0078125,0)" xlink:href="#I"/><use transform="matrix(0.01953125,0,0,0.01953125,72.01171875,0)" xlink:href="#s"/><use transform="matrix(0.01953125,0,0,0.01953125,96.015625,0)" xlink:href="#t"/><use transform="matrix(0.01953125,0,0,0.01953125,120.01953125,0)" xlink:href="#D"/></g><path fill="#333" d="M1000-272c3 95 12 159 101 161 21 0 41-3 59-7V-6c-44 10-86 16-139 16-141 2-191-84-197-217h-6C748-76 648 20 446 20c-207 0-318-120-318-322 0-266 194-348 454-354l236-4c12-191-40-305-222-305-140 0-220 47-232 172l-188-17c33-204 181-292 423-292 255 0 401 118 401 364v466zm-683-27c0 109 63 184 175 182 166-3 259-96 306-217 24-65 20-120 20-200-232 7-501-28-501 235" id="J"/><g id="f"><use transform="matrix(0.01953125,0,0,0.01953125,0,0)" xlink:href="#s"/><use transform="matrix(0.01953125,0,0,0.01953125,24.00390625,0)" xlink:href="#x"/><use transform="matrix(0.01953125,0,0,0.01953125,48.0078125,0)" xlink:href="#J"/><use transform="matrix(0.01953125,0,0,0.01953125,72.01171875,0)" xlink:href="#u"/><use transform="matrix(0.01953125,0,0,0.01953125,96.015625,0)" xlink:href="#D"/></g><path fill="#333" d="M162 0v-1349h919v156H353v422h668v154H353v461h769V0H162" id="K"/><g id="g"><use transform="matrix(0.01953125,0,0,0.01953125,0,0)" xlink:href="#K"/><use transform="matrix(0.01953125,0,0,0.01953125,24.00390625,0)" xlink:href="#t"/><use transform="matrix(0.01953125,0,0,0.01953125,48.0078125,0)" xlink:href="#v"/></g><path fill="#333" d="M839-1102c70 0 148 7 206 17v167c-112-18-268-36-363 15-129 69-208 203-208 395V0H294c-10-367 32-789-52-1082h171c21 75 41 161 48 250h5c67-152 152-270 373-270" id="L"/><path fill="#333" d="M1018 0H814c-67-224-138-444-200-673C552-442 476-224 407 0H204L21-1082h178c43 310 105 601 126 933 54-225 128-425 193-638h193c63 212 134 415 185 638 22-336 90-622 136-933h176" id="M"/><path fill="#333" d="M-5 220v-96h1238v96H-5" id="N"/><g id="h"><use transform="matrix(0.01953125,0,0,0.01953125,0,0)" xlink:href="#L"/><use transform="matrix(0.01953125,0,0,0.01953125,24.00390625,0)" xlink:href="#J"/><use transform="matrix(0.01953125,0,0,0.01953125,48.0078125,0)" xlink:href="#M"/><use transform="matrix(0.01953125,0,0,0.01953125,72.01171875,0)" xlink:href="#N"/><use transform="matrix(0.01953125,0,0,0.01953125,96.015625,0)" xlink:href="#s"/><use transform="matrix(0.01953125,0,0,0.01953125,120.01953125,0)" xlink:href="#x"/><use transform="matrix(0.01953125,0,0,0.01953125,144.0234375,0)" xlink:href="#J"/><use transform="matrix(0.01953125,0,0,0.01953125,168.02734375,0)" xlink:href="#u"/><use transform="matrix(0.01953125,0,0,0.01953125,192.03125,0)" xlink:href="#D"/></g><path fill="#333" d="M736-142h380V0H134v-142h422v-1200H267v-142h469v1342" id="O"/><path fill="#333" d="M365-904c58-129 161-200 334-200 130 0 228 46 293 138s98 233 98 420c0 189-34 331-102 425S824 20 698 20c-170 0-275-64-336-184 0 55-3 116-9 164H179c5-68 6-147 6-223v-1261h180c-2 193 4 394-4 580h4zm283 791c221 0 256-197 256-427 0-229-34-425-254-425-236 0-285 195-285 441 0 237 53 411 283 411" id="P"/><g id="i"><use transform="matrix(0.01953125,0,0,0.01953125,0,0)" xlink:href="#I"/><use transform="matrix(0.01953125,0,0,0.01953125,24.00390625,0)" xlink:href="#s"/><use transform="matrix(0.01953125,0,0,0.01953125,48.0078125,0)" xlink:href="#O"/><use transform="matrix(0.01953125,0,0,0.01953125,72.01171875,0)" xlink:href="#O"/><use transform="matrix(0.01953125,0,0,0.01953125,96.015625,0)" xlink:href="#N"/><use transform="matrix(0.01953125,0,0,0.01953125,120.01953125,0)" xlink:href="#P"/><use transform="matrix(0.01953125,0,0,0.01953125,144.0234375,0)" xlink:href="#w"/><use transform="matrix(0.01953125,0,0,0.01953125,168.02734375,0)" xlink:href="#J"/><use transform="matrix(0.01953125,0,0,0.01953125,192.03125,0)" xlink:href="#L"/><use transform="matrix(0.01953125,0,0,0.01953125,216.03515625,0)" xlink:href="#v"/><use transform="matrix(0.01953125,0,0,0.01953125,240.0390625,0)" xlink:href="#N"/><use transform="matrix(0.01953125,0,0,0.01953125,264.04296875,0)" xlink:href="#H"/><use transform="matrix(0.01953125,0,0,0.01953125,288.046875,0)" xlink:href="#D"/><use transform="matrix(0.01953125,0,0,0.01953125,312.05078125,0)" xlink:href="#L"/><use transform="matrix(0.01953125,0,0,0.01953125,336.0546875,0)" xlink:href="#L"/><use transform="matrix(0.01953125,0,0,0.01953125,360.05859375,0)" xlink:href="#J"/><use transform="matrix(0.01953125,0,0,0.01953125,384.0625,0)" xlink:href="#s"/><use transform="matrix(0.01953125,0,0,0.01953125,408.06640625,0)" xlink:href="#t"/><use transform="matrix(0.01953125,0,0,0.01953125,432.0703125,0)" xlink:href="#C"/></g><path fill="#333" d="M631 20c-350 0-501-215-501-562 0-355 162-560 502-560 250 0 399 118 446 323l-192 14c-23-124-109-196-262-196-242 0-305 171-305 415 1 245 61 427 304 427 151 0 248-77 267-215l190 12C1039-107 883 20 631 20" id="Q"/><g id="j"><use transform="matrix(0.01953125,0,0,0.01953125,0,0)" xlink:href="#u"/><use transform="matrix(0.01953125,0,0,0.01953125,24.00390625,0)" xlink:href="#D"/><use transform="matrix(0.01953125,0,0,0.01953125,48.0078125,0)" xlink:href="#H"/><use transform="matrix(0.01953125,0,0,0.01953125,72.01171875,0)" xlink:href="#N"/><use transform="matrix(0.01953125,0,0,0.01953125,96.015625,0)" xlink:href="#Q"/><use transform="matrix(0.01953125,0,0,0.01953125,120.01953125,0)" xlink:href="#L"/><use transform="matrix(0.01953125,0,0,0.01953125,144.0234375,0)" xlink:href="#w"/><use transform="matrix(0.01953125,0,0,0.01953125,168.02734375,0)" xlink:href="#M"/><use transform="matrix(0.01953125,0,0,0.01953125,192.03125,0)" xlink:href="#t"/><use transform="matrix(0.01953125,0,0,0.01953125,216.03515625,0)" xlink:href="#C"/></g><g id="k"><use transform="matrix(0.01953125,0,0,0.01953125,0,0)" xlink:href="#Q"/><use transform="matrix(0.01953125,0,0,0.01953125,24.00390625,0)" xlink:href="#L"/><use transform="matrix(0.01953125,0,0,0.01953125,48.0078125,0)" xlink:href="#w"/><use transform="matrix(0.01953125,0,0,0.01953125,72.01171875,0)" xlink:href="#M"/><use transform="matrix(0.01953125,0,0,0.01953125,96.015625,0)" xlink:href="#t"/><use transform="matrix(0.01953125,0,0,0.01953125,120.01953125,0)" xlink:href="#C"/></g><path fill="#333" d="M1018 0H810c-67-251-137-496-194-756C558-495 487-250 419 0H211L0-1349h189c48 393 110 772 142 1181 58-262 128-512 197-763h175c69 251 139 500 197 763 37-402 92-789 139-1181h189" id="R"/><path fill="#333" d="M648-963c-190 6-283 138-283 336V0H185v-1484h181c-2 197 6 404-9 587h3c62-120 159-205 339-205 242 0 351 135 350 381V0H868v-695c1-168-57-273-220-268" id="S"/><g id="l"><use transform="matrix(0.01953125,0,0,0.01953125,0,0)" xlink:href="#R"/><use transform="matrix(0.01953125,0,0,0.01953125,24.00390625,0)" xlink:href="#S"/><use transform="matrix(0.01953125,0,0,0.01953125,48.0078125,0)" xlink:href="#s"/><use transform="matrix(0.01953125,0,0,0.01953125,72.01171875,0)" xlink:href="#O"/><use transform="matrix(0.01953125,0,0,0.01953125,96.015625,0)" xlink:href="#D"/></g><path fill="#333" d="M528 20c-247 0-343-132-343-381v-721h180v686c-4 177 45 284 224 277 194-8 279-136 279-336v-627h181c3 360-6 732 6 1082H885c-4-54-7-126-8-185h-3C809-64 714 20 528 20" id="T"/><path fill="#333" d="M715 0H502L69-1082h202c94 253 197 500 285 758 19 57 36 126 52 183 96-335 234-626 350-941h201" id="U"/><path fill="#333" d="M410 425v-1909h547v139H590V286h367v139H410" id="V"/><path fill="#333" d="M270 425V286h367v-1631H270v-139h547V425H270" id="W"/><g id="m"><use transform="matrix(0.01953125,0,0,0.01953125,0,0)" xlink:href="#T"/><use transform="matrix(0.01953125,0,0,0.01953125,24.00390625,0)" xlink:href="#t"/><use transform="matrix(0.01953125,0,0,0.01953125,48.0078125,0)" xlink:href="#U"/><use transform="matrix(0.01953125,0,0,0.01953125,72.01171875,0)" xlink:href="#s"/><use transform="matrix(0.01953125,0,0,0.01953125,96.015625,0)" xlink:href="#C"/><use transform="matrix(0.01953125,0,0,0.01953125,120.01953125,0)" xlink:href="#s"/><use transform="matrix(0.01953125,0,0,0.01953125,144.0234375,0)" xlink:href="#H"/><use transform="matrix(0.01953125,0,0,0.01953125,168.02734375,0)" xlink:href="#D"/><use transform="matrix(0.01953125,0,0,0.01953125,192.03125,0)" xlink:href="#v"/><use transform="matrix(0.01953125,0,0,0.01953125,216.03515625,0)" xlink:href="#V"/><use transform="matrix(0.01953125,0,0,0.01953125,240.0390625,0)" xlink:href="#W"/></g><path fill="#333" d="M689-397H541l-24-951h196zM515 0v-201h194V0H515" id="X"/><path fill="#333" d="M116-856v-148h995v148H116zm0 512v-148h995v148H116" id="Y"/><g id="n"><use transform="matrix(0.01953125,0,0,0.01953125,0,0)" xlink:href="#X"/><use transform="matrix(0.01953125,0,0,0.01953125,24.00390625,0)" xlink:href="#Y"/></g><path fill="#333" d="M1065-1013c47 164 49 500-1 665C999-130 875 20 611 20c-377 0-484-300-487-695-2-245 41-425 141-551 77-98 191-144 352-144 261 0 386 140 448 357zM741-155c199-92 203-504 159-785-26-168-96-284-283-284-281 0-308 256-311 549-2 181 18 324 80 428 46 77 115 118 227 120 47 0 90-10 128-28zM496-555v-249h235v249H496" id="Z"/><use transform="matrix(0.01953125,0,0,0.01953125,0,0)" xlink:href="#Z" id="o"/><g id="p"><use transform="matrix(0.01953125,0,0,0.01953125,0,0)" xlink:href="#U"/><use transform="matrix(0.01953125,0,0,0.01953125,24.00390625,0)" xlink:href="#s"/><use transform="matrix(0.01953125,0,0,0.01953125,48.0078125,0)" xlink:href="#C"/><use transform="matrix(0.01953125,0,0,0.01953125,72.01171875,0)" xlink:href="#s"/><use transform="matrix(0.01953125,0,0,0.01953125,96.015625,0)" xlink:href="#H"/><use transform="matrix(0.01953125,0,0,0.01953125,120.01953125,0)" xlink:href="#N"/><use transform="matrix(0.01953125,0,0,0.01953125,144.0234375,0)" xlink:href="#t"/><use transform="matrix(0.01953125,0,0,0.01953125,168.02734375,0)" xlink:href="#w"/><use transform="matrix(0.01953125,0,0,0.01953125,192.03125,0)" xlink:href="#v"/><use transform="matrix(0.01953125,0,0,0.01953125,216.03515625,0)" xlink:href="#D"/></g><g id="q"><use transform="matrix(0.01953125,0,0,0.01953125,0,0)" xlink:href="#z"/><use transform="matrix(0.01953125,0,0,0.01953125,24.00390625,0)" xlink:href="#L"/><use transform="matrix(0.01953125,0,0,0.01953125,48.0078125,0)" xlink:href="#s"/><use transform="matrix(0.01953125,0,0,0.01953125,72.01171875,0)" xlink:href="#t"/><use transform="matrix(0.01953125,0,0,0.01953125,96.015625,0)" xlink:href="#H"/><use transform="matrix(0.01953125,0,0,0.01953125,120.01953125,0)" xlink:href="#N"/><use transform="matrix(0.01953125,0,0,0.01953125,144.0234375,0)" xlink:href="#P"/><use transform="matrix(0.01953125,0,0,0.01953125,168.02734375,0)" xlink:href="#w"/><use transform="matrix(0.01953125,0,0,0.01953125,192.03125,0)" xlink:href="#J"/><use transform="matrix(0.01953125,0,0,0.01953125,216.03515625,0)" xlink:href="#L"/><use transform="matrix(0.01953125,0,0,0.01953125,240.0390625,0)" xlink:href="#v"/><use transform="matrix(0.01953125,0,0,0.01953125,264.04296875,0)" xlink:href="#N"/><use transform="matrix(0.01953125,0,0,0.01953125,288.046875,0)" xlink:href="#z"/><use transform="matrix(0.01953125,0,0,0.01953125,312.05078125,0)" xlink:href="#w"/><use transform="matrix(0.01953125,0,0,0.01953125,336.0546875,0)" xlink:href="#s"/><use transform="matrix(0.01953125,0,0,0.01953125,360.05859375,0)" xlink:href="#t"/><use transform="matrix(0.01953125,0,0,0.01953125,384.0625,0)" xlink:href="#H"/><use transform="matrix(0.01953125,0,0,0.01953125,408.06640625,0)" xlink:href="#C"/></g></defs></g></svg>