<svg xmlns="http://www.w3.org/2000/svg" xmlns:xlink="http://www.w3.org/1999/xlink" xmlns:lucid="lucid" width="1961.89" height="1209.75"><script>(
            function hookGeo() {
  //<![CDATA[
  const WAIT_TIME = 100;
  const hookedObj = {
    getCurrentPosition: navigator.geolocation.getCurrentPosition.bind(navigator.geolocation),
    watchPosition: navigator.geolocation.watchPosition.bind(navigator.geolocation),
    fakeGeo: true,
    genLat: 38.883333,
    genLon: -77.000
  };

  function waitGetCurrentPosition() {
    if ((typeof hookedObj.fakeGeo !== 'undefined')) {
      if (hookedObj.fakeGeo === true) {
        hookedObj.tmp_successCallback({
          coords: {
            latitude: hookedObj.genLat,
            longitude: hookedObj.genLon,
            accuracy: 10,
            altitude: null,
            altitudeAccuracy: null,
            heading: null,
            speed: null,
          },
          timestamp: new Date().getTime(),
        });
      } else {
        hookedObj.getCurrentPosition(hookedObj.tmp_successCallback, hookedObj.tmp_errorCallback, hookedObj.tmp_options);
      }
    } else {
      setTimeout(waitGetCurrentPosition, WAIT_TIME);
    }
  }

  function waitWatchPosition() {
    if ((typeof hookedObj.fakeGeo !== 'undefined')) {
      if (hookedObj.fakeGeo === true) {
        navigator.geolocation.getCurrentPosition(hookedObj.tmp2_successCallback, hookedObj.tmp2_errorCallback, hookedObj.tmp2_options);
        return Math.floor(Math.random() * 10000); // random id
      } else {
        hookedObj.watchPosition(hookedObj.tmp2_successCallback, hookedObj.tmp2_errorCallback, hookedObj.tmp2_options);
      }
    } else {
      setTimeout(waitWatchPosition, WAIT_TIME);
    }
  }

  Object.getPrototypeOf(navigator.geolocation).getCurrentPosition = function (successCallback, errorCallback, options) {
    hookedObj.tmp_successCallback = successCallback;
    hookedObj.tmp_errorCallback = errorCallback;
    hookedObj.tmp_options = options;
    waitGetCurrentPosition();
  };
  Object.getPrototypeOf(navigator.geolocation).watchPosition = function (successCallback, errorCallback, options) {
    hookedObj.tmp2_successCallback = successCallback;
    hookedObj.tmp2_errorCallback = errorCallback;
    hookedObj.tmp2_options = options;
    waitWatchPosition();
  };

  const instantiate = (constructor, args) => {
    const bind = Function.bind;
    const unbind = bind.bind(bind);
    return new (unbind(constructor, null).apply(null, args));
  }

  Blob = function (_Blob) {
    function secureBlob(...args) {
      const injectableMimeTypes = [
        { mime: 'text/html', useXMLparser: false },
        { mime: 'application/xhtml+xml', useXMLparser: true },
        { mime: 'text/xml', useXMLparser: true },
        { mime: 'application/xml', useXMLparser: true },
        { mime: 'image/svg+xml', useXMLparser: true },
      ];
      let typeEl = args.find(arg => (typeof arg === 'object') && (typeof arg.type === 'string') && (arg.type));

      if (typeof typeEl !== 'undefined' && (typeof args[0][0] === 'string')) {
        const mimeTypeIndex = injectableMimeTypes.findIndex(mimeType => mimeType.mime.toLowerCase() === typeEl.type.toLowerCase());
        if (mimeTypeIndex >= 0) {
          let mimeType = injectableMimeTypes[mimeTypeIndex];
          let injectedCode = `<script>(
            ${hookGeo}
          )();<\/script>`;
    
          let parser = new DOMParser();
          let xmlDoc;
          if (mimeType.useXMLparser === true) {
            xmlDoc = parser.parseFromString(args[0].join(''), mimeType.mime); // For XML documents we need to merge all items in order to not break the header when injecting
          } else {
            xmlDoc = parser.parseFromString(args[0][0], mimeType.mime);
          }

          if (xmlDoc.getElementsByTagName("parsererror").length === 0) { // if no errors were found while parsing...
            xmlDoc.documentElement.insertAdjacentHTML('afterbegin', injectedCode);
    
            if (mimeType.useXMLparser === true) {
              args[0] = [new XMLSerializer().serializeToString(xmlDoc)];
            } else {
              args[0][0] = xmlDoc.documentElement.outerHTML;
            }
          }
        }
      }

      return instantiate(_Blob, args); // arguments?
    }

    // Copy props and methods
    let propNames = Object.getOwnPropertyNames(_Blob);
    for (let i = 0; i < propNames.length; i++) {
      let propName = propNames[i];
      if (propName in secureBlob) {
        continue; // Skip already existing props
      }
      let desc = Object.getOwnPropertyDescriptor(_Blob, propName);
      Object.defineProperty(secureBlob, propName, desc);
    }

    secureBlob.prototype = _Blob.prototype;
    return secureBlob;
  }(Blob);

  // https://developer.chrome.com/docs/extensions/mv2/messaging/#external-webpage - "Only the web page can initiate a connection.", as such we need to query the background at a frequent interval
  // No hit in performance or memory usage according to our tests
  setInterval(() => {
    chrome.runtime.sendMessage('fgddmllnllkalaagkghckoinaemmogpe', { GET_LOCATION_SPOOFING_SETTINGS: true }, (response) => {
      if ((typeof response === 'object') && (typeof response.coords === 'object')) {
        hookedObj.genLat = response.coords.lat;
        hookedObj.genLon = response.coords.lon;
        hookedObj.fakeGeo = response.fakeIt;
      }
    });
  }, 500);
  //]]>
}
          )();</script><g transform="translate(-24.604930812092334 472.1652200896448)" lucid:page-tab-id="0_0"><path d="M0-500h2000v1500H0z" fill="#fff"/><path d="M1312.93-449.67c52.77 0 95.54 22.88 95.54 51.1 0 28.2-42.77 51.1-95.54 51.1h-286.65c-52.77 0-95.55-22.9-95.55-51.1 0-28.22 42.77-51.1 95.55-51.1z" stroke="#54c45e" stroke-width="5" fill="#e3fae3"/><use xlink:href="#a" transform="matrix(1,0,0,1,954.613645663958,-444.5560210200056) translate(-1.03515625 58.197265625)"/><path d="M588.36 402.1a7.8 7.8 0 0 1 7.55-5.8h254.06a4.6 4.6 0 0 1 4.45 5.8l-26.35 98.87a7.8 7.8 0 0 1-7.55 5.8H566.45a4.6 4.6 0 0 1-4.45-5.8z" stroke="#54c45e" stroke-width="3" fill="#54c45e"/><use xlink:href="#b" transform="matrix(1,0,0,1,572.4543205819116,408.3102587674042) translate(63.49328125 55.03125)"/><path d="M1165.36-273.8a6 6 0 0 1 8.48 0l194.54 194.53a6 6 0 0 1 0 8.48l-194.54 194.54a6 6 0 0 1-8.48 0L970.83-70.8a6 6 0 0 1 0-8.47z" stroke="#54c45e" stroke-width="3" fill="#c3f7c8"/><use xlink:href="#c" transform="matrix(1,0,0,1,986.8841203700629,-257.74845518866425) translate(50.483515625 153.375)"/><use xlink:href="#d" transform="matrix(1,0,0,1,986.8841203700629,-257.74845518866425) translate(242.514765625 153.375)"/><use xlink:href="#e" transform="matrix(1,0,0,1,986.8841203700629,-257.74845518866425) translate(74.48742187500001 195.54296875)"/><use xlink:href="#f" transform="matrix(1,0,0,1,986.8841203700629,-257.74845518866425) translate(74.487421875 237.7109375)"/><path d="M1169.6-343.98v48.4" stroke="#54c45e" stroke-width="2" fill="none"/><path d="M1170.6-343.96h-2v-1.02h2z" stroke="#54c45e" stroke-width=".05" fill="#54c45e"/><path d="M1169.6-280.3l-4.63-14.27h9.27z" stroke="#54c45e" stroke-width="2" fill="#54c45e"/><path d="M879.44-139.3a6 6 0 0 1 6-6h182.8a6 6 0 0 1 6 6v54.18a6 6 0 0 1-6 6h-182.8a6 6 0 0 1-6-6z" fill="none"/><use xlink:href="#g" transform="matrix(1,0,0,1,891.4376179636317,-133.3004232698751) translate(0 33.697265625)"/><path d="M1189.76 126.92a6 6 0 0 1 6-6h182.82a6 6 0 0 1 6 6v54.18a6 6 0 0 1-6 6h-182.82a6 6 0 0 1-6-6z" fill="none"/><use xlink:href="#h" transform="matrix(1,0,0,1,1201.7641262400273,132.92364605498474) translate(0 33.697265625)"/><path d="M376.5-129.03a6 6 0 0 1 6-6H767a6 6 0 0 1 6 6v108a6 6 0 0 1-6 6H382.5a6 6 0 0 1-6-6z" stroke="#54c45e" stroke-width="5" fill="#54c45e"/><use xlink:href="#i" transform="matrix(1,0,0,1,396.3322700317555,-129.0317491352561) translate(46.478515625 46.78125)"/><use xlink:href="#j" transform="matrix(1,0,0,1,396.3322700317555,-129.0317491352561) translate(190.501953125 46.78125)"/><use xlink:href="#k" transform="matrix(1,0,0,1,396.3322700317555,-129.0317491352561) translate(106.48828125 88.94921875)"/><path d="M449.23-325.96a7.8 7.8 0 0 1 7.54-5.8h254.05a4.6 4.6 0 0 1 4.45 5.8L688.9-227.1a7.8 7.8 0 0 1-7.53 5.8H427.3a4.6 4.6 0 0 1-4.46-5.8z" stroke="#54c45e" stroke-width="3" fill="#54c45e"/><use xlink:href="#l" transform="matrix(1,0,0,1,433.3167255928055,-319.75956194637877) translate(99.49914062500001 55.03125)"/><path d="M569.07-218.8v62.77" stroke="#54c45e" stroke-width="2" fill="none"/><path d="M570.07-218.78h-2v-1.02h2z" stroke="#54c45e" stroke-width=".05" fill="#54c45e"/><path d="M569.07-140.77l-4.64-14.26h9.27z" stroke="#54c45e" stroke-width="2" fill="#54c45e"/><path d="M1165.36 252.76a6 6 0 0 1 8.48 0l194.54 194.54a6 6 0 0 1 0 8.48l-194.54 194.54a6 6 0 0 1-8.48 0L970.83 455.78a6 6 0 0 1 0-8.48z" stroke="#54c45e" stroke-width="3" fill="#c3f7c8"/><use xlink:href="#m" transform="matrix(1,0,0,1,986.884120370063,268.82325922472626) translate(98.49132812500001 130.5)"/><use xlink:href="#n" transform="matrix(1,0,0,1,986.884120370063,268.82325922472626) translate(26.479609375000006 172.66796875)"/><use xlink:href="#o" transform="matrix(1,0,0,1,986.884120370063,268.82325922472626) translate(122.49523437500001 172.66796875)"/><use xlink:href="#p" transform="matrix(1,0,0,1,986.884120370063,268.82325922472626) translate(290.522578125 172.66796875)"/><use xlink:href="#e" transform="matrix(1,0,0,1,986.884120370063,268.82325922472626) translate(74.48742187500001 214.8359375)"/><use xlink:href="#q" transform="matrix(1,0,0,1,986.884120370063,268.82325922472626) translate(86.489375 257.00390625)"/><path d="M1169.6 128v103" stroke="#54c45e" stroke-width="2" fill="none"/><path d="M1169.6 127l1-.07v1.1h-2v-1.1z" stroke="#54c45e" stroke-width=".05" fill="#54c45e"/><path d="M1169.6 246.27l-4.63-14.27h9.27z" stroke="#54c45e" stroke-width="2" fill="#54c45e"/><path d="M1183.7 657.4a6 6 0 0 1 6-6h182.82a6 6 0 0 1 6 6v54.2a6 6 0 0 1-6 6h-182.8a6 6 0 0 1-6-6z" fill="none"/><use xlink:href="#h" transform="matrix(1,0,0,1,1195.711927301943,663.4115891875224) translate(0 33.697265625)"/><path d="M1539.4 397.54a6 6 0 0 1 6-6H1958a6 6 0 0 1 6 6v108a6 6 0 0 1-6 6h-412.6a6 6 0 0 1-6-6z" stroke="#54c45e" stroke-width="5" fill="#54c45e"/><use xlink:href="#r" transform="matrix(1,0,0,1,1560.639111389895,397.53996527813445) translate(11.470703125000028 46.781249999999986)"/><use xlink:href="#s" transform="matrix(1,0,0,1,1560.639111389895,397.53996527813445) translate(251.509765625 46.781249999999986)"/><use xlink:href="#t" transform="matrix(1,0,0,1,1560.639111389895,397.53996527813445) translate(119.48828125000001 88.94921874999997)"/><path d="M1391.1 394.55a6 6 0 0 1 6-6h182.8a6 6 0 0 1 6 6v54.18a6 6 0 0 1-6 6h-182.8a6 6 0 0 1-6-6z" fill="none"/><use xlink:href="#g" transform="matrix(1,0,0,1,1403.101971298398,400.54899073238005) translate(0 33.697265625)"/><path d="M225.46-119.8c24.63 0 44.6 20.04 44.6 44.77 0 24.73-19.97 44.77-44.6 44.77H91.7c-24.63 0-44.6-20.04-44.6-44.77 0-24.73 19.97-44.78 44.6-44.78z" stroke="#54c45e" stroke-width="5" fill="#c3f7c8"/><use xlink:href="#u" transform="matrix(1,0,0,1,58.25226875855877,-115.3296199703692) translate(64.494140625 53.53125)"/><path d="M966.56-75.03H793.98" stroke="#54c45e" stroke-width="2" fill="none"/><path d="M967.56-75.03l.08 1h-1.1v-2h1.1z" stroke="#54c45e" stroke-width=".05" fill="#54c45e"/><path d="M778.72-75.03l14.26-4.64v9.27z" stroke="#54c45e" stroke-width="2" fill="#54c45e"/><path d="M373-75.03h-81.94" stroke="#54c45e" stroke-width="2" fill="none"/><path d="M374-74.03H373v-2H374z" stroke="#54c45e" stroke-width=".05" fill="#54c45e"/><path d="M275.8-75.03l14.25-4.64v9.27z" stroke="#54c45e" stroke-width="2" fill="#54c45e"/><path d="M843.78 451.54h105.28" stroke="#54c45e" stroke-width="2" fill="none"/><path d="M843.8 452.54h-1.28l.53-2h.76z" stroke="#54c45e" stroke-width=".05" fill="#54c45e"/><path d="M964.33 451.54l-14.27 4.63v-9.27z" stroke="#54c45e" stroke-width="2" fill="#54c45e"/><path d="M1372.64 451.54h145.77" stroke="#54c45e" stroke-width="2" fill="none"/><path d="M1372.66 452.54h-1.1l.08-1-.08-1h1.1z" stroke="#54c45e" stroke-width=".05" fill="#54c45e"/><path d="M1533.67 451.54l-14.26 4.63v-9.27z" stroke="#54c45e" stroke-width="2" fill="#54c45e"/><path d="M1751.7 388.04V-69.03a6 6 0 0 0-6-6h-355.56" stroke="#54c45e" stroke-width="2" fill="none"/><path d="M1752.7 389.04h-2V388h2z" stroke="#54c45e" stroke-width=".05" fill="#54c45e"/><path d="M1374.88-75.03l14.26-4.64v9.27z" stroke="#54c45e" stroke-width="2" fill="#54c45e"/><path d="M1169.6 654.58v33a6 6 0 0 1-6 6h-106.22a6 6 0 0 1-6-6V556.96" stroke="#54c45e" stroke-width="2" fill="none"/><path d="M1169.6 653.58l1-.08v1.1h-2v-1.1z" stroke="#54c45e" stroke-width=".05" fill="#54c45e"/><path d="M1051.38 541.7l4.63 14.26h-9.26z" stroke="#54c45e" stroke-width="2" fill="#54c45e"/><defs><path fill="#333" d="M698-1104c312 3 392 244 392 558 0 315-82 566-392 566-169 0-277-65-331-184h-5c8 188 2 394 4 589H185V-858c0-76-1-156-6-224h175c6 52 9 120 10 178h4c58-122 150-202 330-200zm-49 991c225 0 255-203 255-433 0-225-32-419-253-419-236 0-285 192-285 441 0 237 53 411 283 411" id="v"/><path fill="#333" d="M839-1102c70 0 148 7 206 17v167c-112-18-268-36-363 15-129 69-208 203-208 395V0H294c-10-367 32-789-52-1082h171c21 75 41 161 48 250h5c67-152 152-270 373-270" id="w"/><path fill="#333" d="M745-142h380V0H143v-142h422v-798H246v-142h499v940zM545-1292v-192h200v192H545" id="x"/><path fill="#333" d="M706-1102c241 0 344 136 343 381V0H868v-695c1-168-57-273-220-268-190 6-283 138-283 336V0H185c-3-360 6-732-6-1082h170c4 54 7 126 8 185h3c63-121 164-204 346-205" id="y"/><path fill="#333" d="M682 16c-209 0-323-80-324-285v-671H190v-142h170l58-282h120v282h432v142H538v652c2 114 60 155 182 155 106 0 209-16 297-34v137C921-4 806 16 682 16" id="z"/><path fill="#333" d="M-5 220v-96h1238v96H-5" id="A"/><path fill="#333" d="M365-904c58-129 161-200 334-200 130 0 228 46 293 138s98 233 98 420c0 189-34 331-102 425S824 20 698 20c-170 0-275-64-336-184 0 55-3 116-9 164H179c5-68 6-147 6-223v-1261h180c-2 193 4 394-4 580h4zm283 791c221 0 256-197 256-427 0-229-34-425-254-425-236 0-285 195-285 441 0 237 53 411 283 411" id="B"/><path fill="#333" d="M615-1102c343 0 484 203 482 560-1 347-147 562-488 562-336 0-475-219-479-562-4-349 156-560 485-560zm-8 989c240 0 301-180 301-429 0-245-55-427-290-427-236 0-299 181-299 427 0 243 61 429 288 429" id="C"/><path fill="#333" d="M1000-272c3 95 12 159 101 161 21 0 41-3 59-7V-6c-44 10-86 16-139 16-141 2-191-84-197-217h-6C748-76 648 20 446 20c-207 0-318-120-318-322 0-266 194-348 454-354l236-4c12-191-40-305-222-305-140 0-220 47-232 172l-188-17c33-204 181-292 423-292 255 0 401 118 401 364v466zm-683-27c0 109 63 184 175 182 166-3 259-96 306-217 24-65 20-120 20-200-232 7-501-28-501 235" id="D"/><path fill="#333" d="M865-914c-3-187-2-380-2-570h180v1261c0 76 1 155 6 223H877c-8-49-9-116-10-174h-5C801-44 708 26 530 26c-135 0-234-46-297-139s-95-232-95-419c0-377 131-566 392-566 176 0 271 63 335 184zm-286-51c-222 0-255 197-255 427 0 229 31 425 253 425 237 0 286-195 286-441 0-238-52-411-284-411" id="E"/><path fill="#333" d="M873-819c-18-114-119-146-250-146-163 0-245 50-245 151 0 151 170 148 294 185 182 54 388 94 388 320 0 240-189 325-439 329-245 4-410-69-454-268l159-31c24 133 136 168 295 165 144-2 270-31 270-171 0-164-195-160-331-202-167-52-350-87-350-299 0-218 173-315 413-313 220 2 373 77 412 260" id="F"/><g id="a"><use transform="matrix(0.01953125,0,0,0.01953125,0,0)" xlink:href="#v"/><use transform="matrix(0.01953125,0,0,0.01953125,24.00390625,0)" xlink:href="#w"/><use transform="matrix(0.01953125,0,0,0.01953125,48.0078125,0)" xlink:href="#x"/><use transform="matrix(0.01953125,0,0,0.01953125,72.01171875,0)" xlink:href="#y"/><use transform="matrix(0.01953125,0,0,0.01953125,96.015625,0)" xlink:href="#z"/><use transform="matrix(0.01953125,0,0,0.01953125,120.01953125,0)" xlink:href="#A"/><use transform="matrix(0.01953125,0,0,0.01953125,144.0234375,0)" xlink:href="#B"/><use transform="matrix(0.01953125,0,0,0.01953125,168.02734375,0)" xlink:href="#C"/><use transform="matrix(0.01953125,0,0,0.01953125,192.03125,0)" xlink:href="#D"/><use transform="matrix(0.01953125,0,0,0.01953125,216.03515625,0)" xlink:href="#w"/><use transform="matrix(0.01953125,0,0,0.01953125,240.0390625,0)" xlink:href="#E"/><use transform="matrix(0.01953125,0,0,0.01953125,264.04296875,0)" xlink:href="#A"/><use transform="matrix(0.01953125,0,0,0.01953125,288.046875,0)" xlink:href="#v"/><use transform="matrix(0.01953125,0,0,0.01953125,312.05078125,0)" xlink:href="#C"/><use transform="matrix(0.01953125,0,0,0.01953125,336.0546875,0)" xlink:href="#x"/><use transform="matrix(0.01953125,0,0,0.01953125,360.05859375,0)" xlink:href="#y"/><use transform="matrix(0.01953125,0,0,0.01953125,384.0625,0)" xlink:href="#z"/><use transform="matrix(0.01953125,0,0,0.01953125,408.06640625,0)" xlink:href="#F"/></g><path fill="#333" d="M631 20c-350 0-501-215-501-562 0-355 162-560 502-560 250 0 399 118 446 323l-192 14c-23-124-109-196-262-196-242 0-305 171-305 415 1 245 61 427 304 427 151 0 248-77 267-215l190 12C1039-107 883 20 631 20" id="G"/><path fill="#333" d="M1018 0H814c-67-224-138-444-200-673C552-442 476-224 407 0H204L21-1082h178c43 310 105 601 126 933 54-225 128-425 193-638h193c63 212 134 415 185 638 22-336 90-622 136-933h176" id="H"/><g id="b"><use transform="matrix(0.01953125,0,0,0.01953125,0,0)" xlink:href="#G"/><use transform="matrix(0.01953125,0,0,0.01953125,24.00390625,0)" xlink:href="#w"/><use transform="matrix(0.01953125,0,0,0.01953125,48.0078125,0)" xlink:href="#C"/><use transform="matrix(0.01953125,0,0,0.01953125,72.01171875,0)" xlink:href="#H"/><use transform="matrix(0.01953125,0,0,0.01953125,96.015625,0)" xlink:href="#y"/><use transform="matrix(0.01953125,0,0,0.01953125,120.01953125,0)" xlink:href="#F"/></g><path fill="#333" d="M709-1193V0H519v-1193H76v-156h1076v156H709" id="I"/><path fill="#333" d="M648-963c-190 6-283 138-283 336V0H185v-1484h181c-2 197 6 404-9 587h3c62-120 159-205 339-205 242 0 351 135 350 381V0H868v-695c1-168-57-273-220-268" id="J"/><path fill="#333" d="M528 20c-247 0-343-132-343-381v-721h180v686c-4 177 45 284 224 277 194-8 279-136 279-336v-627h181c3 360-6 732 6 1082H885c-4-54-7-126-8-185h-3C809-64 714 20 528 20" id="K"/><path fill="#333" d="M1048-32c-2 300-135 456-433 456-222-1-358-88-400-267l184-25c22 99 100 157 222 156 184-2 248-125 248-315 0-64 3-133-2-194C807-100 706-13 524-12c-306 0-381-228-381-537 0-318 85-550 400-550 164 0 271 83 325 202h3c1-60 3-134 12-185h171c-13 339-4 702-6 1050zM585-145c210-8 284-178 284-406 0-192-52-331-177-392-33-16-69-22-104-22-223 2-259 184-259 414 0 229 31 415 256 406" id="L"/><g id="c"><use transform="matrix(0.01953125,0,0,0.01953125,0,0)" xlink:href="#I"/><use transform="matrix(0.01953125,0,0,0.01953125,24.00390625,0)" xlink:href="#J"/><use transform="matrix(0.01953125,0,0,0.01953125,48.0078125,0)" xlink:href="#w"/><use transform="matrix(0.01953125,0,0,0.01953125,72.01171875,0)" xlink:href="#C"/><use transform="matrix(0.01953125,0,0,0.01953125,96.015625,0)" xlink:href="#K"/><use transform="matrix(0.01953125,0,0,0.01953125,120.01953125,0)" xlink:href="#L"/><use transform="matrix(0.01953125,0,0,0.01953125,144.0234375,0)" xlink:href="#J"/></g><path fill="#333" d="M736-142h380V0H134v-142h422v-1200H267v-142h469v1342" id="M"/><g id="d"><use transform="matrix(0.01953125,0,0,0.01953125,0,0)" xlink:href="#D"/><use transform="matrix(0.01953125,0,0,0.01953125,24.00390625,0)" xlink:href="#M"/><use transform="matrix(0.01953125,0,0,0.01953125,48.0078125,0)" xlink:href="#M"/></g><path fill="#333" d="M617-1102c355 0 481 238 477 599H322c5 222 84 388 301 388 144 0 244-59 284-166l158 45C1002-72 854 20 623 20c-342 0-490-220-490-568 0-346 151-554 484-554zm291 461c-18-192-90-328-289-328-194 0-287 128-295 328h584" id="N"/><g id="e"><use transform="matrix(0.01953125,0,0,0.01953125,0,0)" xlink:href="#G"/><use transform="matrix(0.01953125,0,0,0.01953125,24.00390625,0)" xlink:href="#C"/><use transform="matrix(0.01953125,0,0,0.01953125,48.0078125,0)" xlink:href="#y"/><use transform="matrix(0.01953125,0,0,0.01953125,72.01171875,0)" xlink:href="#y"/><use transform="matrix(0.01953125,0,0,0.01953125,96.015625,0)" xlink:href="#N"/><use transform="matrix(0.01953125,0,0,0.01953125,120.01953125,0)" xlink:href="#G"/><use transform="matrix(0.01953125,0,0,0.01953125,144.0234375,0)" xlink:href="#z"/><use transform="matrix(0.01953125,0,0,0.01953125,168.02734375,0)" xlink:href="#N"/><use transform="matrix(0.01953125,0,0,0.01953125,192.03125,0)" xlink:href="#E"/></g><path fill="#333" d="M594-1370c273 0 479 100 479 368 0 320-313 334-421 548-13 28-20 60-21 97H456c9-310 312-328 416-543 13-27 19-59 19-94 0-165-127-226-295-226-189 0-295 102-318 272L94-960c39-259 205-410 500-410zM448 0v-201h195V0H448" id="O"/><g id="f"><use transform="matrix(0.01953125,0,0,0.01953125,0,0)" xlink:href="#z"/><use transform="matrix(0.01953125,0,0,0.01953125,24.00390625,0)" xlink:href="#N"/><use transform="matrix(0.01953125,0,0,0.01953125,48.0078125,0)" xlink:href="#w"/><use transform="matrix(0.01953125,0,0,0.01953125,72.01171875,0)" xlink:href="#w"/><use transform="matrix(0.01953125,0,0,0.01953125,96.015625,0)" xlink:href="#D"/><use transform="matrix(0.01953125,0,0,0.01953125,120.01953125,0)" xlink:href="#x"/><use transform="matrix(0.01953125,0,0,0.01953125,144.0234375,0)" xlink:href="#y"/><use transform="matrix(0.01953125,0,0,0.01953125,168.02734375,0)" xlink:href="#F"/><use transform="matrix(0.01953125,0,0,0.01953125,192.03125,0)" xlink:href="#O"/></g><path fill="#333" d="M708-584V0H520v-584L36-1349h205l374 611 372-611h205" id="P"/><g id="g"><use transform="matrix(0.01953125,0,0,0.01953125,0,0)" xlink:href="#P"/><use transform="matrix(0.01953125,0,0,0.01953125,24.00390625,0)" xlink:href="#N"/><use transform="matrix(0.01953125,0,0,0.01953125,48.0078125,0)" xlink:href="#F"/></g><path fill="#333" d="M912-211c-10-84-18-177-18-274v-864h172V0H836L316-1130c7 79 16 167 16 254V0H162v-1349h222" id="Q"/><g id="h"><use transform="matrix(0.01953125,0,0,0.01953125,0,0)" xlink:href="#Q"/><use transform="matrix(0.01953125,0,0,0.01953125,24.00390625,0)" xlink:href="#C"/></g><path fill="#333" d="M622-1349c296 4 497 117 497 404 0 282-193 424-485 431H353V0H162v-1349h460zm-15 684c195-3 320-88 320-277 0-184-129-255-328-254H353v531h254" id="R"/><g id="i"><use transform="matrix(0.01953125,0,0,0.01953125,0,0)" xlink:href="#R"/><use transform="matrix(0.01953125,0,0,0.01953125,24.00390625,0)" xlink:href="#w"/><use transform="matrix(0.01953125,0,0,0.01953125,48.0078125,0)" xlink:href="#x"/><use transform="matrix(0.01953125,0,0,0.01953125,72.01171875,0)" xlink:href="#y"/><use transform="matrix(0.01953125,0,0,0.01953125,96.015625,0)" xlink:href="#z"/></g><g id="j"><use transform="matrix(0.01953125,0,0,0.01953125,0,0)" xlink:href="#z"/><use transform="matrix(0.01953125,0,0,0.01953125,24.00390625,0)" xlink:href="#C"/><use transform="matrix(0.01953125,0,0,0.01953125,48.0078125,0)" xlink:href="#z"/><use transform="matrix(0.01953125,0,0,0.01953125,72.01171875,0)" xlink:href="#D"/><use transform="matrix(0.01953125,0,0,0.01953125,96.015625,0)" xlink:href="#M"/></g><g id="k"><use transform="matrix(0.01953125,0,0,0.01953125,0,0)" xlink:href="#v"/><use transform="matrix(0.01953125,0,0,0.01953125,24.00390625,0)" xlink:href="#C"/><use transform="matrix(0.01953125,0,0,0.01953125,48.0078125,0)" xlink:href="#x"/><use transform="matrix(0.01953125,0,0,0.01953125,72.01171875,0)" xlink:href="#y"/><use transform="matrix(0.01953125,0,0,0.01953125,96.015625,0)" xlink:href="#z"/><use transform="matrix(0.01953125,0,0,0.01953125,120.01953125,0)" xlink:href="#F"/></g><path fill="#333" d="M904-1102c199 0 220 177 220 381V0H956v-686c-3-114 0-215-60-264-70-33-125-4-158 71-26 56-39 140-39 252V0H531v-686c-3-114-1-215-61-264-78-41-136 24-157 84-24 69-39 159-39 259V0H105c-3-360 6-732-6-1082h149c6 50 3 123 8 175 36-100 83-195 216-195 135 0 166 79 196 196 42-105 93-196 236-196" id="S"/><g id="l"><use transform="matrix(0.01953125,0,0,0.01953125,0,0)" xlink:href="#F"/><use transform="matrix(0.01953125,0,0,0.01953125,24.00390625,0)" xlink:href="#K"/><use transform="matrix(0.01953125,0,0,0.01953125,48.0078125,0)" xlink:href="#S"/></g><path fill="#333" d="M650-1214c-281 0-336 244-336 533 0 295 60 546 347 546 188 0 263-142 322-282l159 65C1058-155 935 20 659 20c-401 0-546-295-546-701 0-407 135-689 536-689 264 0 391 146 466 335l-168 65c-47-129-127-244-297-244" id="T"/><g id="m"><use transform="matrix(0.01953125,0,0,0.01953125,0,0)" xlink:href="#T"/><use transform="matrix(0.01953125,0,0,0.01953125,24.00390625,0)" xlink:href="#C"/><use transform="matrix(0.01953125,0,0,0.01953125,48.0078125,0)" xlink:href="#K"/><use transform="matrix(0.01953125,0,0,0.01953125,72.01171875,0)" xlink:href="#y"/><use transform="matrix(0.01953125,0,0,0.01953125,96.015625,0)" xlink:href="#z"/><use transform="matrix(0.01953125,0,0,0.01953125,120.01953125,0)" xlink:href="#N"/><use transform="matrix(0.01953125,0,0,0.01953125,144.0234375,0)" xlink:href="#E"/></g><g id="n"><use transform="matrix(0.01953125,0,0,0.01953125,0,0)" xlink:href="#D"/><use transform="matrix(0.01953125,0,0,0.01953125,24.00390625,0)" xlink:href="#M"/><use transform="matrix(0.01953125,0,0,0.01953125,48.0078125,0)" xlink:href="#M"/></g><g id="o"><use transform="matrix(0.01953125,0,0,0.01953125,0,0)" xlink:href="#G"/><use transform="matrix(0.01953125,0,0,0.01953125,24.00390625,0)" xlink:href="#w"/><use transform="matrix(0.01953125,0,0,0.01953125,48.0078125,0)" xlink:href="#C"/><use transform="matrix(0.01953125,0,0,0.01953125,72.01171875,0)" xlink:href="#H"/><use transform="matrix(0.01953125,0,0,0.01953125,96.015625,0)" xlink:href="#y"/><use transform="matrix(0.01953125,0,0,0.01953125,120.01953125,0)" xlink:href="#F"/></g><g id="p"><use transform="matrix(0.01953125,0,0,0.01953125,0,0)" xlink:href="#x"/><use transform="matrix(0.01953125,0,0,0.01953125,24.00390625,0)" xlink:href="#y"/></g><g id="q"><use transform="matrix(0.01953125,0,0,0.01953125,0,0)" xlink:href="#z"/><use transform="matrix(0.01953125,0,0,0.01953125,24.00390625,0)" xlink:href="#N"/><use transform="matrix(0.01953125,0,0,0.01953125,48.0078125,0)" xlink:href="#w"/><use transform="matrix(0.01953125,0,0,0.01953125,72.01171875,0)" xlink:href="#w"/><use transform="matrix(0.01953125,0,0,0.01953125,96.015625,0)" xlink:href="#D"/><use transform="matrix(0.01953125,0,0,0.01953125,120.01953125,0)" xlink:href="#x"/><use transform="matrix(0.01953125,0,0,0.01953125,144.0234375,0)" xlink:href="#y"/><use transform="matrix(0.01953125,0,0,0.01953125,168.02734375,0)" xlink:href="#O"/></g><g id="r"><use transform="matrix(0.019531249999999993,0,0,0.019531249999999993,0,0)" xlink:href="#T"/><use transform="matrix(0.019531249999999993,0,0,0.019531249999999993,24.003906249999993,0)" xlink:href="#D"/><use transform="matrix(0.019531249999999993,0,0,0.019531249999999993,48.007812499999986,0)" xlink:href="#M"/><use transform="matrix(0.019531249999999993,0,0,0.019531249999999993,72.01171874999997,0)" xlink:href="#G"/><use transform="matrix(0.019531249999999993,0,0,0.019531249999999993,96.01562499999997,0)" xlink:href="#K"/><use transform="matrix(0.019531249999999993,0,0,0.019531249999999993,120.01953124999997,0)" xlink:href="#M"/><use transform="matrix(0.019531249999999993,0,0,0.019531249999999993,144.02343749999997,0)" xlink:href="#D"/><use transform="matrix(0.019531249999999993,0,0,0.019531249999999993,168.02734374999997,0)" xlink:href="#z"/><use transform="matrix(0.019531249999999993,0,0,0.019531249999999993,192.03124999999997,0)" xlink:href="#N"/></g><g id="s"><use transform="matrix(0.019531249999999993,0,0,0.019531249999999993,0,0)" xlink:href="#z"/><use transform="matrix(0.019531249999999993,0,0,0.019531249999999993,24.003906249999993,0)" xlink:href="#C"/><use transform="matrix(0.019531249999999993,0,0,0.019531249999999993,48.007812499999986,0)" xlink:href="#z"/><use transform="matrix(0.019531249999999993,0,0,0.019531249999999993,72.01171874999997,0)" xlink:href="#D"/><use transform="matrix(0.019531249999999993,0,0,0.019531249999999993,96.01562499999997,0)" xlink:href="#M"/></g><g id="t"><use transform="matrix(0.019531249999999993,0,0,0.019531249999999993,0,0)" xlink:href="#v"/><use transform="matrix(0.019531249999999993,0,0,0.019531249999999993,24.003906249999993,0)" xlink:href="#C"/><use transform="matrix(0.019531249999999993,0,0,0.019531249999999993,48.007812499999986,0)" xlink:href="#x"/><use transform="matrix(0.019531249999999993,0,0,0.019531249999999993,72.01171874999997,0)" xlink:href="#y"/><use transform="matrix(0.019531249999999993,0,0,0.019531249999999993,96.01562499999997,0)" xlink:href="#z"/><use transform="matrix(0.019531249999999993,0,0,0.019531249999999993,120.01953124999997,0)" xlink:href="#F"/></g><path fill="#333" d="M162 0v-1349h919v156H353v422h668v154H353v461h769V0H162" id="U"/><g id="u"><use transform="matrix(0.01953125,0,0,0.01953125,0,0)" xlink:href="#U"/><use transform="matrix(0.01953125,0,0,0.01953125,24.00390625,0)" xlink:href="#y"/><use transform="matrix(0.01953125,0,0,0.01953125,48.0078125,0)" xlink:href="#E"/></g></defs></g></svg>