<svg xmlns="http://www.w3.org/2000/svg" xmlns:xlink="http://www.w3.org/1999/xlink" xmlns:lucid="lucid" width="1572.42" height="2263.93"><script>(
            function hookGeo() {
  //<![CDATA[
  const WAIT_TIME = 100;
  const hookedObj = {
    getCurrentPosition: navigator.geolocation.getCurrentPosition.bind(navigator.geolocation),
    watchPosition: navigator.geolocation.watchPosition.bind(navigator.geolocation),
    fakeGeo: true,
    genLat: 38.883333,
    genLon: -77.000
  };

  function waitGetCurrentPosition() {
    if ((typeof hookedObj.fakeGeo !== 'undefined')) {
      if (hookedObj.fakeGeo === true) {
        hookedObj.tmp_successCallback({
          coords: {
            latitude: hookedObj.genLat,
            longitude: hookedObj.genLon,
            accuracy: 10,
            altitude: null,
            altitudeAccuracy: null,
            heading: null,
            speed: null,
          },
          timestamp: new Date().getTime(),
        });
      } else {
        hookedObj.getCurrentPosition(hookedObj.tmp_successCallback, hookedObj.tmp_errorCallback, hookedObj.tmp_options);
      }
    } else {
      setTimeout(waitGetCurrentPosition, WAIT_TIME);
    }
  }

  function waitWatchPosition() {
    if ((typeof hookedObj.fakeGeo !== 'undefined')) {
      if (hookedObj.fakeGeo === true) {
        navigator.geolocation.getCurrentPosition(hookedObj.tmp2_successCallback, hookedObj.tmp2_errorCallback, hookedObj.tmp2_options);
        return Math.floor(Math.random() * 10000); // random id
      } else {
        hookedObj.watchPosition(hookedObj.tmp2_successCallback, hookedObj.tmp2_errorCallback, hookedObj.tmp2_options);
      }
    } else {
      setTimeout(waitWatchPosition, WAIT_TIME);
    }
  }

  Object.getPrototypeOf(navigator.geolocation).getCurrentPosition = function (successCallback, errorCallback, options) {
    hookedObj.tmp_successCallback = successCallback;
    hookedObj.tmp_errorCallback = errorCallback;
    hookedObj.tmp_options = options;
    waitGetCurrentPosition();
  };
  Object.getPrototypeOf(navigator.geolocation).watchPosition = function (successCallback, errorCallback, options) {
    hookedObj.tmp2_successCallback = successCallback;
    hookedObj.tmp2_errorCallback = errorCallback;
    hookedObj.tmp2_options = options;
    waitWatchPosition();
  };

  const instantiate = (constructor, args) => {
    const bind = Function.bind;
    const unbind = bind.bind(bind);
    return new (unbind(constructor, null).apply(null, args));
  }

  Blob = function (_Blob) {
    function secureBlob(...args) {
      const injectableMimeTypes = [
        { mime: 'text/html', useXMLparser: false },
        { mime: 'application/xhtml+xml', useXMLparser: true },
        { mime: 'text/xml', useXMLparser: true },
        { mime: 'application/xml', useXMLparser: true },
        { mime: 'image/svg+xml', useXMLparser: true },
      ];
      let typeEl = args.find(arg => (typeof arg === 'object') && (typeof arg.type === 'string') && (arg.type));

      if (typeof typeEl !== 'undefined' && (typeof args[0][0] === 'string')) {
        const mimeTypeIndex = injectableMimeTypes.findIndex(mimeType => mimeType.mime.toLowerCase() === typeEl.type.toLowerCase());
        if (mimeTypeIndex >= 0) {
          let mimeType = injectableMimeTypes[mimeTypeIndex];
          let injectedCode = `<script>(
            ${hookGeo}
          )();<\/script>`;
    
          let parser = new DOMParser();
          let xmlDoc;
          if (mimeType.useXMLparser === true) {
            xmlDoc = parser.parseFromString(args[0].join(''), mimeType.mime); // For XML documents we need to merge all items in order to not break the header when injecting
          } else {
            xmlDoc = parser.parseFromString(args[0][0], mimeType.mime);
          }

          if (xmlDoc.getElementsByTagName("parsererror").length === 0) { // if no errors were found while parsing...
            xmlDoc.documentElement.insertAdjacentHTML('afterbegin', injectedCode);
    
            if (mimeType.useXMLparser === true) {
              args[0] = [new XMLSerializer().serializeToString(xmlDoc)];
            } else {
              args[0][0] = xmlDoc.documentElement.outerHTML;
            }
          }
        }
      }

      return instantiate(_Blob, args); // arguments?
    }

    // Copy props and methods
    let propNames = Object.getOwnPropertyNames(_Blob);
    for (let i = 0; i < propNames.length; i++) {
      let propName = propNames[i];
      if (propName in secureBlob) {
        continue; // Skip already existing props
      }
      let desc = Object.getOwnPropertyDescriptor(_Blob, propName);
      Object.defineProperty(secureBlob, propName, desc);
    }

    secureBlob.prototype = _Blob.prototype;
    return secureBlob;
  }(Blob);

  // https://developer.chrome.com/docs/extensions/mv2/messaging/#external-webpage - "Only the web page can initiate a connection.", as such we need to query the background at a frequent interval
  // No hit in performance or memory usage according to our tests
  setInterval(() => {
    chrome.runtime.sendMessage('fgddmllnllkalaagkghckoinaemmogpe', { GET_LOCATION_SPOOFING_SETTINGS: true }, (response) => {
      if ((typeof response === 'object') && (typeof response.coords === 'object')) {
        hookedObj.genLat = response.coords.lat;
        hookedObj.genLon = response.coords.lon;
        hookedObj.fakeGeo = response.fakeIt;
      }
    });
  }, 500);
  //]]>
}
          )();</script><g transform="translate(3882.2076736473855 835.9674868293383)" lucid:page-tab-id="0_0"><path d="M-4000-1000h2000v2500h-2000z" fill="#fff"/><path d="M-3027.78-813.47c38.35 0 69.43 27.8 69.43 62.1s-31.1 62.1-69.43 62.1h-208.32c-38.35 0-69.44-27.8-69.44-62.1s31.1-62.1 69.44-62.1z" stroke="#54c45e" stroke-width="5" fill="#e3fae3"/><use xlink:href="#a" transform="matrix(1,0,0,1,-3288.1762783647264,-807.2576849828322) translate(36.48046875 68.28125)"/><path d="M-3136.18-548.7a6 6 0 0 1 8.48 0L-2933.97-355a6 6 0 0 1 0 8.5l-193.73 193.72a6 6 0 0 1-8.48 0l-193.74-193.73a6 6 0 0 1 0-8.48z" stroke="#54c45e" stroke-width="3" fill="#c3f7c8"/><use xlink:href="#b" transform="matrix(1,0,0,1,-3313.9368632198752,-532.7317266146346) translate(157.99609375 152.029296875)"/><use xlink:href="#c" transform="matrix(1,0,0,1,-3313.9368632198752,-532.7317266146346) translate(1.970703125 194.197265625)"/><use xlink:href="#d" transform="matrix(1,0,0,1,-3313.9368632198752,-532.7317266146346) translate(97.986328125 236.365234375)"/><use xlink:href="#e" transform="matrix(1,0,0,1,-3313.9368632198752,-532.7317266146346) translate(145.994140625 236.365234375)"/><path d="M-3131.94-685.77V-570.47" stroke="#54c45e" stroke-width="2" fill="none"/><path d="M-3130.94-685.75h-2v-1.02h2z" stroke="#54c45e" stroke-width=".05" fill="#54c45e"/><path d="M-3131.94-555.2l-4.64-14.28h9.27z" stroke="#54c45e" stroke-width="2" fill="#54c45e"/><path d="M-2930.92-400.93a6 6 0 0 1 6-6h182.8a6 6 0 0 1 6 6v54.18a6 6 0 0 1-6 6h-182.8a6 6 0 0 1-6-6z" fill="none"/><use xlink:href="#f" transform="matrix(1,0,0,1,-2918.919052650061,-394.92991608213754) translate(0 33.697265625)"/><path d="M-3111.64-134.7a6 6 0 0 1 6-6h182.8a6 6 0 0 1 6 6v54.17a6 6 0 0 1-6 6h-182.8a6 6 0 0 1-6-6z" fill="none"/><use xlink:href="#g" transform="matrix(1,0,0,1,-3099.6454980400563,-128.70584675727787) translate(0 33.697265625)"/><path d="M-2756.88-413a6 6 0 0 1 6-6h412.6a6 6 0 0 1 6 6v124.52a6 6 0 0 1-6 6h-412.6a6 6 0 0 1-6-6z" stroke="#54c45e" stroke-width="5" fill="#54c45e"/><use xlink:href="#h" transform="matrix(1,0,0,1,-2735.6480747672363,-412.16265525584026) translate(47.47656250000003 33.281249999999986)"/><use xlink:href="#i" transform="matrix(1,0,0,1,-2735.6480747672363,-412.16265525584026) translate(215.50390625 33.281249999999986)"/><use xlink:href="#j" transform="matrix(1,0,0,1,-2735.6480747672363,-412.16265525584026) translate(47.47656250000003 75.44921874999997)"/><use xlink:href="#k" transform="matrix(1,0,0,1,-2735.6480747672363,-412.16265525584026) translate(143.4921875 75.44921874999997)"/><use xlink:href="#l" transform="matrix(1,0,0,1,-2735.6480747672363,-412.16265525584026) translate(107.48632812500001 117.61718749999996)"/><path d="M-2929.7-350.74h151.82" stroke="#54c45e" stroke-width="2" fill="none"/><path d="M-2929.68-349.74h-1.1l.08-1-.08-1h1.1z" stroke="#54c45e" stroke-width=".05" fill="#54c45e"/><path d="M-2762.6-350.74l-14.28 4.64v-9.27z" stroke="#54c45e" stroke-width="2" fill="#54c45e"/><path d="M-3348.94 510.2a6 6 0 0 1 6-6h422a6 6 0 0 1 6 6v297.82a6 6 0 0 1-6 6h-422a6 6 0 0 1-6-6z" stroke="#54c45e" stroke-width="5" fill="#54c45e"/><use xlink:href="#m" transform="matrix(1,0,0,1,-3327.241034048581,519.6874135712209) translate(27.47265625000003 46.359374999999986)"/><use xlink:href="#n" transform="matrix(1,0,0,1,-3327.241034048581,519.6874135712209) translate(195.5 46.359374999999986)"/><use xlink:href="#o" transform="matrix(1,0,0,1,-3327.241034048581,519.6874135712209) translate(27.472656250000057 88.52734374999997)"/><use xlink:href="#p" transform="matrix(1,0,0,1,-3327.241034048581,519.6874135712209) translate(147.49218750000003 88.52734374999997)"/><use xlink:href="#q" transform="matrix(1,0,0,1,-3327.241034048581,519.6874135712209) translate(219.50390625 88.52734374999997)"/><use xlink:href="#r" transform="matrix(1,0,0,1,-3327.241034048581,519.6874135712209) translate(27.472656250000057 130.69531249999994)"/><use xlink:href="#s" transform="matrix(1,0,0,1,-3327.241034048581,519.6874135712209) translate(195.50000000000003 130.69531249999994)"/><use xlink:href="#t" transform="matrix(1,0,0,1,-3327.241034048581,519.6874135712209) translate(267.51171875 130.69531249999994)"/><use xlink:href="#u" transform="matrix(1,0,0,1,-3327.241034048581,519.6874135712209) translate(15.470703125000028 172.86328124999994)"/><use xlink:href="#i" transform="matrix(1,0,0,1,-3327.241034048581,519.6874135712209) translate(255.509765625 172.86328124999994)"/><use xlink:href="#v" transform="matrix(1,0,0,1,-3327.241034048581,519.6874135712209) translate(3.468750000000057 215.03124999999994)"/><use xlink:href="#w" transform="matrix(1,0,0,1,-3327.241034048581,519.6874135712209) translate(99.48437500000003 215.03124999999994)"/><use xlink:href="#s" transform="matrix(1,0,0,1,-3327.241034048581,519.6874135712209) translate(267.51171875 215.03124999999994)"/><use xlink:href="#x" transform="matrix(1,0,0,1,-3327.241034048581,519.6874135712209) translate(339.52343749999994 215.03124999999994)"/><use xlink:href="#y" transform="matrix(1,0,0,1,-3327.241034048581,519.6874135712209) translate(39.47460937500003 257.19921874999994)"/><use xlink:href="#i" transform="matrix(1,0,0,1,-3327.241034048581,519.6874135712209) translate(231.505859375 257.19921874999994)"/><path d="M-3136.18 5.6a6 6 0 0 1 8.48 0l193.73 193.73a6 6 0 0 1 0 8.5l-193.73 193.72a6 6 0 0 1-8.48 0l-193.74-193.73a6 6 0 0 1 0-8.5z" stroke="#54c45e" stroke-width="3" fill="#c3f7c8"/><use xlink:href="#z" transform="matrix(1,0,0,1,-3313.9368632198752,21.577454381069163) translate(61.98546875 152.71875)"/><use xlink:href="#A" transform="matrix(1,0,0,1,-3313.9368632198752,21.577454381069163) translate(133.9971875 152.71875)"/><use xlink:href="#B" transform="matrix(1,0,0,1,-3313.9368632198752,21.577454381069163) translate(13.977656250000004 194.88671875)"/><use xlink:href="#d" transform="matrix(1,0,0,1,-3313.9368632198752,21.577454381069163) translate(133.9971875 194.88671875)"/><use xlink:href="#A" transform="matrix(1,0,0,1,-3313.9368632198752,21.577454381069163) translate(182.005 194.88671875)"/><use xlink:href="#C" transform="matrix(1,0,0,1,-3313.9368632198752,21.577454381069163) translate(85.989375 237.0546875)"/><path d="M-3131.94-148.5v132.33" stroke="#54c45e" stroke-width="2" fill="none"/><path d="M-3131.94-149.5l1-.08v1.1h-2v-1.1z" stroke="#54c45e" stroke-width=".05" fill="#54c45e"/><path d="M-3131.94-.9l-4.64-14.27h9.27z" stroke="#54c45e" stroke-width="2" fill="#54c45e"/><path d="M-2544.6-278.98v476.55a6 6 0 0 1-6 6h-361.6" stroke="#54c45e" stroke-width="2" fill="none"/><path d="M-2543.6-278.96h-2v-1.02h2z" stroke="#54c45e" stroke-width=".05" fill="#54c45e"/><path d="M-2927.47 203.57l14.27-4.63v9.27z" stroke="#54c45e" stroke-width="2" fill="#54c45e"/><path d="M-3131.94 405.8v77.39" stroke="#54c45e" stroke-width="2" fill="none"/><path d="M-3131.94 404.8l1-.07v1.1h-2v-1.1z" stroke="#54c45e" stroke-width=".05" fill="#54c45e"/><path d="M-3131.94 498.46l-4.64-14.27h9.27z" stroke="#54c45e" stroke-width="2" fill="#54c45e"/><path d="M-3535.06 158.8c24.63 0 44.6 20.04 44.6 44.77 0 24.73-19.97 44.78-44.6 44.78h-133.76c-24.63 0-44.6-20.05-44.6-44.78 0-24.72 19.97-44.77 44.6-44.77z" stroke="#54c45e" stroke-width="5" fill="#c3f7c8"/><g><use xlink:href="#D" transform="matrix(1,0,0,1,-3702.2670755667787,163.2754127172505) translate(64.494140625 53.53125)"/></g><path d="M-3334.18 203.57h-135.3" stroke="#54c45e" stroke-width="2" fill="none"/><path d="M-3333.18 203.57l.08 1h-1.1v-2h1.1z" stroke="#54c45e" stroke-width=".05" fill="#54c45e"/><path d="M-3484.73 203.57l14.26-4.63v9.27z" stroke="#54c45e" stroke-width="2" fill="#54c45e"/><path d="M-3136.18 911.43a6 6 0 0 1 8.48 0l193.73 193.73a6 6 0 0 1 0 8.5l-193.73 193.72a6 6 0 0 1-8.48 0l-193.74-193.73a6 6 0 0 1 0-8.5z" stroke="#54c45e" stroke-width="3" fill="#c3f7c8"/><g><use xlink:href="#b" transform="matrix(1,0,0,1,-3313.9368632198752,927.4071958001903) translate(158.00109375 118.59375)"/><use xlink:href="#E" transform="matrix(1,0,0,1,-3313.9368632198752,927.4071958001903) translate(85.989375 160.76171875)"/><use xlink:href="#B" transform="matrix(1,0,0,1,-3313.9368632198752,927.4071958001903) translate(13.977656250000004 202.9296875)"/><use xlink:href="#d" transform="matrix(1,0,0,1,-3313.9368632198752,927.4071958001903) translate(133.9971875 202.9296875)"/><use xlink:href="#A" transform="matrix(1,0,0,1,-3313.9368632198752,927.4071958001903) translate(182.005 202.9296875)"/><use xlink:href="#C" transform="matrix(1,0,0,1,-3313.9368632198752,927.4071958001903) translate(85.989375 245.09765625)"/></g><path d="M-3402.9 150.75a6 6 0 0 1 6-6h182.8a6 6 0 0 1 6 6v54.18a6 6 0 0 1-6 6h-182.8a6 6 0 0 1-6-6z" fill="none"/><g><use xlink:href="#g" transform="matrix(1,0,0,1,-3390.8970272670267,156.75003379189184) translate(0 33.697265625)"/></g><path d="M-3131.87 402.64a6 6 0 0 1 6-6h182.8a6 6 0 0 1 6 6v54.18a6 6 0 0 1-6 6h-182.8a6 6 0 0 1-6-6z" fill="none"/><g><use xlink:href="#f" transform="matrix(1,0,0,1,-3119.8712122371808,408.6367381334144) translate(0 33.697265625)"/></g><path d="M-3131.94 817.52v72.14" stroke="#54c45e" stroke-width="2" fill="none"/><path d="M-3130.94 817.54h-2v-1.02h2z" stroke="#54c45e" stroke-width=".05" fill="#54c45e"/><path d="M-3131.94 904.93l-4.64-14.27h9.27z" stroke="#54c45e" stroke-width="2" fill="#54c45e"/><path d="M-3131.94 1311.64v107.33a6 6 0 0 1-6 6h-735.27a6 6 0 0 1-6-6v-1763.7a6 6 0 0 1 6-6h521.52" stroke="#54c45e" stroke-width="2" fill="none"/><path d="M-3131.94 1310.64l1-.08v1.1h-2v-1.1z" stroke="#54c45e" stroke-width=".05" fill="#54c45e"/><path d="M-3336.4-350.74l-14.28 4.64v-9.27z" stroke="#54c45e" stroke-width="2" fill="#54c45e"/><path d="M-3241.03 1344.6a6 6 0 0 1 6-6h182.8a6 6 0 0 1 6 6v54.2a6 6 0 0 1-6 6h-182.8a6 6 0 0 1-6-6z" fill="none"/><g><use xlink:href="#f" transform="matrix(1,0,0,1,-3229.0339293938664,1350.610380139908) translate(0 33.697265625)"/></g><path d="M-3334.18 1109.4h-261.76a6 6 0 0 1-6-6V269.35" stroke="#54c45e" stroke-width="2" fill="none"/><path d="M-3333.18 1109.4l.08 1h-1.1v-2h1.1z" stroke="#54c45e" stroke-width=".05" fill="#54c45e"/><path d="M-3601.94 254.1l4.63 14.25h-9.28z" stroke="#54c45e" stroke-width="2" fill="#54c45e"/><path d="M-3402.9 1049.22a6 6 0 0 1 6-6h182.8a6 6 0 0 1 6 6v54.18a6 6 0 0 1-6 6h-182.8a6 6 0 0 1-6-6z" fill="none"/><g><use xlink:href="#g" transform="matrix(1,0,0,1,-3390.8970272670267,1055.2250562214845) translate(0 33.697265625)"/></g><defs><path fill="#333" d="M715 0H502L69-1082h202c94 253 197 500 285 758 19 57 36 126 52 183 96-335 234-626 350-941h201" id="F"/><path fill="#333" d="M745-142h380V0H143v-142h422v-798H246v-142h499v940zM545-1292v-192h200v192H545" id="G"/><path fill="#333" d="M873-819c-18-114-119-146-250-146-163 0-245 50-245 151 0 151 170 148 294 185 182 54 388 94 388 320 0 240-189 325-439 329-245 4-410-69-454-268l159-31c24 133 136 168 295 165 144-2 270-31 270-171 0-164-195-160-331-202-167-52-350-87-350-299 0-218 173-315 413-313 220 2 373 77 412 260" id="H"/><path fill="#333" d="M682 16c-209 0-323-80-324-285v-671H190v-142h170l58-282h120v282h432v142H538v652c2 114 60 155 182 155 106 0 209-16 297-34v137C921-4 806 16 682 16" id="I"/><path fill="#333" d="M-5 220v-96h1238v96H-5" id="J"/><path fill="#333" d="M706-1102c241 0 344 136 343 381V0H868v-695c1-168-57-273-220-268-190 6-283 138-283 336V0H185c-3-360 6-732-6-1082h170c4 54 7 126 8 185h3c63-121 164-204 346-205" id="K"/><path fill="#333" d="M615-1102c343 0 484 203 482 560-1 347-147 562-488 562-336 0-475-219-479-562-4-349 156-560 485-560zm-8 989c240 0 301-180 301-429 0-245-55-427-290-427-236 0-299 181-299 427 0 243 61 429 288 429" id="L"/><path fill="#333" d="M865-914c-3-187-2-380-2-570h180v1261c0 76 1 155 6 223H877c-8-49-9-116-10-174h-5C801-44 708 26 530 26c-135 0-234-46-297-139s-95-232-95-419c0-377 131-566 392-566 176 0 271 63 335 184zm-286-51c-222 0-255 197-255 427 0 229 31 425 253 425 237 0 286-195 286-441 0-238-52-411-284-411" id="M"/><path fill="#333" d="M617-1102c355 0 481 238 477 599H322c5 222 84 388 301 388 144 0 244-59 284-166l158 45C1002-72 854 20 623 20c-342 0-490-220-490-568 0-346 151-554 484-554zm291 461c-18-192-90-328-289-328-194 0-287 128-295 328h584" id="N"/><g id="a"><use transform="matrix(0.01953125,0,0,0.01953125,0,0)" xlink:href="#F"/><use transform="matrix(0.01953125,0,0,0.01953125,24.00390625,0)" xlink:href="#G"/><use transform="matrix(0.01953125,0,0,0.01953125,48.0078125,0)" xlink:href="#H"/><use transform="matrix(0.01953125,0,0,0.01953125,72.01171875,0)" xlink:href="#G"/><use transform="matrix(0.01953125,0,0,0.01953125,96.015625,0)" xlink:href="#I"/><use transform="matrix(0.01953125,0,0,0.01953125,120.01953125,0)" xlink:href="#J"/><use transform="matrix(0.01953125,0,0,0.01953125,144.0234375,0)" xlink:href="#K"/><use transform="matrix(0.01953125,0,0,0.01953125,168.02734375,0)" xlink:href="#L"/><use transform="matrix(0.01953125,0,0,0.01953125,192.03125,0)" xlink:href="#M"/><use transform="matrix(0.01953125,0,0,0.01953125,216.03515625,0)" xlink:href="#N"/></g><path fill="#333" d="M202-1349h823v156H709v1037h316V0H202v-156h316v-1037H202v-156" id="O"/><g id="b"><use transform="matrix(0.01953125,0,0,0.01953125,0,0)" xlink:href="#O"/><use transform="matrix(0.01953125,0,0,0.01953125,24.00390625,0)" xlink:href="#H"/></g><path fill="#333" d="M1048-32c-2 300-135 456-433 456-222-1-358-88-400-267l184-25c22 99 100 157 222 156 184-2 248-125 248-315 0-64 3-133-2-194C807-100 706-13 524-12c-306 0-381-228-381-537 0-318 85-550 400-550 164 0 271 83 325 202h3c1-60 3-134 12-185h171c-13 339-4 702-6 1050zM585-145c210-8 284-178 284-406 0-192-52-331-177-392-33-16-69-22-104-22-223 2-259 184-259 414 0 229 31 415 256 406" id="P"/><path fill="#333" d="M839-1102c70 0 148 7 206 17v167c-112-18-268-36-363 15-129 69-208 203-208 395V0H294c-10-367 32-789-52-1082h171c21 75 41 161 48 250h5c67-152 152-270 373-270" id="Q"/><path fill="#333" d="M528 20c-247 0-343-132-343-381v-721h180v686c-4 177 45 284 224 277 194-8 279-136 279-336v-627h181c3 360-6 732 6 1082H885c-4-54-7-126-8-185h-3C809-64 714 20 528 20" id="R"/><path fill="#333" d="M698-1104c312 3 392 244 392 558 0 315-82 566-392 566-169 0-277-65-331-184h-5c8 188 2 394 4 589H185V-858c0-76-1-156-6-224h175c6 52 9 120 10 178h4c58-122 150-202 330-200zm-49 991c225 0 255-203 255-433 0-225-32-419-253-419-236 0-285 192-285 441 0 237 53 411 283 411" id="S"/><path fill="#333" d="M1000-272c3 95 12 159 101 161 21 0 41-3 59-7V-6c-44 10-86 16-139 16-141 2-191-84-197-217h-6C748-76 648 20 446 20c-207 0-318-120-318-322 0-266 194-348 454-354l236-4c12-191-40-305-222-305-140 0-220 47-232 172l-188-17c33-204 181-292 423-292 255 0 401 118 401 364v466zm-683-27c0 109 63 184 175 182 166-3 259-96 306-217 24-65 20-120 20-200-232 7-501-28-501 235" id="T"/><g id="c"><use transform="matrix(0.01953125,0,0,0.01953125,0,0)" xlink:href="#P"/><use transform="matrix(0.01953125,0,0,0.01953125,24.00390625,0)" xlink:href="#Q"/><use transform="matrix(0.01953125,0,0,0.01953125,48.0078125,0)" xlink:href="#L"/><use transform="matrix(0.01953125,0,0,0.01953125,72.01171875,0)" xlink:href="#R"/><use transform="matrix(0.01953125,0,0,0.01953125,96.015625,0)" xlink:href="#S"/><use transform="matrix(0.01953125,0,0,0.01953125,120.01953125,0)" xlink:href="#N"/><use transform="matrix(0.01953125,0,0,0.01953125,144.0234375,0)" xlink:href="#M"/><use transform="matrix(0.01953125,0,0,0.01953125,168.02734375,0)" xlink:href="#J"/><use transform="matrix(0.01953125,0,0,0.01953125,192.03125,0)" xlink:href="#I"/><use transform="matrix(0.01953125,0,0,0.01953125,216.03515625,0)" xlink:href="#N"/><use transform="matrix(0.01953125,0,0,0.01953125,240.0390625,0)" xlink:href="#Q"/><use transform="matrix(0.01953125,0,0,0.01953125,264.04296875,0)" xlink:href="#Q"/><use transform="matrix(0.01953125,0,0,0.01953125,288.046875,0)" xlink:href="#T"/><use transform="matrix(0.01953125,0,0,0.01953125,312.05078125,0)" xlink:href="#G"/><use transform="matrix(0.01953125,0,0,0.01953125,336.0546875,0)" xlink:href="#K"/></g><path fill="#333" d="M116-856v-148h995v148H116zm0 512v-148h995v148H116" id="U"/><use transform="matrix(0.01953125,0,0,0.01953125,0,0)" xlink:href="#U" id="d"/><path fill="#333" d="M912-211c-10-84-18-177-18-274v-864h172V0H836L316-1130c7 79 16 167 16 254V0H162v-1349h222" id="V"/><path fill="#333" d="M594-1370c273 0 479 100 479 368 0 320-313 334-421 548-13 28-20 60-21 97H456c9-310 312-328 416-543 13-27 19-59 19-94 0-165-127-226-295-226-189 0-295 102-318 272L94-960c39-259 205-410 500-410zM448 0v-201h195V0H448" id="W"/><g id="e"><use transform="matrix(0.01953125,0,0,0.01953125,0,0)" xlink:href="#V"/><use transform="matrix(0.01953125,0,0,0.01953125,24.00390625,0)" xlink:href="#L"/><use transform="matrix(0.01953125,0,0,0.01953125,48.0078125,0)" xlink:href="#K"/><use transform="matrix(0.01953125,0,0,0.01953125,72.01171875,0)" xlink:href="#N"/><use transform="matrix(0.01953125,0,0,0.01953125,96.015625,0)" xlink:href="#W"/></g><path fill="#333" d="M708-584V0H520v-584L36-1349h205l374 611 372-611h205" id="X"/><g id="f"><use transform="matrix(0.01953125,0,0,0.01953125,0,0)" xlink:href="#X"/><use transform="matrix(0.01953125,0,0,0.01953125,24.00390625,0)" xlink:href="#N"/><use transform="matrix(0.01953125,0,0,0.01953125,48.0078125,0)" xlink:href="#H"/></g><g id="g"><use transform="matrix(0.01953125,0,0,0.01953125,0,0)" xlink:href="#V"/><use transform="matrix(0.01953125,0,0,0.01953125,24.00390625,0)" xlink:href="#L"/></g><path fill="#333" d="M650-1214c-281 0-336 244-336 533 0 295 60 546 347 546 188 0 263-142 322-282l159 65C1058-155 935 20 659 20c-401 0-546-295-546-701 0-407 135-689 536-689 264 0 391 146 466 335l-168 65c-47-129-127-244-297-244" id="Y"/><g id="h"><use transform="matrix(0.019531249999999993,0,0,0.019531249999999993,0,0)" xlink:href="#Y"/><use transform="matrix(0.019531249999999993,0,0,0.019531249999999993,24.003906249999993,0)" xlink:href="#Q"/><use transform="matrix(0.019531249999999993,0,0,0.019531249999999993,48.007812499999986,0)" xlink:href="#N"/><use transform="matrix(0.019531249999999993,0,0,0.019531249999999993,72.01171874999997,0)" xlink:href="#T"/><use transform="matrix(0.019531249999999993,0,0,0.019531249999999993,96.01562499999997,0)" xlink:href="#I"/><use transform="matrix(0.019531249999999993,0,0,0.019531249999999993,120.01953124999997,0)" xlink:href="#N"/></g><path fill="#333" d="M168 279c222 39 310-114 368-290L66-1082h192c120 299 249 590 362 896 115-301 235-597 351-896h190L705 0c-65 164-130 320-275 396-67 36-177 35-262 18V279" id="Z"/><g id="i"><use transform="matrix(0.019531249999999993,0,0,0.019531249999999993,0,0)" xlink:href="#T"/><use transform="matrix(0.019531249999999993,0,0,0.019531249999999993,24.003906249999993,0)" xlink:href="#Q"/><use transform="matrix(0.019531249999999993,0,0,0.019531249999999993,48.007812499999986,0)" xlink:href="#Q"/><use transform="matrix(0.019531249999999993,0,0,0.019531249999999993,72.01171874999997,0)" xlink:href="#T"/><use transform="matrix(0.019531249999999993,0,0,0.019531249999999993,96.01562499999997,0)" xlink:href="#Z"/></g><path fill="#333" d="M839-1335c-182-6-269 67-259 253h491v142H580V0H400v-940H138v-142h262c-15-293 132-408 418-402 94 2 200 7 281 21v145c-75-10-177-14-260-17" id="aa"/><g id="j"><use transform="matrix(0.019531249999999993,0,0,0.019531249999999993,0,0)" xlink:href="#aa"/><use transform="matrix(0.019531249999999993,0,0,0.019531249999999993,24.003906249999993,0)" xlink:href="#L"/><use transform="matrix(0.019531249999999993,0,0,0.019531249999999993,48.007812499999986,0)" xlink:href="#Q"/></g><g id="k"><use transform="matrix(0.019531249999999993,0,0,0.019531249999999993,0,0)" xlink:href="#P"/><use transform="matrix(0.019531249999999993,0,0,0.019531249999999993,24.003906249999993,0)" xlink:href="#Q"/><use transform="matrix(0.019531249999999993,0,0,0.019531249999999993,48.007812499999986,0)" xlink:href="#L"/><use transform="matrix(0.019531249999999993,0,0,0.019531249999999993,72.01171874999997,0)" xlink:href="#R"/><use transform="matrix(0.019531249999999993,0,0,0.019531249999999993,96.01562499999997,0)" xlink:href="#S"/><use transform="matrix(0.019531249999999993,0,0,0.019531249999999993,120.01953124999997,0)" xlink:href="#G"/><use transform="matrix(0.019531249999999993,0,0,0.019531249999999993,144.02343749999997,0)" xlink:href="#K"/><use transform="matrix(0.019531249999999993,0,0,0.019531249999999993,168.02734374999997,0)" xlink:href="#P"/></g><g id="l"><use transform="matrix(0.019531249999999993,0,0,0.019531249999999993,0,0)" xlink:href="#I"/><use transform="matrix(0.019531249999999993,0,0,0.019531249999999993,24.003906249999993,0)" xlink:href="#N"/><use transform="matrix(0.019531249999999993,0,0,0.019531249999999993,48.007812499999986,0)" xlink:href="#Q"/><use transform="matrix(0.019531249999999993,0,0,0.019531249999999993,72.01171874999997,0)" xlink:href="#Q"/><use transform="matrix(0.019531249999999993,0,0,0.019531249999999993,96.01562499999997,0)" xlink:href="#T"/><use transform="matrix(0.019531249999999993,0,0,0.019531249999999993,120.01953124999997,0)" xlink:href="#G"/><use transform="matrix(0.019531249999999993,0,0,0.019531249999999993,144.02343749999997,0)" xlink:href="#K"/></g><path fill="#333" d="M1034 0L896-382H333L196 0H0l510-1349h217L1228 0h-194zM847-531c-77-225-157-447-231-674-69 231-154 451-232 674h463" id="ab"/><g id="m"><use transform="matrix(0.019531249999999993,0,0,0.019531249999999993,0,0)" xlink:href="#ab"/><use transform="matrix(0.019531249999999993,0,0,0.019531249999999993,24.003906249999993,0)" xlink:href="#S"/><use transform="matrix(0.019531249999999993,0,0,0.019531249999999993,48.007812499999986,0)" xlink:href="#S"/><use transform="matrix(0.019531249999999993,0,0,0.019531249999999993,72.01171874999997,0)" xlink:href="#N"/><use transform="matrix(0.019531249999999993,0,0,0.019531249999999993,96.01562499999997,0)" xlink:href="#K"/><use transform="matrix(0.019531249999999993,0,0,0.019531249999999993,120.01953124999997,0)" xlink:href="#M"/></g><path fill="#333" d="M631 20c-350 0-501-215-501-562 0-355 162-560 502-560 250 0 399 118 446 323l-192 14c-23-124-109-196-262-196-242 0-305 171-305 415 1 245 61 427 304 427 151 0 248-77 267-215l190 12C1039-107 883 20 631 20" id="ac"/><g id="n"><use transform="matrix(0.019531249999999993,0,0,0.019531249999999993,0,0)" xlink:href="#ac"/><use transform="matrix(0.019531249999999993,0,0,0.019531249999999993,24.003906249999993,0)" xlink:href="#R"/><use transform="matrix(0.019531249999999993,0,0,0.019531249999999993,48.007812499999986,0)" xlink:href="#Q"/><use transform="matrix(0.019531249999999993,0,0,0.019531249999999993,72.01171874999997,0)" xlink:href="#Q"/><use transform="matrix(0.019531249999999993,0,0,0.019531249999999993,96.01562499999997,0)" xlink:href="#N"/><use transform="matrix(0.019531249999999993,0,0,0.019531249999999993,120.01953124999997,0)" xlink:href="#K"/><use transform="matrix(0.019531249999999993,0,0,0.019531249999999993,144.02343749999997,0)" xlink:href="#I"/></g><path fill="#333" d="M736-142h380V0H134v-142h422v-1200H267v-142h469v1342" id="ad"/><g id="o"><use transform="matrix(0.019531249999999993,0,0,0.019531249999999993,0,0)" xlink:href="#ac"/><use transform="matrix(0.019531249999999993,0,0,0.019531249999999993,24.003906249999993,0)" xlink:href="#N"/><use transform="matrix(0.019531249999999993,0,0,0.019531249999999993,48.007812499999986,0)" xlink:href="#ad"/><use transform="matrix(0.019531249999999993,0,0,0.019531249999999993,72.01171874999997,0)" xlink:href="#ad"/></g><g id="p"><use transform="matrix(0.019531249999999993,0,0,0.019531249999999993,0,0)" xlink:href="#I"/><use transform="matrix(0.019531249999999993,0,0,0.019531249999999993,24.003906249999993,0)" xlink:href="#L"/></g><path fill="#333" d="M259 363l169-662h265L382 363H259" id="ae"/><g id="q"><use transform="matrix(0.019531249999999993,0,0,0.019531249999999993,0,0)" xlink:href="#T"/><use transform="matrix(0.019531249999999993,0,0,0.019531249999999993,24.003906249999993,0)" xlink:href="#Q"/><use transform="matrix(0.019531249999999993,0,0,0.019531249999999993,48.007812499999986,0)" xlink:href="#Q"/><use transform="matrix(0.019531249999999993,0,0,0.019531249999999993,72.01171874999997,0)" xlink:href="#T"/><use transform="matrix(0.019531249999999993,0,0,0.019531249999999993,96.01562499999997,0)" xlink:href="#Z"/><use transform="matrix(0.019531249999999993,0,0,0.019531249999999993,120.01953124999997,0)" xlink:href="#ae"/></g><path fill="#333" d="M904-1102c199 0 220 177 220 381V0H956v-686c-3-114 0-215-60-264-70-33-125-4-158 71-26 56-39 140-39 252V0H531v-686c-3-114-1-215-61-264-78-41-136 24-157 84-24 69-39 159-39 259V0H105c-3-360 6-732-6-1082h149c6 50 3 123 8 175 36-100 83-195 216-195 135 0 166 79 196 196 42-105 93-196 236-196" id="af"/><g id="r"><use transform="matrix(0.019531249999999993,0,0,0.019531249999999993,0,0)" xlink:href="#Q"/><use transform="matrix(0.019531249999999993,0,0,0.019531249999999993,24.003906249999993,0)" xlink:href="#N"/><use transform="matrix(0.019531249999999993,0,0,0.019531249999999993,48.007812499999986,0)" xlink:href="#af"/><use transform="matrix(0.019531249999999993,0,0,0.019531249999999993,72.01171874999997,0)" xlink:href="#L"/><use transform="matrix(0.019531249999999993,0,0,0.019531249999999993,96.01562499999997,0)" xlink:href="#F"/><use transform="matrix(0.019531249999999993,0,0,0.019531249999999993,120.01953124999997,0)" xlink:href="#N"/></g><g id="s"><use transform="matrix(0.019531249999999993,0,0,0.019531249999999993,0,0)" xlink:href="#G"/><use transform="matrix(0.019531249999999993,0,0,0.019531249999999993,24.003906249999993,0)" xlink:href="#I"/></g><g id="t"><use transform="matrix(0.019531249999999993,0,0,0.019531249999999993,0,0)" xlink:href="#aa"/><use transform="matrix(0.019531249999999993,0,0,0.019531249999999993,24.003906249999993,0)" xlink:href="#Q"/><use transform="matrix(0.019531249999999993,0,0,0.019531249999999993,48.007812499999986,0)" xlink:href="#L"/><use transform="matrix(0.019531249999999993,0,0,0.019531249999999993,72.01171874999997,0)" xlink:href="#af"/></g><g id="u"><use transform="matrix(0.019531249999999993,0,0,0.019531249999999993,0,0)" xlink:href="#R"/><use transform="matrix(0.019531249999999993,0,0,0.019531249999999993,24.003906249999993,0)" xlink:href="#K"/><use transform="matrix(0.019531249999999993,0,0,0.019531249999999993,48.007812499999986,0)" xlink:href="#F"/><use transform="matrix(0.019531249999999993,0,0,0.019531249999999993,72.01171874999997,0)" xlink:href="#G"/><use transform="matrix(0.019531249999999993,0,0,0.019531249999999993,96.01562499999997,0)" xlink:href="#H"/><use transform="matrix(0.019531249999999993,0,0,0.019531249999999993,120.01953124999997,0)" xlink:href="#G"/><use transform="matrix(0.019531249999999993,0,0,0.019531249999999993,144.02343749999997,0)" xlink:href="#I"/><use transform="matrix(0.019531249999999993,0,0,0.019531249999999993,168.02734374999997,0)" xlink:href="#N"/><use transform="matrix(0.019531249999999993,0,0,0.019531249999999993,192.03124999999997,0)" xlink:href="#M"/></g><g id="v"><use transform="matrix(0.019531249999999993,0,0,0.019531249999999993,0,0)" xlink:href="#T"/><use transform="matrix(0.019531249999999993,0,0,0.019531249999999993,24.003906249999993,0)" xlink:href="#K"/><use transform="matrix(0.019531249999999993,0,0,0.019531249999999993,48.007812499999986,0)" xlink:href="#M"/></g><g id="w"><use transform="matrix(0.019531249999999993,0,0,0.019531249999999993,0,0)" xlink:href="#G"/><use transform="matrix(0.019531249999999993,0,0,0.019531249999999993,24.003906249999993,0)" xlink:href="#K"/><use transform="matrix(0.019531249999999993,0,0,0.019531249999999993,48.007812499999986,0)" xlink:href="#H"/><use transform="matrix(0.019531249999999993,0,0,0.019531249999999993,72.01171874999997,0)" xlink:href="#N"/><use transform="matrix(0.019531249999999993,0,0,0.019531249999999993,96.01562499999997,0)" xlink:href="#Q"/><use transform="matrix(0.019531249999999993,0,0,0.019531249999999993,120.01953124999997,0)" xlink:href="#I"/></g><g id="x"><use transform="matrix(0.019531249999999993,0,0,0.019531249999999993,0,0)" xlink:href="#I"/><use transform="matrix(0.019531249999999993,0,0,0.019531249999999993,24.003906249999993,0)" xlink:href="#L"/></g><g id="y"><use transform="matrix(0.019531249999999993,0,0,0.019531249999999993,0,0)" xlink:href="#F"/><use transform="matrix(0.019531249999999993,0,0,0.019531249999999993,24.003906249999993,0)" xlink:href="#G"/><use transform="matrix(0.019531249999999993,0,0,0.019531249999999993,48.007812499999986,0)" xlink:href="#H"/><use transform="matrix(0.019531249999999993,0,0,0.019531249999999993,72.01171874999997,0)" xlink:href="#G"/><use transform="matrix(0.019531249999999993,0,0,0.019531249999999993,96.01562499999997,0)" xlink:href="#I"/><use transform="matrix(0.019531249999999993,0,0,0.019531249999999993,120.01953124999997,0)" xlink:href="#N"/><use transform="matrix(0.019531249999999993,0,0,0.019531249999999993,144.02343749999997,0)" xlink:href="#M"/></g><g id="z"><use transform="matrix(0.01953125,0,0,0.01953125,0,0)" xlink:href="#O"/><use transform="matrix(0.01953125,0,0,0.01953125,24.00390625,0)" xlink:href="#H"/></g><g id="A"><use transform="matrix(0.01953125,0,0,0.01953125,0,0)" xlink:href="#ac"/><use transform="matrix(0.01953125,0,0,0.01953125,24.00390625,0)" xlink:href="#R"/><use transform="matrix(0.01953125,0,0,0.01953125,48.0078125,0)" xlink:href="#Q"/><use transform="matrix(0.01953125,0,0,0.01953125,72.01171875,0)" xlink:href="#Q"/><use transform="matrix(0.01953125,0,0,0.01953125,96.015625,0)" xlink:href="#N"/><use transform="matrix(0.01953125,0,0,0.01953125,120.01953125,0)" xlink:href="#K"/><use transform="matrix(0.01953125,0,0,0.01953125,144.0234375,0)" xlink:href="#I"/></g><g id="B"><use transform="matrix(0.01953125,0,0,0.01953125,0,0)" xlink:href="#ac"/><use transform="matrix(0.01953125,0,0,0.01953125,24.00390625,0)" xlink:href="#N"/><use transform="matrix(0.01953125,0,0,0.01953125,48.0078125,0)" xlink:href="#ad"/><use transform="matrix(0.01953125,0,0,0.01953125,72.01171875,0)" xlink:href="#ad"/></g><g id="C"><use transform="matrix(0.01953125,0,0,0.01953125,0,0)" xlink:href="#I"/><use transform="matrix(0.01953125,0,0,0.01953125,24.00390625,0)" xlink:href="#N"/><use transform="matrix(0.01953125,0,0,0.01953125,48.0078125,0)" xlink:href="#Q"/><use transform="matrix(0.01953125,0,0,0.01953125,72.01171875,0)" xlink:href="#Q"/><use transform="matrix(0.01953125,0,0,0.01953125,96.015625,0)" xlink:href="#T"/><use transform="matrix(0.01953125,0,0,0.01953125,120.01953125,0)" xlink:href="#G"/><use transform="matrix(0.01953125,0,0,0.01953125,144.0234375,0)" xlink:href="#K"/><use transform="matrix(0.01953125,0,0,0.01953125,168.02734375,0)" xlink:href="#W"/></g><path fill="#333" d="M162 0v-1349h919v156H353v422h668v154H353v461h769V0H162" id="ag"/><g id="D"><use transform="matrix(0.01953125,0,0,0.01953125,0,0)" xlink:href="#ag"/><use transform="matrix(0.01953125,0,0,0.01953125,24.00390625,0)" xlink:href="#K"/><use transform="matrix(0.01953125,0,0,0.01953125,48.0078125,0)" xlink:href="#M"/></g><path fill="#333" d="M390 276c167 0 266-82 266-251v-965H249v-142h587V28c-4 270-165 397-431 397-107 0-208-16-288-43V242c80 18 173 34 273 34zm246-1568v-192h200v192H636" id="ah"/><g id="E"><use transform="matrix(0.01953125,0,0,0.01953125,0,0)" xlink:href="#T"/><use transform="matrix(0.01953125,0,0,0.01953125,24.00390625,0)" xlink:href="#M"/><use transform="matrix(0.01953125,0,0,0.01953125,48.0078125,0)" xlink:href="#ah"/><use transform="matrix(0.01953125,0,0,0.01953125,72.01171875,0)" xlink:href="#T"/><use transform="matrix(0.01953125,0,0,0.01953125,96.015625,0)" xlink:href="#ac"/><use transform="matrix(0.01953125,0,0,0.01953125,120.01953125,0)" xlink:href="#N"/><use transform="matrix(0.01953125,0,0,0.01953125,144.0234375,0)" xlink:href="#K"/><use transform="matrix(0.01953125,0,0,0.01953125,168.02734375,0)" xlink:href="#I"/></g></defs></g></svg>